<?xml version="1.0" encoding="UTF-8"?>
<svg width="254px" height="174px" viewBox="0 0 254 174" version="1.1" xmlns="http://www.w3.org/2000/svg" xmlns:xlink="http://www.w3.org/1999/xlink">
    <!-- Generator: Sketch 46.2 (44496) - http://www.bohemiancoding.com/sketch -->
    <title>Page 1</title>
    <desc>Created with Sketch.</desc>
    <defs>
        <polygon id="path-1" points="242.486309 10.9998263 242.486309 0.0554052632 0.144726279 0.0554052632 0.144726279 10.9998263"></polygon>
    </defs>
    <g id="Page-1" stroke="none" stroke-width="1" fill="none" fill-rule="evenodd">
        <g id="Home-Page" transform="translate(-1010.000000, -2018.000000)">
            <g id="Page-1" transform="translate(1012.000000, 2019.000000)">
                <path d="M38.4220102,0 L222.577424,0 C227.760492,0 232,4.23795782 232,9.41674115 L232,109.580996 C232,114.760911 227.760492,119 222.577424,119 L38.4220102,119 C33.2400744,119 29,114.760911 29,109.580996 L29,9.41674115 C29,4.23795782 33.2400744,0 38.4220102,0" id="Fill-1" fill="#B4E4EF"></path>
                <path d="M38.4220102,0 L222.577424,0 C227.760492,0 232,4.23795782 232,9.41674115 L232,109.580996 C232,114.760911 227.760492,119 222.577424,119 L38.4220102,119 C33.2400744,119 29,114.760911 29,109.580996 L29,9.41674115 C29,4.23795782 33.2400744,0 38.4220102,0 Z" id="Stroke-3" stroke="#032D42" stroke-width="0.25"></path>
                <path d="M223.226061,110.561575 C223.226061,110.900646 222.916446,111.210233 222.579662,111.210233 L38.4214704,111.210233 C38.0858182,111.210233 37.776769,110.900646 37.776769,110.561575 L37.776769,9.43729121 C37.776769,9.09992109 38.0858182,8.79146841 38.4214704,8.79146841 L222.579662,8.79146841 C222.916446,8.79146841 223.226061,9.09992109 223.226061,9.43729121 L223.226061,110.561575 Z M222.579662,0 L38.4214704,0 C33.2395202,0 29,4.24746146 29,9.43729121 L29,110.561575 C29,115.752539 33.2395202,120 38.4214704,120 L222.579662,120 C227.761046,120 232,115.752539 232,110.561575 L232,9.43729121 C232,4.24746146 227.761046,0 222.579662,0 L222.579662,0 Z" id="Fill-5" fill="#254D4F"></path>
                <path d="M223.226061,110.561575 C223.226061,110.900646 222.916446,111.210233 222.579662,111.210233 L38.4214704,111.210233 C38.0858182,111.210233 37.776769,110.900646 37.776769,110.561575 L37.776769,9.43729121 C37.776769,9.09992109 38.0858182,8.79146841 38.4214704,8.79146841 L222.579662,8.79146841 C222.916446,8.79146841 223.226061,9.09992109 223.226061,9.43729121 L223.226061,110.561575 Z M222.579662,0 L38.4214704,0 C33.2395202,0 29,4.24746146 29,9.43729121 L29,110.561575 C29,115.752539 33.2395202,120 38.4214704,120 L222.579662,120 C227.761046,120 232,115.752539 232,110.561575 L232,9.43729121 C232,4.24746146 227.761046,0 222.579662,0 Z" id="Stroke-7" stroke="#032D42" stroke-width="0.25"></path>
                <path d="M134,113 C132.003951,101.35525 130.237848,91.1412673 129.960791,90.5677046 C129.317501,89.2425178 100.013323,79 100.013323,79 C98.3846278,81.1869576 95.0745177,88.0554427 94.4788997,88.6655308 C93.8815993,89.2744775 90.9466948,90.9940243 90.9466948,90.9940243 C90.9466948,90.9940243 90.6853407,90.9015695 90.2731193,90.7451951 L89,113 L134,113 Z" id="Fill-9" fill="#35626C"></path>
                <path d="M83,113 L81.1601344,91.5507085 C80.7515842,91.7065325 80.4920019,91.7987666 80.4920019,91.7987666 C80.4920019,91.7987666 77.1335524,90.2078721 76.5410156,89.5977523 C75.9484788,88.9853409 73.3876749,79.9779103 73.5194115,79 C73.5194115,79 42.4645923,90.0400175 41.8281433,91.3719692 C41.5568882,91.9391228 39.8921156,101.722809 38,113 L83,113 Z" id="Fill-11" fill="#35626C"></path>
                <path d="M99.9821182,80.8030022 C99.3450436,75.9488838 99.0764392,68.4672135 99.6612852,62.9024886 C100.017703,59.5186486 87.9655138,66.7403272 85.6961507,66.7403272 C83.1346517,66.7403272 72.385883,60.9347857 73.0992918,64.4359321 C74.2580789,70.1173995 73.2209673,75.4954492 73,79.3688181 C75.3250353,79.9220759 76.5481038,87.6891166 75.6854703,88.6196726 C76.3403371,90.2495556 77.0015172,91.6747162 77.5220818,92.3937822 C80.2173091,96.11939 82.4941334,94.7568305 85.6961507,94.7568305 C88.820686,94.7568305 92.1696322,93.8719563 95.3831283,90.2986213 C97.4361156,88.0088895 100.250723,82.8316143 99.9821182,80.8030022" id="Fill-13" fill="#F8D0A3"></path>
                <path d="M72.9996633,58.5172044 C72.9996633,59.8883701 71.9587721,61 70.6764991,61 C69.3909495,61 68.7907714,60.5305026 68.7907714,55.2849625 L68,51.9127463 C68,49.5705083 69.785243,52.47556 71.0702465,52.47556 L71.7725477,52.47556 C73.0542746,52.47556 72.9996633,52.5542956 72.9996633,53.9260445 L72.9996633,58.5172044 Z" id="Fill-15" fill="#F8D0A3"></path>
                <path d="M98.0003739,58.5172044 C98.0003739,59.8883701 99.0403704,61 100.325489,61 C101.609517,61 102.209493,60.5305026 102.209493,55.2849625 L103,51.9127463 C103,49.5705083 101.213717,52.47556 99.9302361,52.47556 L99.2292622,52.47556 C97.9435972,52.47556 98.0003739,52.5542956 98.0003739,53.9260445 L98.0003739,58.5172044 Z" id="Fill-17" fill="#F1C18E"></path>
                <path d="M98.9828171,79.3308743 C98.3363292,73.9040934 98.1713748,68.4559206 98.736774,62.9007884 C99.0816786,59.523124 87.4187932,66.7321858 85.2232893,66.7321858 C82.7445304,66.7321858 72.3429628,60.9372395 73.0327721,64.4319963 C73.5065299,66.8323899 73.9475191,69.7974163 73.8381049,72.2541043 L91.7442635,97 C95.1755367,96.5580889 90.7623129,97.0962634 92.0619534,95.6027728 C94.0502924,93.3189087 99.3393851,82.3212332 98.9828171,79.3308743" id="Fill-19" fill="#E8B380"></path>
                <path d="M98.2570894,113 L99.4879246,105.222736 L100,86.3771611 C99.6024462,87.846534 99.9836398,78 99.9836398,78 C99.6498909,78.2354468 86.3473824,88.4192423 86,88.6460117 C86.206139,88.7923705 86.4144593,99.887293 86.6102368,113 L98.2570894,113 Z" id="Fill-21" fill="#35626C"></path>
                <path d="M77.4546488,113 L86.8078766,113 C86.7652456,99.5632873 86.7959399,88.2237737 87,88.0860351 C86.6345108,87.8618498 73.5922858,78.2339826 73.2455542,78 C73.2455542,78 73.4132359,87.9413808 73,86.4775485 L76.1052375,99.9050403 L77.4546488,113 Z" id="Fill-23" fill="#35626C"></path>
                <path d="M89,113 L89,88 C89,88 88.3212387,88.1757011 87.5017333,88.1757011 C86.8396117,88.1757011 86,88 86,88 L86,113 L89,113 Z" id="Fill-25" fill="#214852"></path>
                <path d="M87.1693352,95.9627193 C87.9780474,96.1458113 88.7808709,95.6364232 88.9627658,94.8314724 C89.1453149,94.0232521 88.6388883,93.219609 87.832139,93.0371709 C87.0214639,92.8547329 86.2206032,93.3615053 86.0373998,94.1703795 C85.8541964,94.9759843 86.3619316,95.781589 87.1693352,95.9627193" id="Fill-27" fill="#FFFFFF"></path>
                <path d="M87.3364911,94.8546607 C87.5714911,94.9056607 87.8054911,94.7596607 87.8544911,94.5266607 C87.9084911,94.2946607 87.7634911,94.0616607 87.5274911,94.0106607 C87.2944911,93.9586607 87.0624911,94.1016607 87.0114911,94.3356607 C86.9564911,94.5686607 87.1044911,94.7996607 87.3364911,94.8546607" id="Fill-29" fill="#CEDAD9"></path>
                <path d="M86.3381172,94.8524565 C86.5711172,94.9054565 86.8021172,94.7584565 86.8541172,94.5284565 C86.9071172,94.2914565 86.7581172,94.0624565 86.5301172,94.0124565 C86.2961172,93.9554565 86.0641172,94.0994565 86.0121172,94.3344565 C85.9551172,94.5674565 86.1051172,94.8004565 86.3381172,94.8524565" id="Fill-31" fill="#CEDAD9"></path>
                <path d="M87.3368673,94.8574154 C87.5678673,94.9074154 87.8018673,94.7624154 87.8548673,94.5284154 C87.9078673,94.2914154 87.7598673,94.0644154 87.5278673,94.0104154 C87.2948673,93.9584154 87.0648673,94.1064154 87.0108673,94.3364154 C86.9578673,94.5684154 87.1038673,94.8014154 87.3368673,94.8574154" id="Fill-33" fill="#CEDAD9"></path>
                <path d="M87.3374883,94.8524657 C87.5704883,94.9074657 87.8014883,94.7604657 87.8524883,94.5264657 C87.9054883,94.2924657 87.7614883,94.0644657 87.5294883,94.0104657 C87.2934883,93.9584657 87.0624883,94.1054657 87.0114883,94.3354657 C86.9564883,94.5694657 87.1044883,94.8014657 87.3374883,94.8524657" id="Fill-35" fill="#CEDAD9"></path>
                <path d="M87.1693352,108.962782 C87.9780474,109.14527 88.7808709,108.639012 88.9627658,107.831224 C89.1453149,107.02409 88.6388883,106.219572 87.832139,106.037083 C87.0214639,105.854595 86.2206032,106.363469 86.0373998,107.171258 C85.8541964,107.979046 86.3619316,108.780947 87.1693352,108.962782" id="Fill-37" fill="#FFFFFF"></path>
                <path d="M87.3364911,107.8552 C87.5714911,107.9062 87.8054911,107.7622 87.8544911,107.5272 C87.9084911,107.2972 87.7634911,107.0662 87.5274911,107.0102 C87.2944911,106.9592 87.0624911,107.1042 87.0114911,107.3392 C86.9564911,107.5712 87.1044911,107.8022 87.3364911,107.8552" id="Fill-39" fill="#CEDAD9"></path>
                <path d="M86.3381172,108.85323 C86.5711172,108.90423 86.8021172,108.76123 86.8541172,108.52723 C86.9071172,108.29323 86.7581172,108.06323 86.5301172,108.01123 C86.2961172,107.95723 86.0641172,108.10323 86.0121172,108.33623 C85.9551172,108.57123 86.1051172,108.80123 86.3381172,108.85323" id="Fill-41" fill="#CEDAD9"></path>
                <path d="M87.3368673,107.85587 C87.5678673,107.90787 87.8018673,107.75887 87.8548673,107.52887 C87.9078673,107.29187 87.7598673,107.06487 87.5278673,107.01087 C87.2948673,106.95787 87.0648673,107.10387 87.0108673,107.33587 C86.9578673,107.57087 87.1038673,107.79987 87.3368673,107.85587" id="Fill-43" fill="#CEDAD9"></path>
                <path d="M87.3374883,108.852769 C87.5704883,108.908769 87.8014883,108.758769 87.8524883,108.526769 C87.9054883,108.294769 87.7614883,108.062769 87.5294883,108.010769 C87.2934883,107.957769 87.0624883,108.105769 87.0114883,108.336769 C86.9564883,108.570769 87.1044883,108.800769 87.3374883,108.852769" id="Fill-45" fill="#CEDAD9"></path>
                <polygon id="Fill-47" fill="#214852" points="73 78 80.5886519 92 87 87.7133881"></polygon>
                <polygon id="Fill-49" fill="#214852" points="101 78 93.5088513 92 87 87.6620201"></polygon>
                <path d="M71.0908446,40 C70.3910468,42.9912117 70,50.1052571 70,53.5128639 C70,68.1058072 75.4757901,79.9403495 85.7406264,80 L86,40 L71.0908446,40 Z" id="Fill-51" fill="#F8D0A3"></path>
                <path d="M100.943198,40 L86,40 L86.536683,79.9965255 C86.5631859,79.9965255 86.586928,80 86.6112223,80 C97.2112637,80 102,68.1410062 102,53.5116902 C102,50.1066956 101.622886,42.9909519 100.943198,40" id="Fill-53" fill="#F1C18E"></path>
                <path d="M69,42.4446242 C69,42.8354686 69.6084264,46.9207366 70.1735544,52.093273 C70.298951,53.2360493 71.7643477,55.298998 72.1135462,55.6194561 C71.9487874,54.1293261 73.9871846,46.0806787 73.9230805,45.5210216 C73.6301136,43.0288879 74.5185736,41.5210183 76.9545285,41.0077132 C78.6555357,40.6517759 83.7579952,42.6592167 85.5039877,42.6666559 C89.4998084,42.6838233 90.1762751,40.7645084 94.1709711,40.8503454 C94.529729,40.8583569 94.8896115,40.840045 95.2455579,40.8715185 C96.9645592,41.0271696 98.04983,42.0789587 98.2286466,43.8397613 C98.2905014,44.458932 100.426179,54.6042907 100.177073,56 C100.513901,55.2234615 101.949495,53.8523588 102.144056,53.0386242 C102.583225,51.2097243 104.266238,33.867221 101.197677,32.9727997 C97.5898551,32.6408967 91.5218983,28.9361727 89.6398252,29.0008365 C69.4824675,29.7109945 69,36.1029882 69,42.4446242" id="Fill-55" fill="#101D23"></path>
                <g id="Group-170" transform="translate(9.000000, 119.000000)">
                    <mask id="mask-2" fill="white">
                        <use xlink:href="#path-1"></use>
                    </mask>
                    <g id="Clip-169"></g>
                    <path d="M0.526179767,0.0554052632 C0.27978907,0.854931579 0.144726279,1.70598421 0.144726279,2.58945789 C0.144726279,7.23493158 3.82080767,10.9998263 8.35360535,10.9998263 L234.279747,10.9998263 C238.812545,10.9998263 242.486366,7.23493158 242.486366,2.58945789 C242.486366,1.70598421 242.353563,0.854931579 242.106043,0.0554052632 L0.526179767,0.0554052632 Z" id="Fill-168" fill="#C0CABC" mask="url(#mask-2)"></path>
                </g>
                <path d="M160,125.000261 C160,125.553987 159.508802,126 158.909335,126 L105.089525,126 C104.487779,126 104,125.553987 104,125.000261 C104,124.447582 104.487779,124 105.089525,124 L158.909335,124 C159.508802,124 160,124.447582 160,125.000261" id="Fill-171" fill="#2E5F65"></path>
                <path d="M160,125.000261 C160,125.553987 159.508802,126 158.909335,126 L105.089525,126 C104.487779,126 104,125.553987 104,125.000261 C104,124.447582 104.487779,124 105.089525,124 L158.909335,124 C159.508802,124 160,124.447582 160,125.000261 Z" id="Stroke-173" stroke="#032D42" stroke-width="0.25"></path>
                <path d="M103.55471,82 C103.55471,82 113.862365,171.155387 35.2920978,162.394126 C-30.7138996,155.0341 16.1108678,127.292465 16.1108678,127.292465" id="Stroke-175" stroke="#032D42" stroke-width="4"></path>
                <path d="M110.825688,48 C107.07156,48 104,44.8950222 104,41.1000493 L104,19.8999507 C104,16.1049778 107.07156,13 110.825688,13 L159.174312,13 C162.92844,13 166,16.1049778 166,19.8999507 L166,41.1000493 C166,44.8950222 162.92844,48 159.174312,48 L110.825688,48 Z" id="Fill-177" fill="#CEE8F4"></path>
                <path d="M123,29.4997351 C123,30.3282712 122.328271,31 121.500265,31 C120.671729,31 120,30.3282712 120,29.4997351 C120,28.6717288 120.671729,28 121.500265,28 C122.328271,28 123,28.6717288 123,29.4997351" id="Fill-179" fill="#000000"></path>
                <path d="M128,29.4997351 C128,30.3282712 127.328271,31 126.499735,31 C125.671729,31 125,30.3282712 125,29.4997351 C125,28.6717288 125.671729,28 126.499735,28 C127.328271,28 128,28.6717288 128,29.4997351" id="Fill-181" fill="#000000"></path>
                <path d="M133,29.4997351 C133,30.3282712 132.328153,31 131.5,31 C130.671318,31 130,30.3282712 130,29.4997351 C130,28.6717288 130.671318,28 131.5,28 C132.328153,28 133,28.6717288 133,29.4997351" id="Fill-183" fill="#000000"></path>
                <path d="M139,29.4997351 C139,30.3282712 138.328153,31 137.5,31 C136.671318,31 136,30.3282712 136,29.4997351 C136,28.6717288 136.671318,28 137.5,28 C138.328153,28 139,28.6717288 139,29.4997351" id="Fill-185" fill="#000000"></path>
                <path d="M145,29.4997351 C145,30.3282712 144.328271,31 143.500265,31 C142.671729,31 142,30.3282712 142,29.4997351 C142,28.6717288 142.671729,28 143.500265,28 C144.328271,28 145,28.6717288 145,29.4997351" id="Fill-187" fill="#000000"></path>
                <path d="M151,29.4997351 C151,30.3282712 150.328271,31 149.499735,31 C148.671729,31 148,30.3282712 148,29.4997351 C148,28.6717288 148.671729,28 149.499735,28 C150.328271,28 151,28.6717288 151,29.4997351" id="Fill-189" fill="#000000"></path>
                <path d="M111,54.4940026 C111,54.4940026 120.920724,51.0885058 122.110987,43 L136,43 C136,43 120.523783,57.8994993 111,54.4940026" id="Fill-191" fill="#CEE8F4"></path>
                <path d="M123.237479,117.244426 C123.237479,117.244426 124.715806,118.793972 123.08803,123.477569 C121.460253,128.161165 142.946459,126.823076 142.946459,126.823076 C142.946459,126.823076 140.405254,120.04381 142.815412,117.244426 C145.225569,114.444468 123.237479,117.244426 123.237479,117.244426" id="Fill-193" fill="#F1C791"></path>
                <path d="M107.655854,69.5697162 C107.655854,69.5697162 119.457294,42.0321681 141.092612,57.9574013 C141.092612,57.9574013 148.304198,51.6542552 156.171637,59.6163034 C156.171637,59.6163034 161.088857,71.5605124 159.777711,73.5513086 C158.466565,75.5421049 156.499564,98.1029465 156.499564,98.1029465 L146.993052,108.719579 C146.993052,108.719579 144.698686,120 132.241392,120 C117.78453,120 113.88422,104.074767 113.88422,104.074767 L114.212147,106.729351 L110.606074,98.1029465 L109.294927,101.420751 L107,96.1121503 L107.655854,69.5697162 Z" id="Fill-195" fill="#795019"></path>
                <path d="M123.231525,124 C123.231525,124 133.567255,127.266704 142.902421,124 C142.902421,124 144.902406,126.613699 150.237031,127.920269 C155.571656,129.226838 158.238684,127.593486 162.906267,135.107241 C167.574421,142.619877 165.573865,173 165.573865,173 L100.893603,173 C100.893603,173 96.2254486,135.760246 108.228213,130.206626 C120.230977,124.653565 116.896908,126.613699 116.896908,126.613699 L123.231525,124 Z" id="Fill-197" fill="#4D99CE"></path>
                <path d="M103.437884,75 C96.6186323,28.7849015 171.795644,28.7849015 165.641338,72.3492955" id="Stroke-199" stroke="#4FABE0" stroke-width="7"></path>
                <path d="M93,82.4180572 C93,87.1576722 97.156678,91 102.284641,91 C103.229421,91 104.141216,90.8687826 105,90.6259488 C101.881166,85.679435 100.938742,79.8824584 100.473421,74 C96.2130761,74.7791372 93,78.2512251 93,82.4180572" id="Fill-201" fill="#003255"></path>
                <path d="M99.5,95 L99.5,95 C98.1247323,95 97,93.833076 97,92.4081303 L97,74.5918697 C97,73.1658142 98.1247323,72 99.5,72 C100.874732,72 102,73.1658142 102,74.5918697 L102,92.4081303 C102,93.833076 100.874732,95 99.5,95" id="Fill-203" fill="#4FABE0"></path>
                <path d="M104.5,99 L104.5,99 C102.024743,99 100,96.9968292 100,94.5479445 L100,72.4520555 C100,70.0031708 102.024743,68 104.5,68 C106.974686,68 109,70.0031708 109,72.4520555 L109,94.5479445 C109,96.9968292 106.974686,99 104.5,99" id="Fill-205" fill="#003255"></path>
                <path d="M172,82.4180572 C172,87.1576722 167.843322,91 162.715359,91 C161.770579,91 160.858784,90.8687826 160,90.6259488 C163.118834,85.679435 164.061258,79.8824584 164.526579,74 C168.786924,74.7791372 172,78.2512251 172,82.4180572" id="Fill-207" fill="#003255"></path>
                <path d="M164.5,95 L164.5,95 C165.875268,95 167,93.833076 167,92.4081303 L167,74.5918697 C167,73.1658142 165.875268,72 164.5,72 C163.125268,72 162,73.1658142 162,74.5918697 L162,92.4081303 C162,93.833076 163.125268,95 164.5,95" id="Fill-209" fill="#4FABE0"></path>
                <path d="M158.5,99 L158.5,99 C160.975257,99 163,96.9968292 163,94.5479445 L163,72.4520555 C163,70.0031708 160.975257,68 158.5,68 C156.025314,68 154,70.0031708 154,72.4520555 L154,94.5479445 C154,96.9968292 156.025314,99 158.5,99" id="Fill-211" fill="#003255"></path>
                <path d="M9.38293776,119 C9.13558833,119.803587 9,120.658961 9,121.546921 C9,126.215986 12.6903854,130 17.2408207,130 L70,130 C67.923059,126.322471 65.8398776,122.630978 63.7073398,119 L9.38293776,119 Z" id="Fill-213" fill="#C0CABC"></path>
            </g>
        </g>
    </g>
</svg>