<?xml version="1.0" encoding="UTF-8"?>
<svg width="93px" height="93px" viewBox="0 0 93 93" version="1.1" xmlns="http://www.w3.org/2000/svg" xmlns:xlink="http://www.w3.org/1999/xlink">
    <!-- Generator: Sketch 46.2 (44496) - http://www.bohemiancoding.com/sketch -->
    <title>Page 1</title>
    <desc>Created with Sketch.</desc>
    <defs>
        <polygon id="path-1" points="0 92.5764273 0 0.11251049 92.4645671 0.11251049 92.4645671 92.5764273"></polygon>
        <path d="M37.1354005,0.0245913716 C43.1103975,7.37433794 46.691686,16.7482904 46.691686,26.9586575 C46.691686,35.0584182 44.4377118,42.6319138 40.5227262,49.0860235 L0.278224498,49.0860062 L0.278224498,0.0245913716 L37.1354005,0.0245913716 L37.1354005,0.0245913716 Z" id="path-3"></path>
        <path d="M0.102208906,48.3184316 C7.19535364,53.5582573 15.9673556,56.6559144 25.462981,56.6559144 C35.9228405,56.6559144 45.5046541,52.8972124 52.9316407,46.65693 L52.9316407,0.0386947674 L0.102208906,0.0386947674 L0.102208906,48.3184316 Z" id="path-5"></path>
        <path d="M0.16898018,52.9355285 C7.80826759,60.0913932 18.0781216,64.4730391 29.3715433,64.4730391 C38.1076032,64.4730391 46.2311763,61.8511315 52.998412,57.3513651 L52.998412,0.335159223 L0.16898018,0.335159223 L0.16898018,52.9355285 L0.16898018,52.9355285 Z" id="path-7"></path>
        <path d="M0.285390196,43.5231967 C8.10655443,53.501307 20.2701409,59.9130497 33.9315328,59.9130497 C40.8299638,59.9130497 47.3464803,58.2781661 53.114822,55.3747568 L53.114822,0.218032637 L0.285390196,0.218032637 L0.285390196,43.5231967 L0.285390196,43.5231967 Z" id="path-9"></path>
        <path d="M0.325713531,43.244334 C0.325713531,66.8403251 19.4542178,85.9701321 43.0515116,85.9701321 L43.0515116,85.9701321 C66.6488055,85.9701321 85.7773097,66.8403251 85.7773097,43.244334 L85.7773097,43.244334 C85.7773097,19.6470402 66.6488055,0.517233087 43.0515116,0.517233087 L43.0515116,0.517233087 C19.4542178,0.517233087 0.325713531,19.6470402 0.325713531,43.244334 L0.325713531,43.244334 Z" id="path-11"></path>
        <polygon id="path-13" points="28.8048018 0.285650766 28.8048018 28.4712711 0.620907703 28.4712711 0.620907703 0.285650766 28.8048018 0.285650766"></polygon>
    </defs>
    <g id="Page-1" stroke="none" stroke-width="1" fill="none" fill-rule="evenodd">
        <g id="Home-Page" transform="translate(-606.000000, -743.000000)">
            <g id="Why-Us" transform="translate(272.000000, 657.000000)">
                <g id="1" transform="translate(0.000000, 83.000000)">
                    <g id="Page-1" transform="translate(334.000000, 3.000000)">
                        <g id="Group-3">
                            <mask id="mask-2" fill="white">
                                <use xlink:href="#path-1"></use>
                            </mask>
                            <g id="Clip-2"></g>
                            <path d="M92.4645671,46.3443713 C92.4645671,71.877749 71.7645881,92.5764273 46.2318608,92.5764273 C20.6991336,92.5764273 -0.000195104895,71.877749 -0.000195104895,46.3443713 C-0.000195104895,20.8109937 20.6991336,0.112315385 46.2318608,0.112315385 C71.7645881,0.112315385 92.4645671,20.8109937 92.4645671,46.3443713" id="Fill-1" stroke="#3086C7" fill="#F0F8FF" mask="url(#mask-2)"></path>
                        </g>
                        <g id="Group-29" transform="translate(3.000000, 3.000000)">
                            <g id="Group-6" transform="translate(39.085624, 16.285677)">
                                <mask id="mask-4" fill="white">
                                    <use xlink:href="#path-3"></use>
                                </mask>
                                <g id="Clip-5"></g>
                                <path d="M48.0796165,42.5994212 L47.7714915,42.2912962 C47.7532516,42.2730563 47.7311031,42.2600277 47.7115603,42.2417878 L48.1343364,41.8190116 L34.6660819,28.3514086 C34.4406882,27.6113874 34.0589519,26.9084976 33.4720161,26.3222133 L33.3997077,26.2499049 C36.6008203,20.475004 36.3272209,13.298232 32.5691382,7.76891913 L32.5691382,3.67860862 L28.7009643,3.67860862 C22.3710476,-1.19341438 13.5142452,-1.19341438 7.18497992,3.67860862 L3.94152458,3.67860862 L3.94152458,6.91880682 C-0.942875529,13.253935 -0.942875529,22.1237659 3.94152458,28.4582426 L3.94152458,32.3068737 L8.01229228,32.3068737 C13.4627825,36.0174022 20.518389,36.34963 26.25225,33.2937857 L26.3766726,33.4182082 C26.9616541,34.0038412 27.6651953,34.3875317 28.4058679,34.612274 L41.8734709,48.0805285 L42.2968985,47.6577524 C42.3144871,47.6759923 42.3255613,47.6987923 42.3444527,47.7170322 L42.654532,48.0258087 C44.0674773,49.4394054 46.3578948,49.4394054 47.7714915,48.0258087 L48.0796165,47.7170322 C49.4925618,46.3040869 49.4925618,44.013018 48.0796165,42.5994212" id="Fill-4" fill="#D8A535" mask="url(#mask-4)"></path>
                            </g>
                            <g id="Group-9" transform="translate(17.588531, 29.314218)">
                                <mask id="mask-6" fill="white">
                                    <use xlink:href="#path-5"></use>
                                </mask>
                                <g id="Clip-8"></g>
                                <polygon id="Fill-7" fill="#D8A535" mask="url(#mask-6)" points="52.9316407 68.3206279 0.201225819 68.400102 0.102208906 0.118168869 52.8326238 0.0386947674"></polygon>
                            </g>
                            <g id="Group-12" transform="translate(13.679968, 21.497093)">
                                <mask id="mask-8" fill="white">
                                    <use xlink:href="#path-7"></use>
                                </mask>
                                <g id="Clip-11"></g>
                                <polygon id="Fill-10" fill="#D3D3D3" mask="url(#mask-8)" points="52.998412 68.6170924 0.266694239 68.695915 0.16898018 0.414633325 52.8980922 0.335159223"></polygon>
                            </g>
                            <g id="Group-15" transform="translate(9.119979, 26.057082)">
                                <mask id="mask-10" fill="white">
                                    <use xlink:href="#path-9"></use>
                                </mask>
                                <g id="Clip-14"></g>
                                <polygon id="Fill-13" fill="#FFFFFF" mask="url(#mask-10)" points="53.114822 68.5012686 0.384407109 68.5794399 0.285390196 0.297506739 53.0151537 0.218032637"></polygon>
                            </g>
                            <path d="M56.3077266,44.6608622 C56.3077266,49.8149531 52.1301249,53.9919034 46.9766854,53.9919034 L25.9453627,53.9919034 C20.7912718,53.9919034 16.6136701,49.8149531 16.6136701,44.6608622 C16.6136701,39.5074227 20.7912718,35.3291695 25.9453627,35.3291695 L46.9766854,35.3291695 C52.1301249,35.3291695 56.3077266,39.5074227 56.3077266,44.6608622" id="Fill-16" fill="#D3D3D3"></path>
                            <mask id="mask-12" fill="white">
                                <use xlink:href="#path-11"></use>
                            </mask>
                            <g id="Clip-19"></g>
                            <polygon id="Fill-18" fill="#D3D3D3" mask="url(#mask-12)" points="18.3917402 68.0832479 53.6424128 68.0832479 53.6424128 61.6933998 18.3917402 61.6933998"></polygon>
                            <polygon id="Fill-20" fill="#D3D3D3" mask="url(#mask-12)" points="18.3917402 79.9776546 53.6424128 79.9776546 53.6424128 73.5878066 18.3917402 73.5878066"></polygon>
                            <path d="M26.355436,50.5177126 C28.0146208,47.6416621 28.8940473,43.9044251 29.7474168,40.7202496 L27.1768856,40.7202496 C28.8406303,45.7590379 30.3512896,50.8558033 32.214371,55.8274946 C32.6286786,56.9336177 34.5321485,57.2534684 34.7842508,55.8274946 C36.0864535,48.4846087 37.6453184,41.1931857 39.2269834,33.906974 L36.6564522,33.906974 C38.3195455,41.7579729 38.9585954,49.7913714 40.8040883,57.6045876 C41.0496763,58.6449166 42.7792151,59.0097158 43.2384712,57.9237869 C45.3061007,53.0361296 47.2076163,48.0813754 49.0029493,43.0901413 C49.5872793,41.4680879 47.0108853,40.7762723 46.4324181,42.3807372 C44.7146049,47.1543947 42.9140605,51.9039494 40.9376308,56.5772871 C41.7506118,56.6841212 42.5616385,56.7903038 43.373968,56.895835 C41.5291266,49.0819674 40.8907281,41.0498717 39.2269834,33.1975699 C38.9572925,31.9175157 36.9326572,31.9246814 36.6564522,33.1975699 C35.0754387,40.484433 33.5152709,47.7765075 32.214371,55.1180905 L34.7842508,55.1180905 C32.9211694,50.1470506 31.4131158,45.0509367 29.7474168,40.0108455 C29.3454863,38.7920255 27.5319133,38.6871457 27.1768856,40.0108455 C26.3840988,42.9644158 25.5900092,46.5101333 24.0545957,49.1725157 C23.1934091,50.6636323 25.4968552,52.0062234 26.355436,50.5177126" id="Fill-21" fill="#FFFFFF" mask="url(#mask-12)"></path>
                            <g id="Group-24" mask="url(#mask-12)">
                                <g transform="translate(43.645613, 16.937104)">
                                    <mask id="mask-14" fill="white">
                                        <use xlink:href="#path-13"></use>
                                    </mask>
                                    <g id="Clip-23" stroke="none" fill="none"></g>
                                    <path d="M25.0557739,4.47856105 C30.6456695,10.0678052 30.6456695,19.1311099 25.0557739,24.7223084 C19.4665297,30.3109012 10.4025736,30.3109012 4.81332941,24.7223084 C-0.7765662,19.1311099 -0.7765662,10.0678052 4.81332941,4.47856105 C10.4025736,-1.11198599 19.4665297,-1.11198599 25.0557739,4.47856105" id="Fill-22" stroke="none" fill="#EAEAE9" fill-rule="evenodd" mask="url(#mask-14)"></path>
                                </g>
                            </g>
                            <path d="M87.9604372,55.700792 C89.374034,57.1137373 89.374034,59.4054577 87.9604372,60.818403 L87.6536151,61.126528 C86.2400184,62.5401247 83.9489494,62.5401247 82.5353527,61.126528 L82.2259248,60.818403 C80.8136309,59.4054577 80.8136309,57.1137373 82.2259248,55.700792 L82.5353527,55.392667 C83.9489494,53.9790703 86.2400184,53.9790703 87.6536151,55.392667 L87.9604372,55.700792 Z" id="Fill-25" fill="#C93831" mask="url(#mask-12)"></path>
                            <path d="M67.1561369,40.1215881 C62.002046,45.275679 53.6468425,45.275679 48.4940544,40.1215881 C43.3386607,34.9674972 43.3393121,26.6116423 48.4940544,21.4588543 C53.6468425,16.3041119 62.002046,16.3034605 67.1561369,21.4588543 C72.3102278,26.6116423 72.3102278,34.9674972 67.1561369,40.1215881 M45.3229075,18.2877073 C38.4190835,25.1928342 38.4190835,36.3869568 45.3229075,43.2914322 C52.2273829,50.1959076 63.4228084,50.1959076 70.325981,43.2914322 C77.2311078,36.3869568 77.2311078,25.1928342 70.325981,18.2877073 C63.4228084,11.3838833 52.2273829,11.3838833 45.3229075,18.2877073" id="Fill-26" fill="#E74C3C" mask="url(#mask-12)"></path>
                            <polygon id="Fill-27" fill="#E74C3C" mask="url(#mask-12)" points="88.01646 54.9199264 81.7555945 61.1814433 67.1466912 46.5731915 73.4075567 40.312326"></polygon>
                            <path d="M73.3529671,39.4233886 C75.256437,41.3255556 75.256437,44.4087599 73.3529671,46.3109269 L73.1458133,46.5193836 C71.2442977,48.4215506 68.1597906,48.4215506 66.258275,46.5193836 L66.0485155,46.3109269 C64.1483027,44.4087599 64.1483027,41.3255556 66.0485155,39.4233886 L66.258275,39.214932 C68.1597906,37.3134164 71.2442977,37.3134164 73.1458133,39.214932 L73.3529671,39.4233886 Z" id="Fill-28" fill="#C93831" mask="url(#mask-12)"></path>
                        </g>
                    </g>
                </g>
            </g>
        </g>
    </g>
</svg>