<?xml version="1.0" encoding="UTF-8"?>
<svg width="207px" height="191px" viewBox="0 0 207 191" version="1.1" xmlns="http://www.w3.org/2000/svg" xmlns:xlink="http://www.w3.org/1999/xlink">
    <!-- Generator: Sketch 46.2 (44496) - http://www.bohemiancoding.com/sketch -->
    <title>Page 1</title>
    <desc>Created with Sketch.</desc>
    <defs>
        <path d="M1.64898305,12.2344333 C1.03991186,18.4232128 -14.066878,164.6155 79.6129017,177.818136 C177.44882,163.918815 157.463146,23.394723 156.588834,12.2344333 C155.717329,1.07203889 94.2116644,0.146633591 79.1203119,0.144528803 C64.0268542,0.143125611 2.25805424,6.04354907 1.64898305,12.2344333 Z" id="path-1"></path>
        <polygon id="path-3" points="0 222.405974 206.953688 222.405974 206.953688 0.328346989 0 0.328346989"></polygon>
    </defs>
    <g id="Page-1" stroke="none" stroke-width="1" fill="none" fill-rule="evenodd">
        <g id="Home-Page" transform="translate(-128.000000, -539.000000)">
            <g id="Page-1" transform="translate(128.000000, 539.000000)">
                <g id="Group-15" transform="translate(0.000000, 0.373249)">
                    <path d="M204.27602,98.6500288 C202.102169,126.686512 159.742953,102.196597 159.742953,115.592874 L159.742953,139.720765 C159.742953,126.322383 206.952986,150.723897 206.952986,123.536345 C206.952986,123.536345 198.823149,127.160089 195.10978,121.41542 C195.10978,121.41542 207.620298,117.286527 204.27602,98.6500288" id="Fill-1" fill="#065789"></path>
                    <path d="M185.792113,109.792638 C185.792113,96.2595505 159.783791,123.841399 159.783791,114.778882 L159.783791,140.783543 C167.272279,141.967135 185.792113,122.264913 185.792113,135.798 L185.792113,109.792638 Z" id="Fill-3" fill="#17544E"></path>
                    <path d="M2.67780814,98.6500288 C4.85236068,126.686512 47.2094725,102.196597 47.2094725,115.592874 L47.2094725,139.720765 C47.2094725,126.322383 0.000140338983,150.723897 0.000140338983,123.536345 C0.000140338983,123.536345 8.13208271,127.160089 11.8440488,121.41542 C11.8440488,121.41542 -0.665768136,117.286527 2.67780814,98.6500288" id="Fill-5" fill="#065789"></path>
                    <path d="M21.160382,109.792638 C21.160382,96.2595505 47.1687041,123.841399 47.1687041,114.778882 L47.1687041,140.783543 C39.682321,141.967135 21.160382,122.264913 21.160382,135.798 L21.160382,109.792638 Z" id="Fill-7" fill="#17544E"></path>
                    <path d="M185.758502,13.2526598 C184.825949,1.3206144 119.078539,0.331363853 102.943766,0.328557468 C86.8075902,0.327154276 20.7773969,6.63520509 20.1262241,13.2526598 C19.4757529,19.8694129 3.3269461,176.148548 103.470038,190.263259 C208.056261,175.403453 186.691055,25.1840036 185.758502,13.2526598" id="Fill-9" fill="#3F3F3F"></path>
                    <path d="M180.446461,18.5485179 C179.574956,7.38682503 118.069292,6.46071813 102.977939,6.45931494 C87.8844814,6.45721015 26.1156814,12.3576336 25.5066102,18.5485179 C24.897539,24.7372974 9.79074915,170.929585 103.470529,184.132922 C201.306447,170.2329 181.320773,29.7095091 180.446461,18.5485179" id="Fill-11" fill="#4F4F4F"></path>
                    <path d="M105.829697,5.3781553 C104.975735,5.37254253 104.197555,5.37043775 103.501474,5.36903455 L103.503579,4.20648976 C104.201765,4.20789296 104.980646,4.21069934 105.836013,4.21701371 L105.829697,5.3781553 Z M110.483338,5.42796863 C109.670775,5.41674309 108.895402,5.40692074 108.156518,5.39850159 L108.169148,4.2366584 C108.910138,4.24437596 109.687616,4.2541983 110.500179,4.26682703 L110.483338,5.42796863 Z M98.8653753,5.46375003 L98.8190634,4.30190684 C99.6589922,4.26893182 100.442084,4.24507755 101.159216,4.22894084 L101.18588,5.39078403 C100.47366,5.40621915 99.6982871,5.43077501 98.8653753,5.46375003 L98.8653753,5.46375003 Z M115.136277,5.51426495 C114.33845,5.49672505 113.562375,5.48058834 112.809457,5.46655642 L112.831209,4.30471322 C113.584829,4.31804355 114.363711,4.33418026 115.160836,4.35242176 L115.136277,5.51426495 Z M119.783602,5.63564108 C118.994897,5.61178682 118.219524,5.59073893 117.458887,5.56969105 L117.489762,4.40925105 C118.251101,4.42889574 119.027877,4.44994362 119.818687,4.47379789 L119.783602,5.63564108 Z M94.22226,5.69457516 L94.1541956,4.53413516 C94.9632498,4.48712822 95.7407278,4.44433085 96.4845244,4.40714626 L96.5441685,5.56758626 C95.8017753,5.60547245 95.0271041,5.64686662 94.22226,5.69457516 L94.22226,5.69457516 Z M124.430226,5.79350021 C123.647135,5.76333158 122.870358,5.73596933 122.106914,5.71001027 L122.147613,4.54816708 C122.91246,4.57412614 123.688535,4.60218998 124.474433,4.63165702 L124.430226,5.79350021 Z M129.074745,5.98924553 C128.29446,5.95206094 127.519087,5.91838432 126.752836,5.8868125 L126.801955,4.72496931 C127.570311,4.75724273 128.346385,4.79232253 129.129477,4.82810394 L129.074745,5.98924553 Z M89.5847583,5.99696309 L89.5005549,4.83722469 C90.2955753,4.781097 91.0723515,4.72917888 91.8266736,4.67866396 L91.9017549,5.83840237 C91.1509414,5.88751409 90.3776736,5.9401338 89.5847583,5.99696309 L89.5847583,5.99696309 Z M133.716457,6.22568343 C132.93968,6.18288607 132.164307,6.14149189 131.396653,6.10220251 L131.454894,4.94176251 C132.226057,4.98105189 133.001429,5.02314766 133.781013,5.06664662 L133.716457,6.22568343 Z M84.94866,6.34916435 L84.8546329,5.19153073 C85.6412329,5.12768548 86.4166058,5.06664662 87.1772431,5.00911574 L87.2656566,6.16745095 C86.5071244,6.22568343 85.7331549,6.2860207 84.94866,6.34916435 L84.94866,6.34916435 Z M138.353257,6.51053146 C137.578585,6.45861335 136.806721,6.40880002 136.034155,6.36179308 L136.105026,5.20205467 C136.879697,5.24976321 137.653667,5.29887494 138.429741,5.35079305 L138.353257,6.51053146 Z M80.3160702,6.74346137 L80.212921,5.58582776 C80.9953108,5.51566815 81.7692803,5.44901651 82.5334261,5.38306648 L82.6309617,6.54140169 C81.868921,6.60594853 81.0963549,6.67330176 80.3160702,6.74346137 L80.3160702,6.74346137 Z M142.99146,6.84589441 C142.218192,6.78485555 141.444223,6.72592147 140.670253,6.67049538 L140.754457,5.51145857 C141.530531,5.56828785 142.305904,5.62652033 143.081979,5.6868576 L142.99146,6.84589441 Z M75.6876905,7.1735398 L75.576121,6.01730938 C76.3528973,5.941537 77.1268668,5.8678694 77.8931176,5.79700819 L78.0018803,6.95394021 C77.2356295,7.02480142 76.4644668,7.09846902 75.6876905,7.1735398 L75.6876905,7.1735398 Z M147.614226,7.24229622 C146.846572,7.17073342 146.074707,7.101977 145.303545,7.03602696 L145.401782,5.87769175 C146.177857,5.94434338 146.951826,6.0130998 147.722287,6.0853642 L147.614226,7.24229622 Z M71.0614159,7.64080283 L70.9414261,6.4845724 C71.7175007,6.40318725 72.4900668,6.32390689 73.2584227,6.24602972 L73.3749041,7.40226014 C72.6072498,7.47943572 71.8367888,7.55871608 71.0614159,7.64080283 L71.0614159,7.64080283 Z M152.234185,7.71026084 C151.470741,7.62606931 150.699579,7.54468416 149.924907,7.46680699 L150.043494,6.30987497 C150.819568,6.38915533 151.593538,6.47054048 152.361192,6.55473202 L152.234185,7.71026084 Z M66.4442634,8.14244406 L66.3137481,6.98761683 C67.0856125,6.90061891 67.8574769,6.81502418 68.6265346,6.73153424 L68.7514363,7.88706307 C67.983782,7.97055301 67.213321,8.05544614 66.4442634,8.14244406 L66.4442634,8.14244406 Z M156.840111,8.26522338 C156.081579,8.16489514 155.313924,8.06807487 154.539253,7.97546418 L154.678189,6.82204014 C155.457772,6.91535243 156.229636,7.01287429 156.992379,7.11320254 L156.840111,8.26522338 Z M61.822199,8.68267308 L61.6832634,7.52924904 C62.4530227,7.43593676 63.2234837,7.34402766 63.9960498,7.25352176 L64.1300736,8.40834899 C63.3610159,8.4981533 62.5912566,8.59006239 61.822199,8.68267308 L61.822199,8.68267308 Z M161.429897,8.92963492 C160.679084,8.81036358 159.913535,8.69460022 159.13746,8.58164324 L159.305165,7.43172718 C160.086152,7.54538575 160.855911,7.66185071 161.61304,7.78252524 L161.429897,8.92963492 Z M57.2127651,9.26429627 L57.0619007,8.11227543 C57.8281515,8.01124558 58.5993142,7.91232053 59.372582,7.81550026 L59.5178329,8.96822271 C58.7459685,9.06574457 57.9776125,9.16396803 57.2127651,9.26429627 L57.2127651,9.26429627 Z M165.990213,9.74068005 C165.249223,9.59334486 164.491392,9.45162244 163.714616,9.3141096 L163.917406,8.16980631 C164.701901,8.30872234 165.468152,8.45184795 166.216158,8.60058633 L165.990213,9.74068005 Z M52.6089447,9.89292641 L52.4461515,8.74230875 C53.2095956,8.63356135 53.9779515,8.52691874 54.7533244,8.42097772 L54.9091007,9.57299857 C54.1372363,9.6775364 53.369582,9.78417901 52.6089447,9.89292641 L52.6089447,9.89292641 Z M48.0135447,10.576281 L47.8360159,9.42846977 C48.5952498,9.30990002 49.3636058,9.19273347 50.1389786,9.07697011 L50.3101922,10.2268862 C49.5369244,10.3419479 48.7713753,10.4584129 48.0135447,10.576281 L48.0135447,10.576281 Z M170.496497,10.7572928 C169.774453,10.5713699 169.025745,10.3910597 168.253179,10.2177654 L168.506491,9.08468766 C169.292389,9.26078829 170.053026,9.44250169 170.787701,9.63263424 L170.496497,10.7572928 Z M43.4321786,11.3290937 L43.233599,10.1833872 C43.9872193,10.0535919 44.7541719,9.92379664 45.5323515,9.79610614 L45.7225108,10.9432158 C44.9457346,11.0702047 44.1815888,11.1992984 43.4321786,11.3290937 L43.4321786,11.3290937 Z M174.893318,12.1001478 C174.223199,11.8538876 173.491331,11.6111353 172.715958,11.3761006 L173.054175,10.2640708 C173.849196,10.5054198 174.602816,10.7558896 175.292582,11.0084643 L174.893318,12.1001478 Z M38.8683549,12.1717106 L38.6424092,11.0323185 C39.3876092,10.8849833 40.15386,10.7390513 40.9362498,10.5945225 L41.1467583,11.736721 C40.3685786,11.8805482 39.6093447,12.0257786 38.8683549,12.1717106 L38.8683549,12.1717106 Z M34.3375108,13.1469293 L34.0715685,12.0152547 C34.8034363,11.8426621 35.5633719,11.6728758 36.354182,11.5023879 L36.5983719,12.6389737 C35.815982,12.8066551 35.06166,12.9757398 34.3375108,13.1469293 L34.3375108,13.1469293 Z M178.954728,14.0449723 C178.399687,13.6773359 177.740094,13.3153123 176.996297,12.9666191 L177.488887,11.9142249 C178.284609,12.2860708 178.993321,12.6768599 179.595375,13.0760681 L178.954728,14.0449723 Z M29.8782397,14.3410459 L29.5337075,13.2318224 C30.2206668,13.0185372 30.9813041,12.8003408 31.7959719,12.5842492 L32.0948939,13.7075046 C31.2949617,13.918685 30.5504634,14.1326718 29.8782397,14.3410459 L29.8782397,14.3410459 Z M25.7136803,16.0438197 L25.1060125,15.0524644 C25.6736837,14.7058759 26.40906,14.3543762 27.2924939,14.0084893 L27.7184227,15.089649 C26.8960363,15.4123832 26.2224092,15.7330126 25.7136803,16.0438197 L25.7136803,16.0438197 Z M181.317335,17.1488336 C181.271023,16.5573881 181.024728,15.9968127 180.562311,15.4341327 L181.46048,14.6967551 C182.069552,15.4390438 182.41268,16.2332506 182.475131,17.0590293 L181.317335,17.1488336 Z M24.3888803,19.6107344 L23.2310837,19.5097046 C23.3279176,18.3920619 23.4065075,17.6069759 23.4479075,17.1888246 L24.603599,17.3038863 C24.5629007,17.7192313 24.4857142,18.5008093 24.3888803,19.6107344 L24.3888803,19.6107344 Z M181.761507,21.5730988 L181.522229,19.2620411 L182.678623,19.1420682 L182.917199,21.4538275 L181.761507,21.5730988 Z M24.033121,24.2321481 L22.8718159,24.1535694 C22.9300566,23.3130572 22.9861922,22.5370919 23.0416261,21.8312862 L24.1994227,21.9203889 C24.1453922,22.6233882 24.0885549,23.3958455 24.033121,24.2321481 L24.033121,24.2321481 Z M182.211294,26.1910045 C182.136213,25.3757498 182.06464,24.6046957 181.993067,23.8820517 L183.14946,23.7683931 C183.219629,24.4945451 183.294009,25.2670024 183.367687,26.0850635 L182.211294,26.1910045 Z M23.7580566,28.8605778 L22.5967515,28.8009421 C22.6381515,27.989897 22.6816566,27.2153349 22.7251617,26.4765542 L23.8864668,26.5453106 C23.84226,27.2805833 23.7987549,28.0530407 23.7580566,28.8605778 L23.7580566,28.8605778 Z M182.603541,30.8131198 C182.539687,30.0140019 182.476535,29.2436493 182.415487,28.5020622 L183.57188,28.4024355 C183.635033,29.146829 183.699589,29.9206896 183.761338,30.7226139 L182.603541,30.8131198 Z M23.5545651,33.4918139 L22.3939617,33.4504197 C22.4234329,32.6513017 22.4536058,31.8767396 22.4865854,31.1246285 L23.6485922,31.175845 C23.6156125,31.9237465 23.5840363,32.6969055 23.5545651,33.4918139 L23.5545651,33.4918139 Z M182.931935,35.4394447 C182.881413,34.6480443 182.828785,33.8769902 182.774755,33.1255807 L183.935358,33.0434939 C183.987985,33.7963066 184.042016,34.5701671 184.092538,35.364374 L182.931935,35.4394447 Z M23.4233481,38.1272595 L22.2592363,38.1027037 C22.2767786,37.3091984 22.2971278,36.5332331 22.3188803,35.7769125 L23.4808871,35.8098875 C23.4584329,36.5648049 23.4394871,37.3372623 23.4233481,38.1272595 L23.4233481,38.1272595 Z M183.19928,40.0692776 C183.159284,39.2827883 183.117884,38.510331 183.073677,37.7540104 L184.233579,37.6866571 C184.277084,38.4457842 184.320589,39.2210479 184.359884,40.0110451 L183.19928,40.0692776 Z M23.3552837,42.7648099 L22.1939786,42.7563908 C22.1981888,41.9663935 22.2080125,41.1904282 22.2178363,40.4291964 L23.3812464,40.4460347 C23.3700193,41.2044601 23.3623007,41.9783207 23.3552837,42.7648099 L23.3552837,42.7648099 Z M183.399263,44.7026185 C183.371897,43.9189356 183.341023,43.1457766 183.307341,42.3866496 L184.468646,42.3354331 C184.501626,43.0980681 184.531799,43.8733318 184.56127,44.6612243 L183.399263,44.7026185 Z M22.1939786,47.4121827 C22.1890668,46.6242903 22.1855583,45.8483249 22.1855583,45.0828836 L23.3468634,45.0828836 C23.3468634,45.844817 23.3503719,46.6186775 23.3552837,47.403062 L22.1939786,47.4121827 Z M183.533989,49.3380641 C183.517148,48.5557844 183.496799,47.7826255 183.475748,47.0199905 L184.638457,46.9870155 C184.659507,47.7517552 184.679857,48.5277206 184.696697,49.3128066 L183.533989,49.3380641 Z M22.2606397,52.0679746 C22.2452024,51.2835902 22.2297651,50.5076248 22.2192397,49.7400787 L23.3812464,49.7232404 C23.3924736,50.4879802 23.4065075,51.2611391 23.4240498,52.0434188 L22.2606397,52.0679746 Z M183.599948,53.9742113 C183.595036,53.1933348 183.586616,52.4201759 183.575389,51.6561377 L184.738097,51.640001 C184.748623,52.4075472 184.756341,53.1828109 184.761253,53.9671954 L183.599948,53.9742113 Z M22.3974702,56.7244682 C22.3694024,55.9400837 22.342738,55.1641184 22.3202837,54.3958706 L23.4829922,54.362194 C23.5054464,55.1276354 23.5293041,55.9007943 23.5580736,56.6809692 L22.3974702,56.7244682 Z M184.756341,58.6208825 L183.593633,58.6103586 C183.60065,57.8308853 183.604158,57.0584279 183.605562,56.2922849 L184.767568,56.2943897 C184.766165,57.0633391 184.762657,57.8386028 184.756341,58.6208825 L184.756341,58.6208825 Z M22.6030668,61.3760505 C22.5630702,60.5944724 22.5244769,59.8199103 22.4914973,59.0502593 L23.6521007,58.9983412 C23.685782,59.7651858 23.7236736,60.5376431 23.7636702,61.3157132 L22.6030668,61.3760505 Z M184.677752,63.2759728 L183.515043,63.2472074 C183.533989,62.4684357 183.550128,61.6959784 183.56346,60.9284322 L184.726168,60.9487785 C184.713538,61.719131 184.696697,62.4943947 184.677752,63.2759728 L184.677752,63.2759728 Z M22.8788329,66.0241249 C22.8262058,65.2446516 22.7777888,64.4700895 22.7314769,63.7011401 L23.8920803,63.6316821 C23.9383922,64.3985266 23.9868092,65.1702824 24.0387346,65.9469493 L22.8788329,66.0241249 Z M184.521975,67.9303616 L183.361372,67.882653 C183.392948,67.1052845 183.422419,66.3328272 183.44768,65.565281 L184.608985,65.6038688 C184.583023,66.3749229 184.554955,67.1501867 184.521975,67.9303616 L184.521975,67.9303616 Z M23.2310837,70.6686913 C23.1630193,69.8913228 23.1033753,69.1174622 23.0444329,68.3464081 L24.2050363,68.2601118 C24.2611719,69.0262547 24.3236227,69.7959057 24.3881786,70.5704678 L23.2310837,70.6686913 Z M184.288311,72.5826455 L183.128409,72.5131875 C183.173318,71.7379238 183.216121,70.9668696 183.254714,70.1986219 L184.415318,70.2568543 C184.376724,71.0286101 184.334623,71.8031722 184.288311,72.5826455 L184.288311,72.5826455 Z M23.6570125,75.3055401 C23.5791244,74.5295748 23.5040431,73.7564158 23.4331719,72.9881681 L24.5923719,72.8815255 C24.661138,73.6476684 24.7355176,74.4166178 24.8134058,75.1890751 L23.6570125,75.3055401 Z M183.971145,77.2293167 L182.811243,77.1395124 C182.872291,76.3656519 182.928426,75.5952993 182.981053,74.8270515 L184.140253,74.9063319 C184.086223,75.6773861 184.030789,76.4519482 183.971145,77.2293167 L183.971145,77.2293167 Z M24.1629346,79.9360746 C24.0717142,79.162214 23.9833007,78.3904583 23.899799,77.6222105 L25.0554905,77.4959232 C25.1389922,78.260663 25.2267041,79.0282092 25.3179244,79.7992633 L24.1629346,79.9360746 Z M183.566968,81.8696735 L182.411277,81.7581197 C182.484955,80.986364 182.555124,80.216713 182.622487,79.45057 L183.780284,79.5501967 C183.713623,80.3205492 183.642752,81.0937082 183.566968,81.8696735 L183.566968,81.8696735 Z M24.7516566,84.5560851 C24.6464024,83.7836278 24.5453583,83.0139768 24.4478227,82.2471322 L25.6007075,82.1004986 C25.6968397,82.8638352 25.7985854,83.6306798 25.9045414,84.398226 L24.7516566,84.5560851 Z M183.073677,86.5016112 L181.920091,86.3669047 C182.008504,85.5965522 182.094813,84.8297076 182.176911,84.0635646 L183.331901,84.1863439 C183.249802,84.9566965 183.164196,85.7277506 183.073677,86.5016112 L183.073677,86.5016112 Z M25.4273888,89.1648701 C25.307399,88.3959207 25.1902159,87.627673 25.0786464,86.8622316 L26.2280227,86.6938485 C26.3395922,87.4564835 26.4553719,88.2198201 26.5753617,88.9852615 L25.4273888,89.1648701 Z M182.483552,91.1223233 L181.334175,90.9637626 C181.438026,90.196918 181.541175,89.4314766 181.638711,88.6667368 L182.790894,88.814072 C182.692657,89.5823198 182.591613,90.3519707 182.483552,91.1223233 L182.483552,91.1223233 Z M26.1915346,93.7596231 C26.0561075,92.9934802 25.9241888,92.2280388 25.7964803,91.4640006 L26.9430498,91.2724649 C27.0707583,92.0343983 27.2012736,92.7949285 27.335999,93.5575635 L26.1915346,93.7596231 Z M181.795891,95.7311083 L180.647918,95.5465885 C180.771416,94.7832519 180.890002,94.0192137 181.003677,93.2572803 L182.153755,93.4291714 C182.037975,94.1960159 181.920091,94.9635621 181.795891,95.7311083 L181.795891,95.7311083 Z M27.0525142,98.3389411 C26.9002464,97.5756045 26.7528905,96.8136711 26.6111481,96.0517377 L27.7514024,95.8370493 C27.8945481,96.5947731 28.0412024,97.3524969 28.1906634,98.1116239 L27.0525142,98.3389411 Z M181.001572,100.323055 L179.859213,100.111173 C179.999552,99.3513443 180.136382,98.5908141 180.266897,97.8316871 L181.412063,98.0295372 C181.279443,98.7935754 181.143314,99.5590168 181.001572,100.323055 L181.001572,100.323055 Z M28.0096261,102.890897 C27.841921,102.133875 27.6784261,101.378256 27.5184397,100.621233 L28.6572905,100.382691 C28.8137685,101.1341 28.9772634,101.886913 29.1442668,102.639024 L28.0096261,102.890897 Z M180.097087,104.896059 L178.95964,104.655411 C179.118924,103.89909 179.273999,103.143471 179.424162,102.386449 L180.564416,102.612363 C180.412148,103.373595 180.256372,104.134827 180.097087,104.896059 L180.097087,104.896059 Z M29.0705888,107.416893 C28.8853414,106.664081 28.7043041,105.910567 28.5260736,105.156351 L29.6579075,104.890446 C29.8340329,105.640452 30.0150702,106.390458 30.1982125,107.139061 L29.0705888,107.416893 Z M179.073314,109.450821 L177.943585,109.182109 C178.122518,108.427192 178.29724,107.673678 178.467752,106.918059 L179.601691,107.172738 C179.431179,107.932567 179.255053,108.692395 179.073314,109.450821 L179.073314,109.450821 Z M30.243121,111.923947 C30.0382261,111.174642 29.8389447,110.424636 29.6424702,109.673227 L30.7686905,109.381363 C30.9623583,110.127159 31.1616397,110.872254 31.3651312,111.617349 L30.243121,111.923947 Z M177.92464,113.981027 L176.801928,113.680042 C177.004016,112.932842 177.199087,112.184239 177.387843,111.435636 L178.514765,111.721186 C178.323202,112.475402 178.126026,113.228916 177.92464,113.981027 L177.92464,113.981027 Z M31.5349414,116.405041 C31.3096973,115.659946 31.0893651,114.914851 30.8753481,114.167651 L31.9917447,113.84632 C32.20506,114.587907 32.4246905,115.328793 32.6478295,116.067574 L31.5349414,116.405041 Z M176.64545,118.471944 L175.532562,118.136581 C175.754999,117.3978 175.972524,116.656213 176.183735,115.913924 L177.301535,116.231046 C177.089623,116.979649 176.869291,117.726147 176.64545,118.471944 L176.64545,118.471944 Z M32.9516634,120.853161 C32.7039651,120.115082 32.462582,119.374898 32.2275142,118.632609 L33.3347888,118.28111 C33.5677515,119.017785 33.8077312,119.752357 34.0533244,120.484823 L32.9516634,120.853161 Z M175.230833,122.917257 L174.127768,122.546112 C174.375467,121.816452 174.614043,121.083284 174.848409,120.348012 L175.955684,120.700915 C175.719914,121.4418 175.478531,122.180581 175.230833,122.917257 L175.230833,122.917257 Z M34.4996024,125.263394 C34.2294498,124.532331 33.9656125,123.799163 33.7073888,123.063189 L34.8034363,122.678714 C35.0609583,123.409076 35.3219888,124.137332 35.5886329,124.862081 L34.4996024,125.263394 Z M173.670965,127.30995 L172.583338,126.903024 C172.852789,126.182485 173.115924,125.457736 173.374148,124.732286 L174.469494,125.120269 C174.209867,125.853437 173.942521,126.583097 173.670965,127.30995 L173.670965,127.30995 Z M36.1864769,129.626621 C35.8924668,128.903977 35.6061753,128.179228 35.3240939,127.451673 L36.4082125,127.03282 C36.6881888,127.75406 36.9730769,128.473898 37.2635786,129.189526 L36.1864769,129.626621 Z M171.958829,131.645113 L170.88664,131.198196 C171.182053,130.488882 171.47045,129.775359 171.753935,129.059029 L172.833843,129.4856 C172.548955,130.208945 172.25705,130.928081 171.958829,131.645113 L171.958829,131.645113 Z M38.0193041,133.933719 C37.7035414,133.222301 37.3898837,132.507374 37.0846464,131.788238 L38.1540295,131.332902 C38.4571617,132.045724 38.7652058,132.754336 39.0809685,133.460142 L38.0193041,133.933719 Z M170.086006,135.910116 L169.031358,135.423208 C169.354138,134.72512 169.669901,134.024225 169.98005,133.319823 L171.043118,133.787086 C170.731565,134.498504 170.412294,135.205713 170.086006,135.910116 L170.086006,135.910116 Z M40.0086092,138.174868 C39.6633753,137.475376 39.3265617,136.771676 38.99466,136.063063 L40.045799,135.570543 C40.3755956,136.270736 40.7103041,136.968824 41.0513278,137.661299 L40.0086092,138.174868 Z M168.045477,140.098644 L167.012582,139.568238 C167.362026,138.884883 167.705857,138.19802 168.041968,137.506247 L169.087494,138.014904 C168.747172,138.713694 168.400535,139.408274 168.045477,140.098644 L168.045477,140.098644 Z M42.1607075,142.336736 C41.7881075,141.651277 41.4218227,140.960906 41.0632566,140.266326 L42.0968532,139.733113 C42.4519108,140.420677 42.8132837,141.104733 43.1816736,141.783177 L42.1607075,142.336736 Z M165.828121,144.197369 L164.818382,143.621359 C165.199402,142.954141 165.573406,142.282713 165.938287,141.607076 L166.959955,142.159934 C166.590863,142.842587 166.214053,143.522434 165.828121,144.197369 L165.828121,144.197369 Z M44.4798092,146.407397 C44.0805447,145.738074 43.6847888,145.06384 43.2988566,144.383994 L44.3085956,143.809386 C44.691721,144.480814 45.08046,145.148032 45.4762159,145.810339 L44.4798092,146.407397 Z M163.428324,148.192257 L162.446653,147.571345 C162.857145,146.922368 163.259918,146.268481 163.654972,145.609682 L164.65208,146.208845 C164.252114,146.87466 163.843728,147.536967 163.428324,148.192257 L163.428324,148.192257 Z M46.9764397,150.370713 C46.545599,149.720334 46.1217753,149.064341 45.7049685,148.403438 L46.6894464,147.783928 C47.1013414,148.437816 47.5188498,149.086091 47.9454803,149.729455 L46.9764397,150.370713 Z M160.837667,152.072084 L159.887572,151.403463 C160.32964,150.775534 160.763287,150.141291 161.190619,149.502839 L162.158257,150.147606 C161.724609,150.795179 161.285348,151.436438 160.837667,152.072084 L160.837667,152.072084 Z M49.6520024,154.210549 C49.1909888,153.581919 48.7383956,152.946974 48.2914159,152.306417 L49.2436159,151.642707 C49.684982,152.274144 50.1326634,152.902072 50.5894668,153.522283 L49.6520024,154.210549 Z M158.051236,155.820011 L157.138331,155.102278 C157.611975,154.498203 158.077901,153.887113 158.536809,153.27041 L159.46866,153.963587 C159.00484,154.588709 158.531196,155.207517 158.051236,155.820011 L158.051236,155.820011 Z M52.5128125,157.907961 C52.0202227,157.303886 51.5367549,156.694199 51.0589007,156.077496 L51.9788227,155.367481 C52.44966,155.975765 52.9275142,156.577734 53.4137888,157.173389 L52.5128125,157.907961 Z M155.066226,159.419199 L154.193318,158.653056 C154.699941,158.07494 155.198145,157.489108 155.689331,156.896961 L156.582589,157.639249 C156.085789,158.239114 155.580568,158.832664 155.066226,159.419199 L155.066226,159.419199 Z M55.5574668,161.445408 C55.0340024,160.870099 54.51966,160.287073 54.0123346,159.698434 L54.89226,158.939307 C55.3939719,159.521632 55.901999,160.096239 56.4177447,160.664532 L55.5574668,161.445408 Z M151.881233,162.854213 L151.050426,162.038959 C151.592135,161.488907 152.122616,160.93184 152.64608,160.368458 L153.49864,161.158455 C152.968158,161.730256 152.428555,162.295743 151.881233,162.854213 L151.881233,162.854213 Z M58.7859651,164.803949 C58.2330295,164.25951 57.6864092,163.707354 57.1496125,163.148884 L57.9867346,162.34275 C58.5179176,162.894204 59.0554159,163.438643 59.6006329,163.974662 L58.7859651,164.803949 Z M148.502572,166.097692 L147.722287,165.236132 C148.293467,164.720459 148.853419,164.196367 149.407758,163.665258 L150.212602,164.502263 C149.651948,165.042492 149.08147,165.5736 148.502572,166.097692 L148.502572,166.097692 Z M62.2137447,167.981478 C61.6271278,167.468611 61.0482295,166.947325 60.4770498,166.418322 L61.2664566,165.566584 C61.8299176,166.087168 62.4003956,166.601438 62.9785922,167.107991 L62.2137447,167.981478 Z M144.946382,169.132096 L144.218724,168.225633 C144.817972,167.743637 145.409501,167.254624 145.992609,166.757193 L146.747633,167.641204 C146.155402,168.146353 145.554752,168.643083 144.946382,169.132096 L144.946382,169.132096 Z M65.8260702,170.951334 C65.2085786,170.473547 64.5988058,169.988043 63.9988566,169.493418 L64.736338,168.596076 C65.3271651,169.082984 65.9292193,169.560771 66.5368871,170.03084 L65.8260702,170.951334 Z M141.213365,171.948302 L140.541141,170.999744 C141.16986,170.554932 141.788755,170.101701 142.401335,169.640051 L143.100223,170.568263 C142.479924,171.036227 141.850504,171.495773 141.213365,171.948302 L141.213365,171.948302 Z M69.6138193,173.693172 C68.9675583,173.254674 68.3290159,172.807056 67.6988939,172.35172 L68.3809414,171.410178 C69.000538,171.8592 69.6292566,172.2991 70.2649922,172.731985 L69.6138193,173.693172 Z M137.316152,174.532983 L136.704274,173.545837 C137.358253,173.138911 138.003813,172.724268 138.640952,172.301205 L139.283002,173.269408 C138.637443,173.699486 137.981358,174.120444 137.316152,174.532983 L137.316152,174.532983 Z M73.5643617,176.195064 C72.8907346,175.797259 72.2248261,175.391035 71.5694431,174.974988 L72.1911447,173.993455 C72.8367041,174.402486 73.4934905,174.802395 74.1551888,175.193184 L73.5643617,176.195064 Z M133.272284,176.877717 L132.717945,175.855491 C133.397185,175.488556 134.067304,175.113904 134.729002,174.730131 L135.312111,175.735518 C134.641291,176.125606 133.960646,176.505871 133.272284,176.877717 L133.272284,176.877717 Z M77.6629617,178.444381 C76.9661786,178.088672 76.2764125,177.725245 75.5950668,177.351294 L76.1550193,176.333278 C76.825138,176.700213 77.5043786,177.05943 78.1899346,177.408825 L77.6629617,178.444381 Z M129.095094,178.977594 L128.603206,177.924498 C129.304199,177.597554 129.995368,177.262893 130.678118,176.919813 L131.199477,177.958876 C130.506904,178.306167 129.805911,178.646441 129.095094,178.977594 L129.095094,178.977594 Z M81.8948837,180.434108 C81.1756464,180.122599 80.4655312,179.801969 79.7638363,179.471518 L80.2585312,178.420527 C80.948999,178.745366 81.6478871,179.061084 82.3558973,179.368383 L81.8948837,180.434108 Z M124.804931,180.831211 L124.374792,179.751455 C125.091924,179.464502 125.802741,179.170533 126.502331,178.868847 L126.964046,179.934571 C126.253229,180.242572 125.533291,180.54075 124.804931,180.831211 L124.804931,180.831211 Z M86.2376736,182.161437 C85.5015956,181.894129 84.7711312,181.616999 84.0518939,181.331449 L84.4834363,180.250991 C85.1907447,180.533734 85.9085786,180.805954 86.6348329,181.069754 L86.2376736,182.161437 Z M120.419338,182.439269 L120.048843,181.337062 C120.781413,181.092205 121.506263,180.836824 122.223396,180.574427 L122.623362,181.665409 C121.896406,181.932015 121.162433,182.189501 120.419338,182.439269 L120.419338,182.439269 Z M90.6744905,183.627072 C89.9243786,183.403262 89.1798803,183.169631 88.4459075,182.926879 L88.8093854,181.823268 C89.5356397,182.062512 90.2668058,182.292636 91.0077956,182.512937 L90.6744905,183.627072 Z M115.951646,183.808083 L115.640094,182.688336 C116.385996,182.480664 117.123477,182.265975 117.854643,182.041464 L118.194263,183.152793 C117.454677,183.379408 116.70667,183.597605 115.951646,183.808083 L115.951646,183.808083 Z M95.1891956,184.835922 C94.4271549,184.653507 93.6700261,184.462673 92.9241244,184.262718 L93.2251515,183.140865 C93.9612295,183.338014 94.7050261,183.52534 95.4586464,183.704949 L95.1891956,184.835922 Z M111.422206,184.943968 L111.168192,183.81089 C111.923216,183.641805 112.671223,183.4636 113.412213,183.278378 L113.692891,184.40444 C112.945585,184.593169 112.188457,184.772778 111.422206,184.943968 L111.422206,184.943968 Z M99.7628431,185.795004 C98.9902769,185.653983 98.2268329,185.503841 97.4690024,185.345281 L97.7082803,184.207993 C98.454182,184.364449 99.2085041,184.512486 99.9712464,184.6507 L99.7628431,185.795004 Z M106.844348,185.858147 L106.642962,184.713142 C107.406406,184.579138 108.162833,184.437415 108.912945,184.288677 L109.139592,185.428069 C108.38106,185.578912 107.616213,185.722038 106.844348,185.858147 L106.844348,185.858147 Z M103.470599,186.389957 L103.389202,186.379433 C102.946433,186.316991 102.505067,186.251743 102.067209,186.183688 L102.24544,185.035175 C102.651019,185.098319 103.058704,185.159358 103.469897,185.21759 C103.768118,185.174091 104.068443,185.129891 104.368067,185.084988 L104.541385,186.234203 C104.211589,186.284016 103.881792,186.332426 103.551996,186.379433 L103.470599,186.389957 Z" id="Fill-13" fill="#FFE9D2"></path>
                </g>
                <g id="Group-31" transform="translate(23.857627, 6.687614)">
                    <mask id="mask-2" fill="white">
                        <use xlink:href="#path-1"></use>
                    </mask>
                    <g id="Clip-17"></g>
                    <polygon id="Fill-16" fill="#555555" mask="url(#mask-2)" points="-1.09113559 216.091608 7.48147119 216.091608 7.48147119 -1.52667318 -1.09113559 -1.52667318"></polygon>
                    <polygon id="Fill-18" fill="#555555" mask="url(#mask-2)" points="11.7133932 216.091608 20.286 216.091608 20.286 -1.52667318 11.7133932 -1.52667318"></polygon>
                    <polygon id="Fill-19" fill="#555555" mask="url(#mask-2)" points="24.5186237 216.091608 33.0912305 216.091608 33.0912305 -1.52667318 24.5186237 -1.52667318"></polygon>
                    <polygon id="Fill-20" fill="#555555" mask="url(#mask-2)" points="37.3238542 216.091608 45.896461 216.091608 45.896461 -1.52667318 37.3238542 -1.52667318"></polygon>
                    <polygon id="Fill-21" fill="#555555" mask="url(#mask-2)" points="50.1290847 216.091608 58.7009898 216.091608 58.7009898 -1.52667318 50.1290847 -1.52667318"></polygon>
                    <polygon id="Fill-22" fill="#555555" mask="url(#mask-2)" points="62.9343153 216.091608 71.5062203 216.091608 71.5062203 -1.52667318 62.9343153 -1.52667318"></polygon>
                    <polygon id="Fill-23" fill="#555555" mask="url(#mask-2)" points="75.7388441 216.091608 84.3107492 216.091608 84.3107492 -1.52667318 75.7388441 -1.52667318"></polygon>
                    <polygon id="Fill-24" fill="#555555" mask="url(#mask-2)" points="88.5440746 216.091608 97.1159797 216.091608 97.1159797 -1.52667318 88.5440746 -1.52667318"></polygon>
                    <polygon id="Fill-25" fill="#555555" mask="url(#mask-2)" points="101.349305 216.091608 109.920508 216.091608 109.920508 -1.52667318 101.349305 -1.52667318"></polygon>
                    <polygon id="Fill-26" fill="#555555" mask="url(#mask-2)" points="114.154536 216.091608 122.725739 216.091608 122.725739 -1.52667318 114.154536 -1.52667318"></polygon>
                    <polygon id="Fill-27" fill="#555555" mask="url(#mask-2)" points="126.959064 216.091608 135.530268 216.091608 135.530268 -1.52667318 126.959064 -1.52667318"></polygon>
                    <polygon id="Fill-28" fill="#555555" mask="url(#mask-2)" points="139.764295 216.091608 148.335498 216.091608 148.335498 -1.52667318 139.764295 -1.52667318"></polygon>
                    <polygon id="Fill-29" fill="#555555" mask="url(#mask-2)" points="152.569525 216.091608 161.140027 216.091608 161.140027 -1.52667318 152.569525 -1.52667318"></polygon>
                    <polygon id="Fill-30" fill="#555555" mask="url(#mask-2)" points="165.374054 216.091608 173.944556 216.091608 173.944556 -1.52667318 165.374054 -1.52667318"></polygon>
                </g>
                <g id="Group-105" transform="translate(0.000000, 0.373249)">
                    <polygon id="Fill-32" fill="#FFEDC7" points="61.5283993 41.2695683 63.1254569 44.5025232 66.6935756 45.0217044 64.1113383 47.5376281 64.7211112 51.0912125 61.5283993 49.4129946 58.3377925 51.0912125 58.9475654 47.5376281 56.3660298 45.0217044 59.9334468 44.5025232"></polygon>
                    <polygon id="Fill-34" fill="#FFEDC7" points="50.4520047 45.7569771 51.318598 47.5123706 53.2580827 47.7937107 51.8546929 49.1618231 52.1851912 51.0912125 50.4520047 50.1798391 48.7188183 51.0912125 49.0486149 49.1618231 47.6466285 47.7937107 49.5861132 47.5123706"></polygon>
                    <polygon id="Fill-36" fill="#FFEDC7" points="147.174193 41.2695683 145.578539 44.5025232 142.009017 45.0217044 144.591254 47.5376281 143.981481 51.0912125 147.174193 49.4129946 150.366203 51.0912125 149.756431 47.5376281 152.337966 45.0217044 148.769847 44.5025232"></polygon>
                    <polygon id="Fill-38" fill="#FFEDC7" points="158.251289 45.7569771 157.384696 47.5123706 155.446615 47.7937107 156.8479 49.1618231 156.517401 51.0912125 158.251289 50.1798391 159.985178 51.0912125 159.655381 49.1618231 161.057367 47.7937107 159.117883 47.5123706"></polygon>
                    <path d="M80.4796353,32.8431883 L80.4796353,58.4311008 L74.0942115,58.4311008 L74.0942115,44.71209 C74.0942115,42.7314841 74.0457946,41.5408755 73.9510658,41.1409657 C73.8570386,40.7403543 73.5967098,40.4365632 73.1693776,40.2316971 C72.7441505,40.0261294 71.7912488,39.9229948 70.3169878,39.9229948 L69.684059,39.9229948 L69.684059,36.9398081 C72.7736217,36.2760981 75.1158793,34.9100905 76.7192522,32.8431883 L80.4796353,32.8431883 Z" id="Fill-40" fill="#FFFFFF"></path>
                    <path d="M91.6405841,39.3542108 C91.6405841,37.9952191 91.5746247,37.144183 91.4427061,36.8025057 C91.3114892,36.4601268 91.0034451,36.2882357 90.5171705,36.2882357 C90.0435264,36.2882357 89.7305705,36.4699491 89.5768993,36.8340775 C89.4246315,37.1968027 89.3481468,38.0380165 89.3481468,39.3542108 L89.3481468,51.8398156 C89.3481468,53.3257962 89.419018,54.2217344 89.561462,54.5269288 C89.7039061,54.8328247 90.0119502,54.985071 90.4862959,54.985071 C90.9613434,54.985071 91.2707908,54.806164 91.4195502,54.4476484 C91.5669061,54.0898344 91.6405841,53.2837004 91.6405841,52.0299481 L91.6405841,39.3542108 Z M98.0267095,41.5031998 L98.0267095,50.0381167 C98.0267095,51.9773284 97.9207536,53.3889398 97.7095434,54.2736526 C97.4997366,55.1590669 97.061879,55.9869503 96.3987773,56.7551981 C95.7335705,57.524849 94.9329366,58.0777068 93.9954722,58.4144729 C93.0566044,58.7519407 92.0096756,58.9203237 90.8497739,58.9203237 C89.3207807,58.9203237 88.0521163,58.7442231 87.0409739,58.3906187 C86.0284281,58.0384174 85.2221807,57.4876644 84.6229332,56.7390614 C84.0215807,55.9918615 83.5942485,55.203969 83.3416383,54.3774888 C83.0890281,53.5489038 82.9627231,52.2355158 82.9627231,50.4338169 L82.9627231,41.5031998 C82.9627231,39.1542559 83.1648112,37.3946528 83.5703908,36.2250921 C83.9766722,35.0555313 84.7829197,34.1181989 85.9898349,33.4116916 C87.1953468,32.7058859 88.6583807,32.3522814 90.3761298,32.3522814 C91.7774146,32.3522814 93.0320451,32.5978401 94.1379163,33.0875542 C95.2444892,33.5779699 96.0717875,34.1757298 96.6205129,34.8815355 C97.1664315,35.5880428 97.5383298,36.3829512 97.7341027,37.2683655 C97.9277705,38.1530783 98.0267095,39.5653913 98.0267095,41.5031998 L98.0267095,41.5031998 Z" id="Fill-42" fill="#FFFFFF"></path>
                    <path d="M108.996236,39.3542108 C108.996236,37.9952191 108.93168,37.144183 108.799761,36.8025057 C108.666439,36.4601268 108.358395,36.2882357 107.874226,36.2882357 C107.39988,36.2882357 107.085521,36.4699491 106.933955,36.8340775 C106.781687,37.1968027 106.703799,38.0380165 106.703799,39.3542108 L106.703799,51.8398156 C106.703799,53.3257962 106.775372,54.2217344 106.918517,54.5269288 C107.059558,54.8328247 107.368304,54.985071 107.842649,54.985071 C108.317697,54.985071 108.627144,54.806164 108.775202,54.4476484 C108.921856,54.0898344 108.996236,53.2837004 108.996236,52.0299481 L108.996236,39.3542108 Z M115.382361,41.5031998 L115.382361,50.0381167 C115.382361,51.9773284 115.276405,53.3889398 115.065897,54.2736526 C114.855388,55.1590669 114.418934,55.9869503 113.753727,56.7551981 C113.091327,57.524849 112.28929,58.0777068 111.350422,58.4144729 C110.412958,58.7519407 109.364626,58.9203237 108.206829,58.9203237 C106.677836,58.9203237 105.40847,58.7442231 104.396626,58.3906187 C103.385483,58.0384174 102.578534,57.4876644 101.977883,56.7390614 C101.377934,55.9918615 100.951304,55.203969 100.69729,54.3774888 C100.44468,53.5489038 100.318375,52.2355158 100.318375,50.4338169 L100.318375,41.5031998 C100.318375,39.1542559 100.521165,37.3946528 100.926744,36.2250921 C101.333026,35.0555313 102.139975,34.1181989 103.345487,33.4116916 C104.5517,32.7058859 106.014033,32.3522814 107.73108,32.3522814 C109.133066,32.3522814 110.387697,32.5978401 111.493568,33.0875542 C112.599439,33.5779699 113.428843,34.1757298 113.975463,34.8815355 C114.522785,35.5880428 114.894683,36.3829512 115.089755,37.2683655 C115.284826,38.1530783 115.382361,39.5653913 115.382361,41.5031998 L115.382361,41.5031998 Z" id="Fill-44" fill="#FFFFFF"></path>
                    <path d="M134.349806,48.4578416 C134.349806,47.7836077 134.316125,47.3647548 134.248061,47.2019845 C134.180698,47.0385126 133.991942,46.9564259 133.686705,46.9564259 C133.40322,46.9564259 133.221481,47.041319 133.142189,47.2097021 C133.0636,47.3780851 133.022901,47.7941316 133.022901,48.4578416 L133.022901,54.9062116 C133.022901,55.6337668 133.060091,56.0708612 133.133769,56.2181964 C133.206745,56.3655316 133.397606,56.4391992 133.702142,56.4391992 C133.98703,56.4391992 134.165962,56.357814 134.23964,56.1943421 C134.31402,56.0308702 134.349806,55.6337668 134.349806,55.0009271 L134.349806,48.4578416 Z M138.397183,49.5642587 L138.397183,53.974492 C138.397183,55.1117793 138.289823,55.970533 138.073,56.5500514 C137.857579,57.1295698 137.394461,57.6326142 136.680837,58.0598862 C135.971423,58.4864567 135.030451,58.6997419 133.861427,58.6997419 C132.523295,58.6997419 131.49882,58.4934727 130.785898,58.0837405 C130.075783,57.6719036 129.596525,57.1821895 129.348125,56.613195 C129.100427,56.0442006 128.975525,55.2324538 128.975525,54.179358 L128.975525,49.5642587 C128.975525,48.3105064 129.105339,47.3801899 129.364264,46.7747125 C129.621786,46.169235 130.119288,45.6746097 130.858173,45.2894335 C131.594251,44.9042572 132.506454,44.7120198 133.592678,44.7120198 C134.804505,44.7120198 135.784071,44.9232003 136.532078,45.344158 C137.280084,45.7658172 137.778989,46.271668 138.026688,46.862412 C138.272983,47.4510511 138.397183,48.3526022 138.397183,49.5642587 L138.397183,49.5642587 Z M133.971593,32.3520008 L123.966125,58.9207447 L121.52984,58.9207447 L131.571095,32.3520008 L133.971593,32.3520008 Z M122.479935,36.0823874 C122.479935,35.4081535 122.446254,34.992107 122.377488,34.8342479 C122.307318,34.6763888 122.121369,34.5971084 121.816132,34.5971084 C121.52984,34.5971084 121.3474,34.6813 121.263898,34.849683 C121.177589,35.0180661 121.137593,35.4292014 121.137593,36.0823874 L121.137593,42.5314591 C121.137593,43.268135 121.172678,43.7115438 121.245654,43.8588789 C121.320735,44.0062141 121.515806,44.0805833 121.832271,44.0805833 C122.104528,44.0805833 122.280654,43.9956902 122.360647,43.8273071 C122.439237,43.6589241 122.479935,43.2632238 122.479935,42.6416097 L122.479935,36.0823874 Z M126.52661,37.2042396 L126.52661,41.5983362 C126.52661,42.7475507 126.418549,43.6091107 126.202427,44.1823148 C125.985603,44.7576236 125.522484,45.2578616 124.812369,45.6837305 C124.099447,46.1103009 123.159878,46.3242878 121.989451,46.3242878 C120.642196,46.3242878 119.613512,46.1208249 118.907606,45.7160039 C118.201701,45.3104813 117.724549,44.822872 117.476149,44.2538776 C117.229152,43.6848831 117.106356,42.8682252 117.106356,41.8046055 L117.106356,37.2042396 C117.106356,35.940665 117.234766,35.0054374 117.492288,34.3999599 C117.750512,33.7944824 118.249417,33.3012604 118.986196,32.9209953 C119.723678,32.5421334 120.635179,32.3520008 121.720701,32.3520008 C122.922705,32.3520008 123.898061,32.5603749 124.644664,32.977123 C125.393373,33.3938711 125.892979,33.8969155 126.146291,34.4869578 C126.400305,35.0762986 126.52661,35.9827608 126.52661,37.2042396 L126.52661,37.2042396 Z" id="Fill-46" fill="#FFFFFF"></path>
                    <path d="M106.193596,177.106507 C106.193596,178.311849 105.216837,179.287068 104.01343,179.287068 C102.80862,179.287068 101.832562,178.311849 101.832562,177.106507 C101.832562,175.902568 102.80862,174.926648 104.01343,174.926648 C105.216837,174.926648 106.193596,175.902568 106.193596,177.106507" id="Fill-48" fill="#F1F2F2"></path>
                    <path d="M112.440295,175.223704 C112.440295,176.027031 111.78842,176.677411 110.986383,176.677411 C110.182942,176.677411 109.531068,176.027031 109.531068,175.223704 C109.531068,174.420376 110.182942,173.769997 110.986383,173.769997 C111.78842,173.769997 112.440295,174.420376 112.440295,175.223704" id="Fill-50" fill="#F1F2F2"></path>
                    <path d="M98.4948102,175.223704 C98.4948102,176.027031 97.8436373,176.677411 97.0408983,176.677411 C96.2381593,176.677411 95.5876881,176.027031 95.5876881,175.223704 C95.5876881,174.420376 96.2381593,173.769997 97.0408983,173.769997 C97.8436373,173.769997 98.4948102,174.420376 98.4948102,175.223704" id="Fill-52" fill="#F1F2F2"></path>
                    <path d="M185.886,135.010038 C185.886,147.489328 151.439797,157.605643 102.143624,157.605643 C52.8460475,157.605643 21.1603119,147.489328 21.1603119,135.010038 L21.1603119,109.792568 C21.1603119,122.271157 52.8460475,132.388875 102.143624,132.388875 C151.439797,132.388875 185.886,122.271157 185.886,109.792568 L185.886,135.010038 Z" id="Fill-54" fill="#3086C7"></path>
                    <path d="M69.126422,140.619369 C67.6535644,140.488171 66.9188898,140.420817 65.4474356,140.27699 C65.4965542,139.771139 65.5218153,139.515057 65.5716356,139.009908 C65.6495237,138.213596 65.6621542,137.713358 65.614439,137.506387 C65.5646186,137.299416 65.4102458,137.18225 65.1506186,137.155589 C64.9246729,137.133138 64.7618797,137.203999 64.662239,137.367471 C64.5640017,137.531644 64.4805,137.968739 64.4082254,138.678053 C64.1387746,141.349731 64.0040492,142.683465 63.7331949,145.354441 C63.6707441,145.978862 63.6707441,146.394207 63.7331949,146.600476 C63.7963475,146.806745 63.951422,146.921807 64.199822,146.947065 C64.471378,146.973725 64.6692559,146.87901 64.7892458,146.665725 C64.9078322,146.451738 64.9997542,146.022361 65.0636085,145.374086 C65.1281644,144.713884 65.1604424,144.382731 65.2242966,143.72323 C64.9260763,143.693062 64.7759136,143.679731 64.4769915,143.649563 C64.5611949,142.802736 64.6018932,142.381779 64.6867983,141.534952 C66.4143712,141.708246 67.2788593,141.788228 69.0085373,141.942579 C68.7418932,144.931379 68.6085712,146.427182 68.3412254,149.418086 C67.3974458,149.334596 66.9238017,149.291097 65.980022,149.201995 C65.878978,148.790158 65.8298593,148.583888 65.7281136,148.172753 C65.4319983,148.576872 65.076239,148.86593 64.6678525,149.042732 C64.2545542,149.220236 63.7844186,149.284081 63.2539373,149.230058 C62.6224119,149.166915 62.0456186,148.957137 61.5263644,148.603533 C61.0078119,148.25063 60.6310017,147.840196 60.3924254,147.373635 C60.1545508,146.907775 60.0268424,146.431391 60.0100017,145.945887 C59.9917576,145.459681 60.0352627,144.741948 60.1405169,143.785672 C60.3236593,142.133414 60.414178,141.306232 60.5952153,139.654674 C60.7425712,138.327255 60.9222051,137.371681 61.1313102,136.786549 C61.3411169,136.201418 61.8161644,135.695567 62.550839,135.268295 C63.2869169,134.840322 64.1914017,134.682463 65.2720119,134.789807 C66.3357814,134.897151 67.1960593,135.198837 67.859161,135.699777 C68.5194559,136.200015 68.9313508,136.759889 69.0913373,137.378697 C69.250622,137.998206 69.2821983,138.875903 69.1797508,140.018101 C69.1579983,140.258047 69.1481746,140.378722 69.126422,140.619369" id="Fill-56" fill="#FFFFFF"></path>
                    <path d="M79.2578441,136.235095 C79.0157593,139.964078 78.8950678,141.831026 78.6543864,145.560009 C78.5849186,146.618016 78.5028203,147.3582 78.402478,147.781262 C78.3042407,148.205728 78.0649627,148.630895 77.6839424,149.058167 C77.3015186,149.486843 76.8173492,149.794843 76.2251186,149.987782 C75.6335898,150.18002 74.9473322,150.248776 74.1663458,150.191245 C73.3011559,150.126698 72.5475356,149.928147 71.9089932,149.5998 C71.2690475,149.269348 70.8066305,148.872244 70.5168305,148.402877 C70.2256271,147.934912 70.0733593,147.450811 70.0565186,146.954782 C70.0382746,146.459455 70.099322,145.426004 70.2326441,143.854429 C70.5154271,140.556225 70.6571695,138.907475 70.9399525,135.609271 C72.3931627,135.734857 73.1187153,135.795194 74.5740305,135.906748 C74.2533559,140.086156 74.0940712,142.176912 73.7748,146.358425 C73.7277864,146.967411 73.7334,147.3582 73.7874305,147.532897 C73.8442678,147.708296 73.9740814,147.803713 74.1817831,147.819149 C74.4182542,147.83739 74.5782407,147.754602 74.6610407,147.572888 C74.743139,147.391175 74.8098,146.954081 74.860322,146.2595 C75.1641559,142.150252 75.3150203,140.09247 75.6195559,135.983222 C77.0748712,136.090566 77.8018271,136.140379 79.2578441,136.235095" id="Fill-58" fill="#FFFFFF"></path>
                    <path d="M84.5787966,145.543592 C84.4686305,143.953073 84.3142576,139.651587 84.3142576,139.651587 C84.2988203,139.650184 83.4588915,144.24634 83.2968,145.47694 C83.8090373,145.504302 84.0658576,145.518334 84.5787966,145.543592 M86.9582441,136.659981 C87.5392475,142.283976 87.8409763,145.095272 88.4788169,150.719968 C86.9392983,150.657526 86.169539,150.623849 84.6279153,150.547375 C84.596339,149.539182 84.5823051,149.034734 84.5521322,148.025839 C84.0153356,147.999178 83.7479898,147.985146 83.2132983,147.956381 C83.0701525,148.955454 82.9964746,149.457095 82.8519254,150.455466 C81.2941627,150.371976 80.5152814,150.324969 78.9575186,150.226044 C80.0781254,144.693257 80.6282542,141.926864 81.6969356,136.385657 C83.8006169,136.508437 84.8531593,136.564564 86.9582441,136.659981" id="Fill-60" fill="#FFFFFF"></path>
                    <path d="M93.2328,139.286757 C93.1949085,140.529986 93.1787695,141.1516 93.140878,142.39553 C93.5562814,142.407457 93.8488881,142.359748 94.0186983,142.253106 C94.1885085,142.144358 94.2797288,141.783036 94.2958678,141.165632 C94.3042881,140.858333 94.3084983,140.704683 94.3169186,140.397384 C94.3288475,139.954677 94.2579763,139.662813 94.1007966,139.519687 C93.945722,139.377965 93.655922,139.300088 93.2328,139.286757 M89.6625763,136.77364 C90.6919627,136.813631 91.2063051,136.830469 92.2370949,136.864146 C93.9569492,136.91887 95.1196576,137.012884 95.725922,137.160219 C96.3307831,137.306151 96.8212678,137.654143 97.1938678,138.206299 C97.5685729,138.757754 97.7461017,139.628435 97.7236475,140.820447 C97.7047017,141.908622 97.5552407,142.636177 97.2710542,143.00662 C96.9896746,143.374256 95.6297898,143.643669 95.6297898,143.643669 C95.6290881,143.654193 96.8458271,144.089884 97.0935254,144.393676 C97.340522,144.697467 97.4920881,144.975299 97.5496271,145.227873 C97.6057627,145.478343 97.6289186,146.168714 97.6057627,147.29688 C97.5798,148.771635 97.5650644,149.50761 97.5398034,150.983066 C96.1385186,150.957107 95.4368237,150.940269 94.0362407,150.903786 C94.0853593,149.044556 94.1092169,148.117748 94.1590373,146.25922 C94.1807898,145.511318 94.1316712,145.046862 94.0158915,144.865148 C93.8994102,144.684136 93.5864542,144.582405 93.0742169,144.567671 C93.0012407,147.087805 92.9626475,148.349976 92.8896712,150.870811 C91.3831322,150.825909 90.6295119,150.801353 89.1222712,150.743121 C89.3369898,145.153504 89.4464542,142.363958 89.6625763,136.77364" id="Fill-62" fill="#FFFFFF"></path>
                    <path d="M103.537541,146.056739 C103.3551,144.471833 103.001446,140.181573 103.001446,140.181573 C102.986008,140.181573 102.359395,144.812108 102.255544,146.049022 C102.768483,146.053231 103.025303,146.054634 103.537541,146.056739 M105.506497,137.071397 C106.34432,142.66382 106.776564,145.457576 107.674734,151.045088 C106.133812,151.054208 105.361947,151.055612 103.821025,151.049297 C103.742436,150.044611 103.704544,149.543672 103.628761,148.538285 C103.090561,148.535478 102.823917,148.533373 102.28712,148.528462 C102.189585,149.533148 102.139764,150.038297 102.040825,151.04158 C100.482361,151.030354 99.7020763,151.01983 98.1429102,150.993169 C99.0059949,145.414077 99.4249068,142.625232 100.237469,137.04193 C102.344659,137.067188 103.398605,137.072801 105.506497,137.071397" id="Fill-64" fill="#FFFFFF"></path>
                    <path d="M116.34214,136.9141 C116.497916,142.504418 116.575804,145.298173 116.735089,150.888491 C115.412394,150.925676 114.753502,150.941813 113.431509,150.968473 C112.594387,148.442727 112.181089,147.179854 111.369929,144.649197 C111.409926,147.190378 111.428872,148.46167 111.46957,151.002851 C110.209326,151.022496 109.575696,151.029512 108.31475,151.038633 C108.26914,145.446912 108.249492,142.653156 108.208092,137.05933 C109.426235,137.049508 110.035306,137.043193 111.25415,137.02425 C112.108814,139.530352 112.543163,140.781999 113.423791,143.283891 C113.373268,140.765161 113.347306,139.505796 113.296082,136.987066 C114.514926,136.961808 115.123997,136.947776 116.34214,136.9141" id="Fill-66" fill="#FFFFFF"></path>
                    <path d="M125.142096,136.570107 C125.198231,137.688451 125.226299,138.246922 125.281733,139.363863 C124.411631,139.408063 123.974475,139.427708 123.10297,139.466997 C123.30155,143.936866 123.402594,146.17145 123.603279,150.640617 C122.096038,150.706567 121.341716,150.737438 119.834475,150.792162 C119.673787,146.32089 119.596601,144.086306 119.438018,139.615034 C118.569319,139.645904 118.134268,139.659235 117.266272,139.685194 C117.233292,138.56685 117.217855,138.009081 117.183472,136.890736 C120.369868,136.794618 121.960611,136.729369 125.142096,136.570107" id="Fill-68" fill="#FFFFFF"></path>
                    <path d="M125.974657,136.526959 C128.401118,136.39997 129.617155,136.32981 132.042213,136.165637 C132.117996,137.282578 132.154484,137.840347 132.228863,138.957288 C131.252104,139.023238 130.763023,139.055511 129.784158,139.115147 C129.848714,140.173856 129.880291,140.700754 129.944846,141.759463 C130.866874,141.704037 131.328589,141.67457 132.249914,141.612829 C132.320084,142.673643 132.355168,143.204049 132.428145,144.266266 C131.499802,144.328006 131.037385,144.36028 130.111148,144.417109 C130.184124,145.645604 130.221314,146.257396 130.295694,147.484487 C131.393846,147.417134 131.945379,147.381353 133.040724,147.306282 C133.117911,148.422521 133.156504,148.982395 133.232287,150.098634 C130.620579,150.276138 129.313321,150.355419 126.700209,150.490827 C126.407602,144.906121 126.263755,142.113067 125.974657,136.526959" id="Fill-70" fill="#FFFFFF"></path>
                    <path d="M133.32877,136.076815 C135.756635,135.907028 136.967058,135.812313 139.390011,135.603939 C139.485441,136.718775 139.535963,137.275843 139.631394,138.390679 C138.655336,138.474169 138.164852,138.51416 137.188794,138.592037 C137.271594,139.650044 137.314397,140.178346 137.397899,141.23495 C138.317821,141.161282 138.779536,141.125501 139.70016,141.04622 C139.789275,142.107034 139.836289,142.636037 139.926807,143.694746 C139.001974,143.774728 138.53675,143.813315 137.610513,143.886983 C137.707346,145.113373 137.757868,145.725866 137.854001,146.952256 C138.952153,146.864557 139.499475,146.820356 140.596926,146.724939 C140.693058,147.839074 140.741475,148.398246 140.838309,149.511679 C138.228706,149.737593 136.923553,149.838623 134.312546,150.022441 C133.918194,144.444752 133.723123,141.655907 133.32877,136.076815" id="Fill-72" fill="#FFFFFF"></path>
                    <path d="M144.544241,137.531364 C144.904912,141.193696 145.084546,143.022757 145.444515,146.684387 C145.984119,146.631767 146.30339,146.493553 146.406539,146.273252 C146.511092,146.050846 146.515302,145.474835 146.421275,144.546624 C146.200942,142.384304 146.09218,141.305249 145.873251,139.142229 C145.810098,138.512195 145.750454,138.110882 145.690108,137.937588 C145.633271,137.764995 145.526614,137.642216 145.375047,137.574161 C145.221376,137.504703 144.943505,137.492074 144.544241,137.531364 M140.679305,135.489018 C141.767634,135.392197 142.310044,135.342384 143.396268,135.238548 C145.151207,135.069463 146.344088,135.026666 146.979122,135.122083 C147.614156,135.2175 148.112359,135.42868 148.476539,135.760535 C148.837912,136.090285 149.0814,136.476163 149.211915,136.916064 C149.343834,137.355965 149.484875,138.235065 149.630125,139.551259 C149.844142,141.497487 149.9508,142.473407 150.165519,144.419635 C150.303753,145.667774 150.333224,146.50969 150.258844,146.943978 C150.182359,147.376161 150.006936,147.729064 149.731169,147.99988 C149.452597,148.270696 149.097539,148.476263 148.661085,148.617986 C148.225332,148.759007 147.557319,148.877576 146.660553,148.968082 C144.763871,149.158215 143.813776,149.248019 141.916393,149.416402 C141.420997,143.845729 141.174702,141.058989 140.679305,135.489018" id="Fill-74" fill="#FFFFFF"></path>
                    <polygon id="Fill-76" fill="#FFFFFF" points="61.1953749 76.3137337 54.0275614 76.3137337 54.0275614 94.9095392 49.7016122 94.9095392 49.7016122 76.3137337 42.5337986 76.3137337 42.5337986 72.4935428 61.1953749 72.4935428"></polygon>
                    <path d="M73.4465471,91.2154251 C74.4773369,91.2154251 75.3460353,91.0056478 76.0512386,90.5839886 C76.756442,90.1630309 77.3248149,89.6164875 77.757059,88.9422536 C78.1878997,88.2687213 78.4931369,87.4955624 78.6720692,86.6220752 C78.8510014,85.748588 78.9408183,84.8491418 78.9408183,83.9223333 L78.9408183,72.4933323 L83.2667675,72.4933323 L83.2667675,83.9223333 C83.2667675,85.4588288 83.0822217,86.9013105 82.7145336,88.2476735 C82.345442,89.594738 81.7665437,90.7734195 80.9771369,91.783718 C80.1877302,92.7940164 79.1723776,93.5945376 77.9303776,94.1831767 C76.6883776,94.7725175 75.2035912,95.0671879 73.4781234,95.0671879 C71.6888014,95.0671879 70.1675268,94.7570824 68.9150014,94.1361698 C67.6624759,93.5152572 66.6471234,92.6943897 65.868242,91.6735674 C65.0893607,90.652745 64.5266014,89.4684507 64.1785607,88.1213862 C63.8312217,86.7743216 63.6579031,85.3746373 63.6579031,83.9223333 L63.6579031,72.4933323 L68.0154285,72.4933323 L68.0154285,83.9223333 C68.0154285,84.8694881 68.1045437,85.7801599 68.2841776,86.653647 C68.4624081,87.5271342 68.7676454,88.3002932 69.1991878,88.9738255 C69.6307302,89.6480593 70.1941912,90.1896915 70.8888692,90.6001253 C71.5835471,91.010559 72.4361064,91.2154251 73.4465471,91.2154251" id="Fill-78" fill="#FFFFFF"></path>
                    <polygon id="Fill-80" fill="#FFFFFF" points="104.422869 76.3137337 97.2550556 76.3137337 97.2550556 94.9095392 92.9291064 94.9095392 92.9291064 76.3137337 85.7612929 76.3137337 85.7612929 72.4935428 104.422869 72.4935428"></polygon>
                    <path d="M109.222392,83.7014007 C109.222392,84.6696033 109.369046,85.6062342 109.66446,86.5112932 C109.959172,87.4163522 110.385101,88.2161718 110.94365,88.910752 C111.500796,89.6053321 112.18565,90.1631011 112.995406,90.5840587 C113.805863,91.005718 114.727189,91.2154953 115.75868,91.2154953 C116.811223,91.2154953 117.743074,91.0001052 118.553531,90.5686236 C119.363287,90.137142 120.04744,89.5632364 120.605989,88.8476083 C121.163135,88.1319803 121.584853,87.3272495 121.868338,86.4327144 C122.153226,85.5381794 122.294968,84.6282092 122.294968,83.7014007 C122.294968,82.7338996 122.141999,81.7965672 121.837463,80.8915082 C121.531524,79.9871508 121.099982,79.1866296 120.542836,78.4920494 C119.984287,77.7974692 119.300135,77.2446115 118.490379,76.8341778 C117.679219,76.423744 116.769121,76.2188779 115.75868,76.2188779 C114.706138,76.2188779 113.769375,76.4349696 112.948392,76.8664512 C112.127409,77.2979328 111.443257,77.8662257 110.895935,78.5713298 C110.347911,79.2764339 109.933209,80.0762535 109.649023,80.9700869 C109.364836,81.8653236 109.222392,82.7752938 109.222392,83.7014007 M115.727104,95.067258 C114.085138,95.067258 112.596141,94.7466286 111.259413,94.1046681 C109.921982,93.4627077 108.774711,92.6102684 107.817599,91.5473502 C106.859084,90.4844321 106.117392,89.2692676 105.591121,87.9004535 C105.06485,86.5323411 104.801714,85.1333584 104.801714,83.7014007 C104.801714,82.2070009 105.080989,80.7764464 105.638836,79.4076324 C106.195982,78.0395199 106.96504,76.8299682 107.943904,75.7768724 C108.922768,74.7251798 110.085477,73.8881756 111.432731,73.2665614 C112.779985,72.6463504 114.243019,72.3355434 115.821833,72.3355434 C117.442748,72.3355434 118.921219,72.6666967 120.25865,73.3304067 C121.594677,73.993415 122.737036,74.8612894 123.684324,75.9347315 C124.631613,77.0081736 125.368392,78.2289509 125.894663,79.5970633 C126.420935,80.9658774 126.68407,82.3550377 126.68407,83.7645443 C126.68407,85.2596457 126.410409,86.6845874 125.863087,88.042176 C125.315765,89.4004661 124.557233,90.6001954 123.589596,91.6413641 C122.621257,92.683936 121.46346,93.5153274 120.116206,94.1362399 C118.768952,94.7571525 117.305918,95.067258 115.727104,95.067258" id="Fill-82" fill="#FFFFFF"></path>
                    <path d="M134.388821,83.5753239 L139.851516,83.5753239 C140.25078,83.5753239 140.625485,83.4806084 140.972122,83.2911774 C141.319461,83.1017465 141.619787,82.8442607 141.872397,82.5173169 C142.125007,82.1910747 142.32499,81.8073016 142.472346,81.365296 C142.619,80.9232905 142.69338,80.4497131 142.69338,79.9445639 C142.69338,79.4183668 142.609177,78.9342655 142.44077,78.4922599 C142.271661,78.0502543 142.046417,77.6664812 141.761529,77.3395374 C141.478044,77.0132952 141.151055,76.7614222 140.782665,76.5818136 C140.414275,76.4036082 140.040973,76.3138039 139.662058,76.3138039 L134.388821,76.3138039 L134.388821,83.5753239 Z M130.031295,94.9096094 L130.031295,72.493613 L139.946244,72.493613 C140.977736,72.493613 141.929936,72.7097046 142.804248,73.1404846 C143.677156,73.5726678 144.430075,74.1409607 145.0616,74.8453632 C145.693126,75.5511689 146.187119,76.3509885 146.545685,77.244822 C146.903549,78.1400586 147.082482,79.0395049 147.082482,79.9445639 C147.082482,81.3968679 146.719004,82.7179734 145.993451,83.9064772 C145.266495,85.0956827 144.282719,85.9537347 143.040719,86.4799318 L148.156075,94.9096094 L143.261753,94.9096094 L138.683194,87.3955148 L134.388821,87.3955148 L134.388821,94.9096094 L130.031295,94.9096094 Z" id="Fill-84" fill="#FFFFFF"></path>
                    <path d="M164.386278,78.3657621 C164.238922,78.2191285 163.970173,78.018472 163.580733,77.7658974 C163.191292,77.5133228 162.717648,77.266361 162.1598,77.0236087 C161.601953,76.7822596 160.99639,76.5773936 160.344516,76.4083089 C159.691939,76.2399258 159.028838,76.1557343 158.355211,76.1557343 C157.155312,76.1557343 156.259949,76.3767371 155.671227,76.8187426 C155.081804,77.2607482 154.787092,77.8823624 154.787092,78.6814804 C154.787092,79.1445338 154.897258,79.5290085 155.118292,79.8342028 C155.339326,80.1393971 155.66,80.4074069 156.081719,80.6389336 C156.502736,80.8704603 157.033919,81.0809391 157.67597,81.2703701 C158.318021,81.459801 159.060414,81.6597559 159.902448,81.8702348 C160.99639,82.1656068 161.991394,82.481325 162.886055,82.8173896 C163.780716,83.1541557 164.538546,83.5751134 165.159546,84.0802626 C165.780546,84.5854118 166.259102,85.1908893 166.596617,85.8952918 C166.932729,86.6010975 167.101838,87.4696735 167.101838,88.5003182 C167.101838,89.7000476 166.87519,90.7264827 166.422597,91.578922 C165.970004,92.4306598 165.359529,93.1210303 164.591173,93.6465258 C163.822817,94.1727229 162.938682,94.5571976 161.938766,94.7985467 C160.938851,95.0405974 159.891221,95.1619735 158.797278,95.1619735 C157.112509,95.1619735 155.450194,94.9093989 153.808227,94.4042497 C152.166261,93.8991005 150.692,93.184174 149.387549,92.2573655 L151.313702,88.5003182 C151.50316,88.6897492 151.844885,88.9374126 152.33958,89.2419053 C152.834275,89.5478012 153.418085,89.8529956 154.092414,90.1581899 C154.766041,90.4633842 155.513346,90.72087 156.334329,90.9313488 C157.155312,91.1418277 157.997346,91.2470671 158.860431,91.2470671 C161.260227,91.2470671 162.460126,90.4788193 162.460126,88.9423238 C162.460126,88.4582225 162.322594,88.0477887 162.049634,87.7110226 C161.775272,87.3742564 161.386533,87.0795861 160.881312,86.8270115 C160.376092,86.5744368 159.764916,86.3429101 159.049888,86.1324313 C158.33416,85.922654 157.534227,85.6904257 156.650092,85.4378511 C155.576499,85.1431807 154.644648,84.8225513 153.855241,84.4752612 C153.065834,84.1272695 152.407644,83.7168358 151.882075,83.24396 C151.355804,82.769681 150.960749,82.2231376 150.697614,81.6022251 C150.434478,80.9813125 150.303261,80.2390238 150.303261,79.3760605 C150.303261,78.2394748 150.513068,77.2291764 150.934787,76.3451653 C151.355804,75.4611541 151.939614,74.7251798 152.686919,74.1351374 C153.434224,73.5457967 154.302221,73.09888 155.292312,72.7936856 C156.281702,72.4884913 157.34477,72.3355434 158.481516,72.3355434 C160.060329,72.3355434 161.512838,72.5832068 162.839041,73.0771305 C164.165244,73.5724573 165.322339,74.1561853 166.312431,74.8297176 L164.386278,78.3657621 Z" id="Fill-86" fill="#FFFFFF"></path>
                    <path d="M55.9583451,109.387396 C55.6222332,109.00643 55.1731485,108.697026 54.6110908,108.461289 C54.0504366,108.225553 53.4104908,108.107685 52.6926569,108.107685 C51.6359044,108.107685 50.8668468,108.306938 50.3847824,108.705445 C49.9020163,109.103951 49.6606332,109.645584 49.6606332,110.330342 C49.6606332,110.689559 49.7251892,110.984229 49.854301,111.214353 C49.9827112,111.444476 50.1833959,111.643729 50.4514434,111.812113 C50.7215959,111.980496 51.0668298,112.126428 51.4878468,112.249909 C51.9088637,112.373389 52.4063654,112.49687 52.9775451,112.620351 C53.6174908,112.755058 54.1928807,112.906603 54.7044163,113.074986 C55.2152502,113.243369 55.650301,113.453848 56.0088671,113.706422 C56.3681349,113.958997 56.643901,114.264893 56.8340603,114.62411 C57.0256231,114.984029 57.1203519,115.432349 57.1203519,115.971174 C57.1203519,116.521226 57.0136942,116.998311 56.8010807,117.402431 C56.5870637,117.80655 56.2902468,118.143316 55.9092264,118.412729 C55.5268027,118.682142 55.0714027,118.881395 54.5437281,119.010489 C54.0160536,119.139583 53.4378569,119.204129 52.8105417,119.204129 C50.9573654,119.204129 49.3582027,118.626014 48.0102468,117.469784 L48.5996705,116.51 C48.8122841,116.734511 49.067701,116.947796 49.3659214,117.149856 C49.66344,117.351916 49.9939383,117.528718 50.3595214,117.680263 C50.7244027,117.831807 51.1138434,117.949676 51.5299485,118.033867 C51.9453519,118.118059 52.3825078,118.160154 52.8435214,118.160154 C53.7971247,118.160154 54.5409214,117.988965 55.0742095,117.646586 C55.6074976,117.304207 55.8748434,116.785026 55.8748434,116.089043 C55.8748434,115.7186 55.7990603,115.407091 55.6474942,115.154517 C55.4952264,114.901942 55.2692807,114.683044 54.9647451,114.497823 C54.6616129,114.312601 54.2862061,114.152637 53.8371214,114.017931 C53.3873349,113.883224 52.8652739,113.748518 52.2702366,113.613811 C51.641518,113.467879 51.0913892,113.317036 50.6205519,113.159177 C50.1490129,113.00202 49.7497485,112.805573 49.4248637,112.569836 C49.0992773,112.3341 48.8550875,112.050655 48.6922942,111.719502 C48.5287993,111.38905 48.4481044,110.981423 48.4481044,110.498725 C48.4481044,109.948673 48.5512536,109.457556 48.7589553,109.025373 C48.9673586,108.59319 49.2620705,108.233972 49.6430908,107.947721 C50.0255146,107.66147 50.475301,107.442572 50.9903451,107.291027 C51.5067925,107.139482 52.0800773,107.06371 52.7087959,107.06371 C53.5052197,107.06371 54.2167383,107.184384 54.83844,107.425734 C55.4622468,107.667083 56.0271112,108.006655 56.5309281,108.444451 L55.9583451,109.387396 Z" id="Fill-88" fill="#FFEDC7"></path>
                    <path d="M65.1708275,114.439029 L62.7626105,108.528783 L60.3207122,114.439029 L65.1708275,114.439029 Z M62.2742308,107.148042 L63.2678308,107.148042 L68.2358308,119.10324 L66.9896207,119.10324 L65.4402783,115.365136 L60.0688037,115.365136 L58.5356003,119.10324 L57.2725495,119.10324 L62.2742308,107.148042 Z" id="Fill-90" fill="#FFEDC7"></path>
                    <polygon id="Fill-92" fill="#FFEDC7" points="76.8419786 108.192157 72.5812871 108.192157 72.5812871 119.10338 71.4024397 119.10338 71.4024397 108.192157 67.1417481 108.192157 67.1417481 107.148182 76.8419786 107.148182"></polygon>
                    <mask id="mask-4" fill="white">
                        <use xlink:href="#path-3"></use>
                    </mask>
                    <g id="Clip-95"></g>
                    <polygon id="Fill-94" fill="#FFEDC7" mask="url(#mask-4)" points="78.2046 119.102959 79.3841492 119.102959 79.3841492 107.147761 78.2046 107.147761"></polygon>
                    <path d="M88.9489525,109.387396 C88.6128407,109.00643 88.1630542,108.697026 87.6016983,108.461289 C87.0403424,108.225553 86.4003966,108.107685 85.6825627,108.107685 C84.6265119,108.107685 83.8574542,108.306938 83.3753898,108.705445 C82.891922,109.103951 82.650539,109.645584 82.650539,110.330342 C82.650539,110.689559 82.7150949,110.984229 82.8449085,111.214353 C82.9733186,111.444476 83.1733017,111.643729 83.4420508,111.812113 C83.7115017,111.980496 84.0567356,112.126428 84.4777525,112.249909 C84.8994712,112.373389 85.3962712,112.49687 85.9681525,112.620351 C86.6080983,112.755058 87.1834881,112.906603 87.694322,113.074986 C88.2051559,113.243369 88.6402068,113.453848 88.9994746,113.706422 C89.3587424,113.958997 89.6338068,114.264893 89.8246678,114.62411 C90.0162305,114.984029 90.1109593,115.432349 90.1109593,115.971174 C90.1109593,116.521226 90.0043017,116.998311 89.7909864,117.402431 C89.5776712,117.80655 89.2801525,118.143316 88.8991322,118.412729 C88.5167085,118.682142 88.0620102,118.881395 87.5343356,119.010489 C87.006661,119.139583 86.4284644,119.204129 85.8004475,119.204129 C83.9472712,119.204129 82.3481085,118.626014 81.0001525,117.469784 L81.590278,116.51 C81.8028915,116.734511 82.0583085,116.947796 82.3558271,117.149856 C82.6533458,117.351916 82.9845458,117.528718 83.3501288,117.680263 C83.7143085,117.831807 84.1044508,117.949676 84.5198542,118.033867 C84.9352576,118.118059 85.3731153,118.160154 85.8341288,118.160154 C86.7877322,118.160154 87.5315288,117.988965 88.0648169,117.646586 C88.5981051,117.304207 88.8647492,116.785026 88.8647492,116.089043 C88.8647492,115.7186 88.7889661,115.407091 88.6381017,115.154517 C88.4858339,114.901942 88.2591864,114.683044 87.9553525,114.497823 C87.6522203,114.312601 87.2761119,114.152637 86.8277288,114.017931 C86.3779424,113.883224 85.8558814,113.748518 85.2608441,113.613811 C84.6321254,113.467879 84.0819966,113.317036 83.6111593,113.159177 C83.1396203,113.00202 82.7403559,112.805573 82.4147695,112.569836 C82.0891831,112.3341 81.8449932,112.050655 81.6829017,111.719502 C81.5194068,111.38905 81.4380102,110.981423 81.4380102,110.498725 C81.4380102,109.948673 81.541861,109.457556 81.7495627,109.025373 C81.9572644,108.59319 82.2519763,108.233972 82.6336983,107.947721 C83.0154203,107.66147 83.4652068,107.442572 83.9809525,107.291027 C84.4974,107.139482 85.0699831,107.06371 85.6987017,107.06371 C86.4958271,107.06371 87.2066441,107.184384 87.8290475,107.425734 C88.4521525,107.667083 89.0170169,108.006655 89.5215356,108.444451 L88.9489525,109.387396 Z" id="Fill-96" fill="#FFEDC7" mask="url(#mask-4)"></path>
                    <polygon id="Fill-97" fill="#FFEDC7" mask="url(#mask-4)" points="100.165826 108.192157 95.9051349 108.192157 95.9051349 119.10338 94.7262875 119.10338 94.7262875 108.192157 90.4655959 108.192157 90.4655959 107.148182 100.165826 107.148182"></polygon>
                    <polygon id="Fill-98" fill="#FFEDC7" mask="url(#mask-4)" points="101.528728 119.10317 101.528728 107.147972 109.377186 107.147972 109.377186 108.191947 102.708278 108.191947 102.708278 112.586745 108.332362 112.586745 108.332362 113.563367 102.708278 113.563367 102.708278 119.10317"></polygon>
                    <path d="M116.315054,114.439029 L113.906837,108.528783 L111.464939,114.439029 L116.315054,114.439029 Z M113.418458,107.148042 L114.412058,107.148042 L119.380058,119.10324 L118.133847,119.10324 L116.584505,115.365136 L111.213031,115.365136 L109.679827,119.10324 L108.416776,119.10324 L113.418458,107.148042 Z" id="Fill-99" fill="#FFEDC7" mask="url(#mask-4)"></path>
                    <path d="M119.447982,113.041309 C119.447982,112.323576 119.574988,111.607948 119.826897,110.894425 C120.079507,110.181603 120.447195,109.545255 120.929961,108.983277 C121.412727,108.422702 122.007765,107.964559 122.715073,107.610955 C123.422382,107.25735 124.225121,107.080548 125.12329,107.080548 C126.189866,107.080548 127.10207,107.321897 127.8599,107.804595 C128.617731,108.287294 129.17628,108.915924 129.535548,109.690486 L128.610012,110.262988 C128.418449,109.870094 128.185487,109.538941 127.911124,109.269528 C127.635358,109.000115 127.340646,108.781217 127.026287,108.612834 C126.712629,108.444451 126.387043,108.323777 126.049527,108.250811 C125.712714,108.177845 125.381514,108.141362 125.055927,108.141362 C124.337392,108.141362 123.702358,108.287294 123.152931,108.579158 C122.602802,108.871022 122.139683,109.25269 121.763575,109.724162 C121.387466,110.195635 121.103982,110.726042 120.913121,111.315382 C120.72226,111.904723 120.627531,112.502483 120.627531,113.108662 C120.627531,113.771671 120.741907,114.405212 120.972063,115.011391 C121.202219,115.61757 121.516578,116.154291 121.915843,116.619449 C122.313704,117.085309 122.785243,117.455752 123.329758,117.730778 C123.874273,118.005803 124.466504,118.143316 125.106449,118.143316 C125.443263,118.143316 125.788497,118.10122 126.142151,118.017029 C126.495805,117.932837 126.838233,117.798131 127.169433,117.612909 C127.500633,117.427688 127.806572,117.197564 128.087951,116.922539 C128.367927,116.647513 128.603697,116.314255 128.794558,115.92066 L129.771317,116.425809 C129.579755,116.87483 129.311005,117.27053 128.963666,117.612909 C128.614924,117.955288 128.227588,118.244346 127.800958,118.480082 C127.374327,118.715818 126.922436,118.895427 126.445985,119.018908 C125.968131,119.142389 125.499399,119.204129 125.039087,119.204129 C124.219507,119.204129 123.46729,119.024521 122.782436,118.665304 C122.097582,118.306086 121.50886,117.83742 121.014165,117.259305 C120.520172,116.68119 120.135643,116.024496 119.860578,115.289223 C119.585514,114.55395 119.447982,113.804646 119.447982,113.041309" id="Fill-100" fill="#FFEDC7" mask="url(#mask-4)"></path>
                    <polygon id="Fill-101" fill="#FFEDC7" mask="url(#mask-4)" points="139.740999 108.192157 135.480307 108.192157 135.480307 119.10338 134.30146 119.10338 134.30146 108.192157 130.040768 108.192157 130.040768 107.148182 139.740999 107.148182"></polygon>
                    <polygon id="Fill-102" fill="#FFEDC7" mask="url(#mask-4)" points="141.104532 119.102959 142.284081 119.102959 142.284081 107.147761 141.104532 107.147761"></polygon>
                    <path d="M145.24762,113.125571 C145.24762,113.776652 145.353576,114.402476 145.566891,115.003042 C145.780206,115.603608 146.083338,116.136821 146.476989,116.602681 C146.869938,117.068541 147.335864,117.438984 147.874064,117.714009 C148.413667,117.989035 149.013616,118.126548 149.676718,118.126548 C150.349643,118.126548 150.962223,117.980616 151.512352,117.688752 C152.061779,117.396888 152.527704,117.01522 152.910128,116.543747 C153.291148,116.072274 153.58586,115.539061 153.794264,114.944108 C154.001965,114.349154 154.105115,113.742975 154.105115,113.125571 C154.105115,112.474489 153.996352,111.848666 153.776721,111.248099 C153.558494,110.647533 153.251854,110.117126 152.859606,109.656879 C152.465955,109.196632 152.00003,108.828996 151.461128,108.55397 C150.922928,108.278945 150.327189,108.141432 149.676718,108.141432 C149.003091,108.141432 148.390511,108.284557 147.840382,108.570809 C147.290254,108.85706 146.824328,109.235922 146.442606,109.707394 C146.060884,110.178867 145.766172,110.71208 145.558471,111.307034 C145.350769,111.901987 145.24762,112.508166 145.24762,113.125571 M149.676718,119.187361 C148.845209,119.187361 148.085274,119.016172 147.394806,118.673793 C146.703637,118.331414 146.111406,117.87678 145.617413,117.30989 C145.12342,116.743 144.741698,116.094726 144.472948,115.365066 C144.203498,114.635406 144.068071,113.888907 144.068071,113.125571 C144.068071,112.328557 144.211216,111.565221 144.498209,110.835561 C144.784501,110.105901 145.179555,109.460432 145.684776,108.899156 C146.190698,108.337879 146.785033,107.891664 147.470589,107.56051 C148.155443,107.229357 148.895732,107.06378 149.693559,107.06378 C150.524365,107.06378 151.285003,107.240582 151.975471,107.594187 C152.665237,107.947791 153.25466,108.410845 153.74304,108.983347 C154.232121,109.55585 154.611037,110.204124 154.880487,110.928172 C155.149237,111.652219 155.284664,112.390298 155.284664,113.142409 C155.284664,113.939422 155.141518,114.702759 154.854525,115.432419 C154.568233,116.162079 154.175986,116.804741 153.676379,117.360405 C153.176772,117.916069 152.58384,118.359478 151.898986,118.690631 C151.214132,119.021785 150.473142,119.187361 149.676718,119.187361" id="Fill-103" fill="#FFEDC7" mask="url(#mask-4)"></path>
                    <polygon id="Fill-104" fill="#FFEDC7" mask="url(#mask-4)" points="158.265323 109.337022 158.265323 119.10324 157.085774 119.10324 157.085774 107.148042 157.995171 107.148042 165.910991 117.099481 165.910991 107.16488 167.089137 107.16488 167.089137 119.10324 166.061856 119.10324"></polygon>
                </g>
            </g>
        </g>
    </g>
</svg>