<?xml version="1.0" encoding="UTF-8"?>
<svg width="95px" height="95px" viewBox="0 0 95 95" version="1.1" xmlns="http://www.w3.org/2000/svg" xmlns:xlink="http://www.w3.org/1999/xlink">
    <!-- Generator: Sketch 46.2 (44496) - http://www.bohemiancoding.com/sketch -->
    <title>Page 1</title>
    <desc>Created with Sketch.</desc>
    <defs>
        <polygon id="path-1" points="0 94.4192465 0 0.622777778 94.4530524 0.622777778 94.4530524 94.4192465"></polygon>
        <path d="M0.0696666667,47.359395 C8.5143653,39.4776841 13.7846667,28.3070227 13.7846667,15.9196818 C13.7846667,10.3276521 12.7106322,4.98360552 10.7553804,0.0781681818 L0.0696666667,0.0781681818 L0.0696666667,47.359395 L0.0696666667,47.359395 Z" id="path-3"></path>
        <path d="M0.506855886,51.7802035 C8.46451556,59.9776838 19.6590424,65.0806136 32.0593333,65.0806136 C44.5128342,65.0806136 55.7504212,59.9332279 63.7142086,51.6731378 L63.7142086,0.536815067 L0.506855886,0.536815067 L0.506855886,51.7802035 L0.506855886,51.7802035 Z" id="path-5"></path>
        <path d="M0.585533333,48.5920313 C7.07933379,52.3689582 14.6467426,54.5351591 22.726,54.5351591 C31.5601082,54.5351591 39.7823659,51.9449833 46.6582,47.4909221 L46.6582,0.540520455 L0.585533333,0.540520455 L0.585533333,48.5920313 L0.585533333,48.5920313 Z" id="path-7"></path>
        <path d="M0.631866667,49.7741788 C7.79657682,54.8456272 16.575296,57.8306136 26.0593333,57.8306136 C35.9096816,57.8306136 44.999313,54.6102347 52.3098667,49.1763548 L52.3098667,0.547968182 L0.631866667,0.547968182 L0.631866667,49.7741788 L0.631866667,49.7741788 Z" id="path-9"></path>
        <path d="M0.332666667,43.6015 C0.332666667,67.47575 19.9093333,86.8306136 44.0593333,86.8306136 L44.0593333,86.8306136 C68.208,86.8306136 87.7846667,67.47575 87.7846667,43.6015 L87.7846667,43.6015 C87.7846667,19.72725 68.208,0.373045455 44.0593333,0.373045455 L44.0593333,0.373045455 C19.9093333,0.373045455 0.332666667,19.72725 0.332666667,43.6015 L0.332666667,43.6015 Z" id="path-11"></path>
    </defs>
    <g id="Page-1" stroke="none" stroke-width="1" fill="none" fill-rule="evenodd">
        <g id="Home-Page" transform="translate(-748.000000, -742.000000)">
            <g id="Why-Us" transform="translate(272.000000, 657.000000)">
                <g id="4" transform="translate(476.000000, 83.000000)">
                    <g id="Page-1" transform="translate(0.000000, 2.000000)">
                        <g id="Group-3">
                            <mask id="mask-2" fill="white">
                                <use xlink:href="#path-1"></use>
                            </mask>
                            <g id="Clip-2"></g>
                            <path d="M94.4530524,47.5209132 C94.4530524,73.4222674 73.3085769,94.4192465 47.2267587,94.4192465 C21.1449406,94.4192465 -0.000199300699,73.4222674 -0.000199300699,47.5209132 C-0.000199300699,21.619559 21.1449406,0.622579861 47.2267587,0.622579861 C73.3085769,0.622579861 94.4530524,21.619559 94.4530524,47.5209132" id="Fill-1" stroke="#3086C7" fill="#F0F8FF" mask="url(#mask-2)"></path>
                        </g>
                        <g id="Group-196" transform="translate(3.000000, 4.000000)">
                            <g id="Group-6" transform="translate(74.000000, 27.681818)">
                                <mask id="mask-4" fill="white">
                                    <use xlink:href="#path-3"></use>
                                </mask>
                                <g id="Clip-5"></g>
                                <path d="M1.291,0.0781681818 L15.1416667,21.82685 C15.1416667,21.82685 18.4016667,42.3667591 0.0696666667,50.4221682 L1.291,0.0781681818 Z" id="Fill-4" fill="#D8A535" mask="url(#mask-4)"></path>
                            </g>
                            <polygon id="Fill-7" fill="#B4B4B5" points="37.0026 61.9873682 18.9212667 67.7788 16.5799333 60.6283227 34.6579333 54.8362318"></polygon>
                            <g id="Group-11" transform="translate(12.000000, 21.750000)">
                                <mask id="mask-6" fill="white">
                                    <use xlink:href="#path-5"></use>
                                </mask>
                                <g id="Clip-10"></g>
                                <path d="M63.7142,71.2625568 C63.7208667,76.8430795 59.8728667,81.6590568 53.8228667,81.667625 L11.8868667,81.7269432 C5.8382,81.7361705 0.606866667,76.9360114 0.596866667,71.3541705 L0.506866667,9.99478409 C0.4982,4.41492045 5.7162,0.606034091 11.7642,0.596806818 L53.7008667,0.536829545 C59.7508667,0.528261364 63.6142,4.32330682 63.6222,9.90317045 L63.7142,71.2625568 Z" id="Fill-9" fill="#E74C3C" mask="url(#mask-6)"></path>
                            </g>
                            <g id="Group-14" transform="translate(21.333333, 32.295455)">
                                <mask id="mask-8" fill="white">
                                    <use xlink:href="#path-7"></use>
                                </mask>
                                <g id="Clip-13"></g>
                                <polygon id="Fill-12" fill="#C93831" mask="url(#mask-8)" points="46.6582 66.0429523 0.681533333 66.0389977 0.585533333 0.613020455 46.5608667 0.540520455"></polygon>
                            </g>
                            <g id="Group-17" transform="translate(18.000000, 29.000000)">
                                <mask id="mask-10" fill="white">
                                    <use xlink:href="#path-9"></use>
                                </mask>
                                <g id="Clip-16"></g>
                                <polygon id="Fill-15" fill="#FFFFFF" mask="url(#mask-10)" points="52.3098667 66.5822864 0.7292 66.6580818 0.631866667 0.625081818 52.2118667 0.547968182"></polygon>
                            </g>
                            <path d="M33.3418,41.8576773 C33.3478,44.5395182 31.1511333,46.7184727 28.4391333,46.7230864 C25.7291333,46.7257227 23.5264667,44.5540182 23.5224667,41.8728364 C23.5171333,39.1923136 25.7138,37.0153364 28.4231333,37.0113818 C31.1371333,37.0080864 33.3384667,39.1771545 33.3418,41.8576773" id="Fill-18" fill="#E2E2E2"></path>
                            <path d="M33.3626,54.6999977 C33.3659333,57.3818386 31.1712667,59.559475 28.4566,59.5627705 C25.7459333,59.5673841 23.5446,57.3963386 23.5412667,54.7151568 C23.5379333,52.0333159 25.7326,49.8550205 28.4446,49.8523841 C31.1552667,49.8477705 33.3579333,52.019475 33.3626,54.6999977" id="Fill-20" fill="#E2E2E2"></path>
                            <path d="M33.3815333,67.865075 C33.3868667,70.5469159 31.1908667,72.7252114 28.4768667,72.7291659 C25.7668667,72.7331205 23.5642,70.5607568 23.5608667,67.879575 C23.5562,65.1977341 25.7515333,63.0214159 28.4635333,63.0174614 C31.1755333,63.0121886 33.3782,65.1838932 33.3815333,67.865075" id="Fill-22" fill="#E2E2E2"></path>
                            <path d="M52.5918,18.0641659 C50.7864667,16.2503477 47.6944667,13.6008023 44.1871333,13.606075 C40.6771333,13.6113477 37.5931333,16.2694614 35.7911333,18.0892114 L29.5138,18.0984386 L29.5364667,32.0316205 L59.5618,32.0316205 L59.5424667,18.0542795 L52.5918,18.0641659 Z" id="Fill-24" fill="#343433"></path>
                            <path d="M46.5944,18.8757705 C46.5944,20.0001795 45.6777333,20.9130205 44.5424,20.9136795 C43.4057333,20.9163159 42.4824,20.0054523 42.4824,18.8817023 C42.4804,17.7612477 43.3997333,16.8477477 44.5344,16.8470886 C45.6724,16.8451114 46.5944,17.7553159 46.5944,18.8757705" id="Fill-26" fill="#FFFFFF"></path>
                            <mask id="mask-12" fill="white">
                                <use xlink:href="#path-11"></use>
                            </mask>
                            <g id="Clip-29"></g>
                            <polygon id="Fill-28" fill="#E2E2E2" mask="url(#mask-12)" points="37.2766667 44.0338636 63.6453333 44.0338636 63.6453333 38.7347727 37.2766667 38.7347727"></polygon>
                            <polygon id="Fill-30" fill="#E2E2E2" mask="url(#mask-12)" points="37.2766667 57.3540909 63.6453333 57.3540909 63.6453333 52.055 37.2766667 52.055"></polygon>
                            <polygon id="Fill-31" fill="#E2E2E2" mask="url(#mask-12)" points="37.2766667 70.5326136 63.6453333 70.5326136 63.6453333 65.2328636 37.2766667 65.2328636"></polygon>
                            <polygon id="Fill-32" fill="#E2E2E2" mask="url(#mask-12)" points="25.25 89.5829773 63.6453333 89.5829773 63.6453333 77.1222045 25.25 77.1222045"></polygon>
                            <path d="M30.9472667,37.0947568 C30.9639333,37.0822341 30.8846,37.0433477 30.8732667,37.0328023 C30.8719333,37.0697114 30.9666,37.1059614 30.9472667,37.0947568" id="Fill-33" fill="#E74C3C" mask="url(#mask-12)"></path>
                            <polygon id="Fill-34" fill="#E74C3C" mask="url(#mask-12)" points="30.9348667 37.4744591 30.9082 37.4507318 30.9548667 37.5377318"></polygon>
                            <path d="M30.7643333,37.7328886 C30.907,37.7889114 30.8063333,37.6254568 30.8816667,37.6083205 L30.915,37.6188659 L30.827,37.5331841 C30.8063333,37.5990932 30.8256667,37.7164114 30.7643333,37.7328886" id="Fill-35" fill="#E74C3C" mask="url(#mask-12)"></path>
                            <path d="M30.4056,37.6930136 C30.4596,37.7167409 30.4276,37.7510136 30.4416,37.6725818 C30.4349333,37.6719227 30.4302667,37.6706045 30.4249333,37.6699455 C30.4222667,37.6752182 30.4176,37.6824682 30.4056,37.6930136" id="Fill-36" fill="#E74C3C" mask="url(#mask-12)"></path>
                            <path d="M30.4251333,37.6698136 C30.4398,37.6408136 30.3738,37.6605864 30.4251333,37.6698136" id="Fill-37" fill="#E74C3C" mask="url(#mask-12)"></path>
                            <path d="M30.3717333,37.8117818 L30.3524,37.74785 C30.3184,37.7359864 30.2924,37.7630091 30.2790667,37.7386227 C30.2790667,37.7893727 30.3104,37.8012364 30.3717333,37.8117818" id="Fill-38" fill="#E74C3C" mask="url(#mask-12)"></path>
                            <path d="M30.4407333,37.9063614 L30.4347333,37.8760432 C30.4194,37.8714295 30.4127333,37.8727477 30.4407333,37.9063614" id="Fill-39" fill="#E74C3C" mask="url(#mask-12)"></path>
                            <path d="M30.4212,37.8111227 L30.4352,37.8757136 C30.4578667,37.8842818 30.4978667,37.9099864 30.4325333,37.8480318 C30.4665333,37.8757136 30.4358667,37.8447364 30.4212,37.8111227" id="Fill-40" fill="#E74C3C" mask="url(#mask-12)"></path>
                            <path d="M30.4544,37.8014341 C30.4950667,37.7994568 30.5290667,37.7849568 30.5490667,37.8488886 C30.5757333,37.7691386 30.4810667,37.7216841 30.4544,37.8014341" id="Fill-41" fill="#E74C3C" mask="url(#mask-12)"></path>
                            <path d="M30.8847333,37.8294455 L30.9394,37.8268091 L30.9140667,37.7754 C30.9260667,37.8011045 30.8454,37.8057182 30.8847333,37.8294455" id="Fill-42" fill="#E74C3C" mask="url(#mask-12)"></path>
                            <path d="M30.1549333,37.9890773 C30.1789333,38.00885 30.2322667,38.0246682 30.2676,38.0444409 L30.2562667,37.9983045 C30.2296,37.9989636 30.1956,38.0134636 30.1549333,37.9890773" id="Fill-43" fill="#E74C3C" mask="url(#mask-12)"></path>
                            <path d="M30.2676,38.0444409 L30.2856,38.1129864 C30.3156,38.0826682 30.2989333,38.0615773 30.2676,38.0444409" id="Fill-44" fill="#E74C3C" mask="url(#mask-12)"></path>
                            <polygon id="Fill-45" fill="#E74C3C" mask="url(#mask-12)" points="30.5735333 38.0048295 30.5208667 37.8756477 30.5662 38.0180114"></polygon>
                            <polygon id="Fill-46" fill="#E74C3C" mask="url(#mask-12)" points="30.0468667 38.1351977 30.0028667 38.0706068 30.0648667 38.173425"></polygon>
                            <path d="M29.987,38.2407182 C29.9496667,38.1899682 29.887,38.2044682 29.8683333,38.1662409 C29.8596667,38.1991955 29.8856667,38.2512636 29.909,38.2987182 C29.9036667,38.2618091 29.9256667,38.2420364 29.987,38.2407182" id="Fill-47" fill="#E74C3C" mask="url(#mask-12)"></path>
                            <path d="M29.9407333,38.372075 C29.9380667,38.3529614 29.9240667,38.3272568 29.9087333,38.2989159 C29.9127333,38.3180295 29.9214,38.3417568 29.9407333,38.372075" id="Fill-48" fill="#E74C3C" mask="url(#mask-12)"></path>
                            <path d="M30.2252667,38.1715795 C30.2092667,38.1636705 30.1626,38.1412614 30.1292667,38.1511477 L30.2132667,38.1860795 C30.2186,38.1814659 30.2212667,38.1761932 30.2252667,38.1715795" id="Fill-49" fill="#E74C3C" mask="url(#mask-12)"></path>
                            <path d="M30.2174667,38.1870023 L30.2134667,38.1863432 C30.2008,38.2015023 30.1914667,38.2120477 30.1861333,38.2166614 C30.1901333,38.2127068 30.1994667,38.2041386 30.2174667,38.1870023" id="Fill-50" fill="#E74C3C" mask="url(#mask-12)"></path>
                            <path d="M30.2285333,38.1676909 L30.2252,38.1716455 C30.2345333,38.1749409 30.2378667,38.1756 30.2285333,38.1676909" id="Fill-51" fill="#E74C3C" mask="url(#mask-12)"></path>
                            <path d="M30.4336,38.0624341 C30.4596,38.1131841 30.4689333,38.1909568 30.5649333,38.1870023 C30.5262667,38.1369114 30.4716,38.1395477 30.4336,38.0624341" id="Fill-52" fill="#E74C3C" mask="url(#mask-12)"></path>
                            <path d="M30.3346,38.2114545 L30.3806,38.1817955 C30.3606,38.1686136 30.3266,38.1574091 30.3152667,38.1317045 L30.3346,38.2114545 Z" id="Fill-53" fill="#E74C3C" mask="url(#mask-12)"></path>
                            <polygon id="Fill-54" fill="#E74C3C" mask="url(#mask-12)" points="30.3437333 38.2478364 30.3344 38.2115864 30.3170667 38.2227909"></polygon>
                            <path d="M30.0592667,38.3485455 C30.0779333,38.38875 30.0672667,38.4098409 30.0579333,38.4355455 C30.0879333,38.4217045 30.1132667,38.40325 30.1292667,38.3795227 C30.1092667,38.35975 30.0752667,38.3208636 30.0592667,38.3485455" id="Fill-55" fill="#E74C3C" mask="url(#mask-12)"></path>
                            <path d="M30.1419333,38.2748591 L30.1439333,38.2821091 C30.1512667,38.2840864 30.1552667,38.2827682 30.1419333,38.2748591" id="Fill-56" fill="#E74C3C" mask="url(#mask-12)"></path>
                            <path d="M29.9036667,38.65265 C29.9076667,38.6546273 29.913,38.6572636 29.9176667,38.6585818 L29.907,38.6493545 L29.9036667,38.65265 Z" id="Fill-57" fill="#E74C3C" mask="url(#mask-12)"></path>
                            <path d="M30.1471333,38.3845977 C30.1738,38.3766886 30.1624667,38.3536205 30.1471333,38.328575 C30.1444667,38.3463705 30.1404667,38.3635068 30.1298,38.379325 C30.1384667,38.3878932 30.1458,38.3931659 30.1471333,38.3845977" id="Fill-58" fill="#E74C3C" mask="url(#mask-12)"></path>
                            <path d="M29.9322667,38.4563727 C29.9529333,38.45835 29.9742667,38.4563727 29.9949333,38.4537364 C29.9642667,38.4464864 29.9156,38.4398955 29.9322667,38.4563727" id="Fill-59" fill="#E74C3C" mask="url(#mask-12)"></path>
                            <path d="M30.1198,38.2736068 C30.1191333,38.2722886 30.1184667,38.2703114 30.1184667,38.2683341 C30.0984667,38.2637205 30.1058,38.267675 30.1198,38.2736068" id="Fill-60" fill="#E74C3C" mask="url(#mask-12)"></path>
                            <path d="M30.1198,38.2736068 C30.1224667,38.289425 30.1358,38.3091977 30.1471333,38.3283114 C30.1491333,38.3131523 30.1484667,38.2986523 30.1438,38.282175 C30.1371333,38.2801977 30.1278,38.2769023 30.1198,38.2736068" id="Fill-61" fill="#E74C3C" mask="url(#mask-12)"></path>
                            <path d="M30.3235333,39.0479068 C30.2575333,38.9971568 30.2295333,38.9062023 30.3315333,38.9160886 C30.3088667,38.8402932 30.0668667,38.7111114 29.9182,38.6590432 C29.9482,38.6807932 29.9748667,38.6999068 29.9855333,38.7697705 C30.0322,38.780975 30.1362,38.7387932 30.1728667,38.8159068 C30.1702,38.8949977 30.1182,38.8435886 30.0628667,38.8449068 C30.1628667,38.8818159 30.1362,39.0004523 30.2675333,39.0755886 L30.2575333,38.9971568 C30.2795333,39.0096795 30.2975333,39.0498841 30.3235333,39.0479068" id="Fill-62" fill="#E74C3C" mask="url(#mask-12)"></path>
                            <path d="M29.9811333,38.5857523 L29.9844667,38.5626841 C29.9591333,38.5738886 29.9218,38.569275 29.8518,38.5574114 C29.8631333,38.6081614 29.8851333,38.6318886 29.9071333,38.649025 L29.9744667,38.5732295 L29.9811333,38.5857523 Z" id="Fill-63" fill="#E74C3C" mask="url(#mask-12)"></path>
                            <path d="M30.0390667,38.4869545 C30.1024,38.5515455 30.1057333,38.6141591 30.2024,38.6451364 C30.2324,38.59175 30.1644,38.5667045 30.1544,38.5146364 C30.1164,38.6075682 30.1297333,38.4632273 30.0470667,38.4922273 C30.0450667,38.4678409 30.0510667,38.4513636 30.0577333,38.4355455 C30.0390667,38.4441136 30.0177333,38.4500455 29.9950667,38.454 L29.9990667,38.4546591 L29.9990667,38.4546591 L30.0024,38.4553182 C30.0137333,38.4586136 30.0197333,38.4605909 30.0110667,38.4605909 C30.0117333,38.4619091 30.0117333,38.4632273 30.0117333,38.4645455 C30.0224,38.4717955 30.0297333,38.4790455 30.0377333,38.4869545 C30.0057333,38.4994773 30.0157333,38.4770682 30.0117333,38.4645455 L30.0024,38.4553182 L29.9990667,38.4546591 L29.9844,38.56275 C30.0064,38.5535227 30.0197333,38.5304545 30.0390667,38.4869545" id="Fill-64" fill="#E74C3C" mask="url(#mask-12)"></path>
                            <path d="M30.694,38.3385932 C30.686,38.3366159 30.68,38.3326614 30.6753333,38.3293659 C30.68,38.3412295 30.6853333,38.3471614 30.694,38.3385932" id="Fill-65" fill="#E74C3C" mask="url(#mask-12)"></path>
                            <path d="M30.6269333,38.3414932 C30.6196,38.3289705 30.5936,38.303925 30.6142667,38.289425 C30.6489333,38.2881068 30.6502667,38.3138114 30.6749333,38.3296295 C30.6642667,38.3052432 30.6502667,38.253175 30.5882667,38.2643795 L30.5949333,38.2775614 C30.5462667,38.2920614 30.4236,38.2709705 30.4182667,38.2584477 C30.4902667,38.2946977 30.5442667,38.318425 30.6269333,38.3414932" id="Fill-66" fill="#E74C3C" mask="url(#mask-12)"></path>
                            <path d="M30.3476667,38.4302727 L30.3376667,38.5218864 L30.4263333,38.5324318 L30.387,38.5073864 C30.4276667,38.4803636 30.3756667,38.4559773 30.3476667,38.4302727" id="Fill-67" fill="#E74C3C" mask="url(#mask-12)"></path>
                            <polygon id="Fill-68" fill="#E74C3C" mask="url(#mask-12)" points="29.8606667 38.6353159 29.7893333 38.5720432 29.872 38.686725"></polygon>
                            <polygon id="Fill-69" fill="#E74C3C" mask="url(#mask-12)" points="29.8079333 38.7286432 29.7432667 38.6778932 29.7672667 38.7293023"></polygon>
                            <path d="M27.4192667,44.3791614 L27.4252667,44.4121159 C27.4252667,44.3989341 27.4226,44.3883886 27.4192667,44.3791614" id="Fill-70" fill="#E74C3C" mask="url(#mask-12)"></path>
                            <path d="M27.5182,44.2317886 L27.4842,44.2080614 C27.5002,44.2258568 27.5115333,44.2370614 27.5182,44.2317886" id="Fill-71" fill="#E74C3C" mask="url(#mask-12)"></path>
                            <path d="M28.3242,40.9363341 C28.2408667,40.9264477 28.1162,40.8981068 28.1988667,40.9435841 L28.2822,40.9804932 C28.2808667,40.9514932 28.2988667,40.9402886 28.3242,40.9363341" id="Fill-72" fill="#E74C3C" mask="url(#mask-12)"></path>
                            <path d="M27.8489333,42.7565455 C27.8589333,42.7585227 27.8676,42.7598409 27.8776,42.7611591 C27.8556,42.73875 27.8349333,42.717 27.8156,42.6965682 C27.8249333,42.7156818 27.8362667,42.7361136 27.8489333,42.7565455" id="Fill-73" fill="#E74C3C" mask="url(#mask-12)"></path>
                            <path d="M28.1594667,42.9676523 L28.0868,42.9781977 C28.1081333,42.9795159 28.1334667,42.9762205 28.1594667,42.9676523" id="Fill-74" fill="#E74C3C" mask="url(#mask-12)"></path>
                            <path d="M26.9889333,45.2513364 L27.0522667,45.3251545 C27.0749333,45.2869273 27.0242667,45.2790182 26.9889333,45.2513364" id="Fill-75" fill="#E74C3C" mask="url(#mask-12)"></path>
                            <path d="M29.1966,39.6470864 C29.1492667,39.6523591 29.1232667,39.6642227 29.1072667,39.6800409 C29.1712667,39.6787227 29.2526,39.6971773 29.1966,39.6470864" id="Fill-76" fill="#E74C3C" mask="url(#mask-12)"></path>
                            <path d="M26.6334667,43.8230864 C26.6401333,43.8441773 26.6528,43.8593364 26.6694667,43.8685636 C26.6648,43.8481318 26.6541333,43.8323136 26.6334667,43.8230864" id="Fill-77" fill="#E74C3C" mask="url(#mask-12)"></path>
                            <path d="M29.0586,39.7542545 C29.0672667,39.7549136 29.0739333,39.7535955 29.0846,39.7529364 C29.0846,39.7259136 29.0866,39.69955 29.1072667,39.6804364 C29.0599333,39.6817545 29.0219333,39.6942773 29.0586,39.7542545" id="Fill-78" fill="#E74C3C" mask="url(#mask-12)"></path>
                            <path d="M24.1738,45.1566909 C24.1778,45.1527364 24.1791333,45.1501 24.1831333,45.1448273 C24.1711333,45.1501 24.1718,45.1527364 24.1738,45.1566909" id="Fill-79" fill="#E74C3C" mask="url(#mask-12)"></path>
                            <path d="M24.5996,43.8584795 C24.6109333,43.8644114 24.6202667,43.8802295 24.6282667,43.8953886 C24.6296,43.8848432 24.6236,43.8729795 24.5996,43.8584795" id="Fill-80" fill="#E74C3C" mask="url(#mask-12)"></path>
                            <path d="M29.5247333,39.0581886 C29.5327333,39.0357795 29.5180667,39.0496205 29.5247333,39.0581886" id="Fill-81" fill="#E74C3C" mask="url(#mask-12)"></path>
                            <path d="M29.8828,39.1724091 C29.8874667,39.1822955 29.8968,39.1928409 29.9128,39.2047045 C29.8968,39.1915227 29.8868,39.1809773 29.8828,39.1724091" id="Fill-82" fill="#E74C3C" mask="url(#mask-12)"></path>
                            <path d="M29.3984,40.2560205 L29.3970667,40.2579977 C29.4144,40.2619523 29.4117333,40.2612932 29.3984,40.2560205" id="Fill-83" fill="#E74C3C" mask="url(#mask-12)"></path>
                            <path d="M29.5781333,39.0533773 C29.5641333,39.0540364 29.5508,39.0566727 29.5388,39.0619455 C29.5468,39.0626045 29.5601333,39.0599682 29.5781333,39.0533773" id="Fill-84" fill="#E74C3C" mask="url(#mask-12)"></path>
                            <path d="M29.5397333,39.0330773 C29.5490667,39.0291227 29.5530667,39.0251682 29.5597333,39.0218727 C29.5490667,39.0113273 29.5390667,39.0073727 29.5397333,39.0330773" id="Fill-85" fill="#E74C3C" mask="url(#mask-12)"></path>
                            <path d="M29.5097333,39.0871227 C29.5157333,39.0752591 29.5270667,39.0680091 29.5390667,39.0620773 C29.5310667,39.0620773 29.5264,39.0607591 29.5244,39.0581227 C29.5217333,39.0647136 29.5184,39.0732818 29.5097333,39.0871227" id="Fill-86" fill="#E74C3C" mask="url(#mask-12)"></path>
                            <path d="M25.5930667,46.6238932 C25.5904,46.6219159 25.5897333,46.6212568 25.5884,46.6179614 C25.5730667,46.6917795 25.5797333,46.6726659 25.5930667,46.6238932" id="Fill-87" fill="#E74C3C" mask="url(#mask-12)"></path>
                            <path d="M28.8183333,41.9275409 C28.8183333,41.9262227 28.8163333,41.9249045 28.815,41.9229273 L28.8103333,41.9249045 L28.8183333,41.9275409 Z" id="Fill-88" fill="#E74C3C" mask="url(#mask-12)"></path>
                            <path d="M28.8333333,42.0308205 C28.7553333,41.9438205 28.778,41.9339341 28.8106667,41.9247068 L28.5726667,41.8120023 L28.8333333,42.0308205 Z" id="Fill-89" fill="#E74C3C" mask="url(#mask-12)"></path>
                            <path d="M25.4706667,45.6554909 L25.4733333,45.7082182 C25.4573333,45.7471045 25.4646667,45.7042636 25.4706667,45.6554909 M29.5273333,39.2702182 C29.5193333,39.2563773 29.5073333,39.2484682 29.4953333,39.2431955 C29.512,39.2623091 29.504,39.2774682 29.486,39.2893318 C29.5106667,39.2992182 29.5313333,39.3018545 29.5273333,39.2702182 M29.4446667,39.3084455 L29.4493333,39.3124 C29.3953333,39.3203091 29.4146667,39.3183318 29.4446667,39.3084455 M28.0806667,42.7462636 C28.102,42.7739455 28.0793333,42.7818545 28.0353333,42.7811955 C28.0366667,42.7627409 28.0473333,42.7502182 28.0806667,42.7462636 M27.6193333,43.9853545 C27.6273333,44.0104 27.6653333,44.0723545 27.6086667,44.0525818 C27.5193333,43.9774455 27.5753333,43.9926045 27.6193333,43.9853545 M27.2173333,44.7531955 L27.316,44.7466045 C27.394,44.8764455 27.3273333,44.8949 27.454,44.9094 C27.2173333,44.7531955 27.5473333,44.7017864 27.3113333,44.5469 L27.3826667,44.5455818 C27.3746667,44.55415 27.3873333,44.5633773 27.3786667,44.5712864 C27.5353333,44.5791955 27.2333333,44.4177182 27.3186667,44.3577409 C27.3553333,44.3412636 27.4013333,44.3425818 27.4193333,44.3788318 L27.3993333,44.2806273 C27.414,44.2661273 27.454,44.2951273 27.438,44.3096273 L27.4786667,44.2021955 L27.4846667,44.2081273 C27.4553333,44.1712182 27.416,44.10465 27.4,44.0743318 C27.4493333,44.0716955 27.418,44.1020136 27.4533333,44.1138773 L27.4253333,44.0262182 C27.5026667,44.0413773 27.5373333,44.1217864 27.506,44.1534227 C27.7793333,44.24965 27.4706667,44.0730136 27.6793333,44.0506045 L27.6793333,44.1198091 C27.838,44.1692409 27.812,44.1000364 27.9326667,44.0934455 C27.8806667,44.0815818 27.6453333,44.0789455 27.622,43.9853545 C27.6493333,43.9800818 27.6726667,43.9629455 27.642,43.9036273 C27.73,43.9543773 27.726,43.9115364 27.7446667,43.8706727 L27.8586667,43.9411955 C27.8506667,43.8799 27.79,43.8482636 27.7526667,43.7942182 C27.792,43.7546727 27.886,43.7975136 27.968,43.8311273 C28.0306667,43.7685136 27.7946667,43.7975136 27.824,43.6979909 C27.906,43.6630591 27.8846667,43.5925364 27.8586667,43.4785136 C27.924,43.4594 27.9246667,43.5272864 27.9673333,43.5312409 L27.8993333,43.4396273 C27.906,43.4310591 27.9313333,43.4508318 27.9453333,43.4613773 C27.9286667,43.4079909 27.8313333,43.3908545 27.8306667,43.3223091 C27.712,43.2339909 28.0786667,43.3282409 27.972,43.1812636 C28.0126667,43.1845591 28.0373333,43.2293773 28.084,43.2511273 C28.04,43.1107409 28.0586667,43.1384227 27.974,42.9934227 L28.0866667,42.9782636 C27.9733333,42.9710136 27.904,42.8543545 27.8486667,42.7568091 C27.798,42.7475818 27.7533333,42.7390136 27.732,42.7376955 L27.7166667,42.6236727 C27.7393333,42.6249909 27.7753333,42.6559682 27.816,42.6968318 C27.8093333,42.6862864 27.8033333,42.6757409 27.7973333,42.6665136 C27.8553333,42.6632182 27.9126667,42.7172636 27.966,42.7746045 C27.938,42.77065 27.908,42.7660364 27.8773333,42.7614227 C27.936,42.8220591 28.0026667,42.8853318 28.0733333,42.9209227 C28.0633333,42.9084 28.0566667,42.8919227 28.0566667,42.8767636 C28.0733333,42.8932409 28.088,42.9064227 28.1,42.9110364 C28.1153333,42.91565 28.094,42.8925818 28.0733333,42.8622636 L28.2113333,42.9196045 L28.1633333,42.8853318 L28.304,42.8299682 C28.2186667,42.6803545 28.0673333,42.5050364 28.0826667,42.3587182 C28.1613333,42.4424227 28.2333333,42.4549455 28.3446667,42.5215136 C28.2066667,42.4839455 28.3413333,42.6408091 28.2806667,42.6869455 C28.312,42.6632182 28.36,42.7014455 28.374,42.7199 L28.3313333,42.5491955 C28.4213333,42.6052182 28.4126667,42.5669909 28.4673333,42.5610591 C28.2753333,42.4766955 28.396,42.4101273 28.3666667,42.3343318 C28.4286667,42.3666273 28.4846667,42.4140818 28.438,42.4575818 C28.6086667,42.4793318 28.2706667,42.2578773 28.4213333,42.2677636 C28.4153333,42.2816045 28.4013333,42.2829227 28.4293333,42.3059909 C28.3933333,42.2440364 28.4813333,42.1959227 28.5226667,42.2440364 L28.5173333,42.2578773 C28.5906667,42.1853773 28.6786667,41.9995136 28.5333333,41.8966955 C28.5533333,41.9065818 28.7093333,42.01665 28.738,42.0397182 L28.32,41.5809909 C28.442,41.6726045 28.786,41.8083773 28.8153333,41.9230591 C28.8466667,41.9138318 28.8846667,41.9019682 28.864,41.8321045 C28.8366667,41.8340818 28.654,41.7523545 28.6533333,41.72665 C28.832,41.7615818 28.754,41.7378545 28.9173333,41.7477409 C28.876,41.7516955 28.6853333,41.6053773 28.7126667,41.5763773 C28.74,41.6001045 28.9166667,41.6950136 28.93,41.7207182 L28.78,41.5170591 C28.804,41.5592409 28.9486667,41.6238318 29.0146667,41.63965 C28.9706667,41.62515 29.0633333,41.5717636 29.056,41.53815 L28.988,41.5440818 C29.0753333,41.4709227 28.7633333,41.2804455 28.8313333,41.1954227 C28.8653333,41.2316727 29.0673333,41.37865 29.122,41.3483318 C29.0326667,41.2639682 28.6886667,40.9495818 28.6606667,40.8197409 L28.728,40.8401727 L28.6993333,40.7360364 C28.83,40.8704909 29.0853333,41.1802636 29.1753333,41.3173545 C29.2426667,41.3114227 29.2506667,41.3503091 29.2773333,41.2956045 C29.3426667,41.3107636 29.3426667,41.3746955 29.3353333,41.3911727 L29.4446667,41.2936273 C29.3233333,41.2250818 29.3833333,41.1275364 29.2813333,41.0701955 L29.3233333,41.27715 C29.202,41.2092636 29.032,40.9924227 29.1066667,40.9199227 C29.1666667,40.9271727 29.3086667,41.0682182 29.348,41.0912864 C29.3146667,41.0543773 29.3213333,40.9614455 29.3533333,40.9719909 L29.396,41.0477864 C29.4686667,41.0286727 29.2846667,40.87115 29.4333333,40.8869682 C29.4553333,40.8724682 29.624,40.9265136 29.558,40.8784 C29.402,40.8236955 28.978,40.5659909 28.89,40.4803091 C28.9053333,40.4789909 29.09,40.4598773 29.17,40.4809682 C29.298,40.5172182 29.3906667,40.6899 29.4993333,40.7208773 C29.4686667,40.6984682 29.4406667,40.6569455 29.432,40.6417864 C29.474,40.6384909 29.5266667,40.7136273 29.5413333,40.6602409 C29.426,40.5765364 29.6106667,40.5798318 29.454,40.5745591 C29.4493333,40.5099682 29.51,40.5455591 29.5386667,40.4921727 C29.4506667,40.4579 29.3066667,40.2759909 29.3013333,40.2107409 C29.3306667,40.2324909 29.3766667,40.2489682 29.3986667,40.2562182 C29.4686667,40.17515 29.5546667,40.1632864 29.61,40.0822182 C29.6446667,40.0940818 29.7053333,40.0782636 29.744,40.1290136 C29.7313333,40.1033091 29.6993333,40.0657409 29.712,40.0387182 C29.848,40.05915 29.69,40.1052864 29.8393333,40.1501045 C29.7726667,40.1013318 29.788,40.0222409 29.77,39.9569909 C29.6566667,39.8956955 29.6933333,40.0261955 29.7113333,40.0907864 C29.566,39.9925818 29.456,39.8258318 29.4486667,39.6933545 C29.46,39.6010818 29.5633333,39.7282864 29.55,39.7025818 C29.666,39.5944909 29.3746667,39.4204909 29.5546667,39.3868773 C29.676,39.4099455 29.738,39.5127636 29.8113333,39.5496727 C29.808,39.6281045 29.6933333,39.5931727 29.6713333,39.6327182 L29.7473333,39.6169 C29.7646667,39.6551273 29.762,39.7078545 29.7213333,39.7098318 C29.828,39.7322409 29.8886667,39.50815 30.036,39.4633318 C30.0166667,39.4251045 30.0066667,39.3730364 29.9586667,39.3611727 L29.95,39.4000591 C29.8546667,39.37765 29.8886667,39.2708773 29.8253333,39.2866955 C29.8026667,39.2082636 29.7546667,39.1054455 29.8393333,39.0757864 L29.9513333,39.1384 C29.92,39.1186273 29.862,39.1331273 29.8813333,39.1720136 C29.852,39.1146727 30.0873333,39.1812409 29.9686667,39.05865 L29.8673333,39.0487636 C29.8446667,38.9703318 29.77,38.84115 29.8413333,38.8128091 C29.7193333,38.7640364 29.844,38.8325818 29.696,38.7844682 C29.8706667,38.8582864 29.5946667,38.9129909 29.79,38.9723091 C29.622,38.9116727 29.6833333,38.9960364 29.528,38.9617636 C29.5646667,38.9848318 29.606,38.9907636 29.56,39.0217409 C29.568,39.0303091 29.5766667,39.04415 29.5826667,39.0520591 C29.582,39.0527182 29.5806667,39.0527182 29.578,39.0533773 L29.584,39.0533773 C29.5873333,39.0593091 29.59,39.0606273 29.586,39.0533773 C29.608,39.0540364 29.6313333,39.05865 29.654,39.0685364 C29.718,39.14565 29.666,39.2128773 29.69,39.2649455 C29.6553333,39.2794455 29.658,39.2267182 29.6113333,39.2155136 L29.6486667,39.2932864 C29.5686667,39.2431955 29.472,39.2721955 29.47,39.1799227 L29.428,39.23265 C29.3613333,39.2346273 29.3126667,39.2669227 29.3253333,39.3170136 C29.29,39.3315136 29.364,39.4409227 29.3193333,39.3763318 L29.3066667,39.4956273 L29.2873333,39.4831045 C29.216,39.5595591 29.292,39.7480591 29.0846667,39.7526727 C29.084,39.7948545 29.0866667,39.8423091 29.032,39.8765818 L28.958,39.84165 C28.9566667,39.8943773 28.8133333,39.9108545 28.8733333,39.9728091 C28.662,39.8943773 28.708,40.13165 28.63,40.1771273 L28.7173333,40.2371045 C28.6806667,40.2792864 28.678,40.3392636 28.6753333,40.4190136 L28.756,40.4658091 C28.7893333,40.5554455 28.6206667,40.5574227 28.5813333,40.6417864 C28.5533333,40.6160818 28.574,40.6015818 28.6006667,40.5989455 C28.3626667,40.58115 28.6086667,40.8784 28.4253333,40.8823545 C28.4406667,40.9219 28.422,40.9311273 28.392,40.9331045 C28.3933333,40.9311273 28.3933333,40.9284909 28.392,40.9258545 C28.3886667,40.9265136 28.3866667,40.9298091 28.3853333,40.9337636 C28.366,40.9344227 28.344,40.9344227 28.324,40.9364 C28.35,40.9396955 28.3706667,40.9416727 28.382,40.9383773 C28.374,40.9561727 28.368,40.98715 28.3733333,41.0234 L28.282,40.9805591 C28.282,40.9838545 28.2793333,40.9851727 28.2806667,40.9884682 C28.2346667,40.9930818 28.3093333,41.0326273 28.382,41.0589909 C28.3886667,41.0800818 28.398,41.1011727 28.4126667,41.1229227 C28.262,41.0583318 28.4213333,41.2145364 28.2553333,41.1512636 C28.318,41.2119 28.2353333,41.3068091 28.3786667,41.4116045 C28.358,41.3997409 28.3446667,41.4017182 28.3513333,41.3878773 C28.318,41.4043545 28.2833333,41.4208318 28.3126667,41.4709227 L28.1946667,41.4162182 L28.3066667,41.5638545 C28.2173333,41.5599 28.1686667,41.5513318 28.1066667,41.46565 C28.1826667,41.6291045 28.112,41.5645136 28.196,41.7147864 L28.1273333,41.66865 C28.114,41.6963318 28.1826667,41.7951955 28.1153333,41.7760818 C27.9433333,41.7549909 27.918,42.0542182 27.7033333,42.1306727 C27.93,42.2249227 27.5666667,42.1458318 27.726,42.2473318 C27.6713333,42.2269 27.6313333,42.2315136 27.602,42.1814227 C27.6053333,42.2875364 27.4553333,42.2512864 27.5593333,42.3837636 C27.506,42.36465 27.4973333,42.3251045 27.464,42.3158773 C27.4686667,42.3284 27.4906667,42.3659682 27.4566667,42.3560818 C27.4226667,42.3468545 27.4226667,42.3204909 27.4066667,42.2954455 C27.3693333,42.37915 27.518,42.4766955 27.6566667,42.5669909 C27.566,42.5669909 27.5633333,42.5920364 27.6406667,42.6764 C27.5853333,42.6625591 27.522,42.6566273 27.5353333,42.5973091 C27.5113333,42.6210364 27.3666667,42.7245136 27.4786667,42.7956955 C27.4453333,42.7871273 27.448,42.8293091 27.4566667,42.8438091 C27.4126667,42.9018091 27.3993333,42.90115 27.3746667,42.9677182 L27.4013333,42.9617864 C27.528,43.0672409 27.4033333,43.0309909 27.3906667,43.0889909 L27.3773333,43.0791045 C27.21,43.1318318 27.3973333,43.1562182 27.2173333,43.1990591 L27.306,43.2438773 C27.4873333,43.3631727 27.1386667,43.2768318 27.1726667,43.3829455 L27.2346667,43.3888773 C27.2786667,43.4607182 26.9233333,43.3381273 26.8793333,43.3585591 C26.858,43.3572409 26.8606667,43.3321955 26.856,43.3137409 C26.69,43.3401045 26.9606667,43.3921727 26.9453333,43.4745591 C26.8773333,43.4514909 26.8013333,43.3677864 26.762,43.4060136 C26.6986667,43.3987636 26.8773333,43.6538318 26.7233333,43.6465818 C26.7773333,43.6610818 26.8326667,43.6755818 26.848,43.72765 C26.836,43.78565 26.5913333,43.7500591 26.712,43.8825364 C26.6953333,43.8805591 26.6806667,43.8752864 26.6693333,43.8686955 C26.684,43.9280136 26.658,44.0262182 26.724,44.0974 C26.4073333,43.9504227 26.7253333,44.4131045 26.4553333,44.2443773 L26.3993333,44.36565 L26.3733333,44.3458773 C26.3106667,44.4058545 26.3593333,44.4724227 26.4073333,44.5383318 C26.3806667,44.5436045 26.3626667,44.5159227 26.348,44.5053773 C26.2293333,44.5765591 26.234,44.5936955 26.3133333,44.7670364 L26.2213333,44.7215591 C26.2566667,44.7775818 25.9893333,44.7868091 26.02,44.9482864 C26.0113333,44.9403773 25.9953333,44.9278545 25.9886667,44.9120364 C26.0013333,45.0003545 25.894,45.0280364 25.8206667,45.0636273 C25.7866667,45.0768091 25.7486667,45.1104227 25.7606667,45.1222864 C25.768,45.1394227 25.7993333,45.1743545 25.868,45.2402636 C25.8693333,45.2376273 25.9053333,45.3490136 25.9033333,45.3509909 C25.9746667,45.3009 26.014,45.4781955 26.0806667,45.4913773 C26.068,45.5480591 25.9406667,45.4953318 25.9553333,45.4399682 L25.972,45.4485364 C25.8453333,45.2877182 25.8633333,45.4828091 25.784,45.3628545 C25.7486667,45.4221727 25.6973333,45.4524909 25.6553333,45.4656727 C25.612,45.4801727 25.5773333,45.4781955 25.5506667,45.5098318 L25.5753333,45.7398545 L25.5473333,45.7649 C25.5386667,45.7167864 25.5326667,45.5790364 25.5473333,45.5678318 C25.5346667,45.4360136 25.5266667,45.7240364 25.524,45.7853318 C25.49,45.7253545 25.5326667,45.4623773 25.522,45.4716045 L25.5126667,45.5052182 L25.514,45.5322409 C25.506,45.6528545 25.5033333,45.7787409 25.4806667,45.7886273 C25.4686667,45.7148091 25.482,45.6086955 25.4773333,45.5915591 C25.4793333,45.5724455 25.4773333,45.5619 25.47,45.5750818 L25.4453333,45.5210364 L25.4353333,45.7411727 C25.4093333,45.8235591 25.4006667,45.6877864 25.392,45.9395591 C25.3986667,45.74315 25.37,45.6772409 25.342,45.6350591 C25.316,45.5915591 25.2813333,45.5724455 25.2906667,45.5210364 C25.2313333,45.6034227 25.204,45.5632182 25.1893333,45.5098318 C25.1793333,45.5467409 25.1033333,45.7049227 25.09,45.6396727 C25.2726667,45.3648318 25.1286667,45.43865 25.26,45.2389455 C25.176,45.3753773 25.196,45.1849 25.068,45.3615364 C25.0686667,45.3121045 25.148,45.2824455 25.1893333,45.2158773 C25.1346667,45.2237864 25.1326667,45.1730364 25.142,45.1288773 C25.158,45.0965818 25.1546667,45.0010136 25.112,44.9403773 C25.0773333,44.9515818 25.0346667,44.9964 24.9706667,44.9851955 L25.114,44.8434909 C25.0846667,44.8224 24.9046667,44.8949 25.0033333,44.7973545 C24.9786667,44.8164682 24.938,44.8434909 24.9193333,44.82965 C24.9506667,44.6596045 24.854,44.52515 24.78,44.3867409 C24.7046667,44.2463545 24.6293333,44.1013545 24.7106667,43.8746273 C24.666,43.9484455 24.65,43.9240591 24.628,43.8950591 C24.6266667,43.9227409 24.548,43.9359227 24.5066667,43.9629455 C24.5066667,43.9629455 24.52,43.9174682 24.5326667,43.8706727 C24.542,43.8232182 24.5553333,43.7744455 24.5553333,43.7744455 C24.4233333,43.8219 24.468,43.6479 24.348,43.7059 L24.3906667,43.7302864 C24.232,43.7671955 24.138,43.9807409 23.9593333,44.0730136 C24.0493333,44.0512636 24.0126667,44.1178318 23.9846667,44.1784682 C23.9566667,44.2377864 23.9346667,44.2957864 24.068,44.2839227 C24.04,44.3201727 24.0033333,44.2957864 23.9666667,44.3267636 C24.0533333,44.3096273 24.082,44.3280818 24.0693333,44.3920136 L24.0473333,44.3959682 C24.13,44.5185591 24.08,44.6101727 24.0906667,44.7901045 L24.178,44.7406727 C24.1793333,44.7802182 24.154,44.7980136 24.1373333,44.8237182 C24.292,44.8065818 24.1053333,44.7255136 24.2733333,44.6984909 C24.1053333,44.8184455 24.37,44.9403773 24.17,45.0576955 C24.19,45.1124 24.27,45.0003545 24.29,45.0550591 L24.238,45.0919682 L24.318,45.0768091 C24.3186667,45.1176727 24.2546667,45.16315 24.2066667,45.1842409 C24.2093333,45.1730364 24.1826667,45.1644682 24.174,45.1565591 C24.1253333,45.2297182 24.25,45.2778318 24.2346667,45.3028773 L24.2493333,45.2363091 C24.276,45.2686045 24.2973333,45.3048545 24.318,45.3463773 C24.3406667,45.3964682 24.3633333,45.4478773 24.388,45.4992864 C24.4466667,45.6205591 24.5073333,45.7484227 24.6073333,45.7985136 L24.634,45.7517182 C24.7726667,45.8229 24.66,45.90265 24.774,46.0252409 L24.7633333,46.0298545 C24.8093333,46.0193091 24.846,46.0357864 24.864,46.0812636 C24.8093333,46.0951045 24.8466667,46.2611955 24.784,46.2691045 C24.932,46.3185364 24.8766667,46.2677864 25.0146667,46.1676045 L24.9946667,46.2710818 C25.0453333,46.2223091 25.062,46.1840818 25.1106667,46.22165 C25.0493333,46.2460364 25.096,46.3969682 25.0213333,46.4378318 C25.044,46.6052409 25.0993333,46.6124909 25.1433333,46.6151273 C25.1893333,46.6177636 25.2186667,46.6171045 25.2226667,46.8108773 C25.3186667,46.5946955 25.148,46.5399909 25.1866667,46.5175818 C25.1833333,46.4055364 25.2666667,46.3640136 25.2913333,46.4266273 C25.32,46.4674909 25.3013333,46.85965 25.404,46.9763091 C25.3946667,46.9631273 25.3926667,46.9855364 25.382,46.9730136 C25.3993333,47.0310136 25.4186667,47.0349682 25.438,47.0250818 C25.4573333,46.9802636 25.4773333,46.9426955 25.4986667,46.9769682 C25.5213333,46.7634227 25.5566667,46.9136955 25.5546667,46.6777409 L25.4773333,46.8359227 C25.5273333,46.7093773 25.5506667,46.3982864 25.6213333,46.4371727 C25.6213333,46.4872636 25.6053333,46.5716273 25.5933333,46.6236955 C25.618,46.6599455 25.628,46.5281273 25.6573333,46.5643773 C25.6713333,46.7858318 25.566,46.7377182 25.516,46.9802636 C25.5473333,47.0422182 25.612,46.68565 25.5966667,46.9631273 C25.608,46.7831955 25.6306667,46.7660591 25.6586667,46.7489227 C25.686,46.7331045 25.7233333,46.7166273 25.7366667,46.5709682 L25.7513333,46.6961955 C25.76,46.6639 25.7713333,46.5801955 25.79,46.5597636 L25.7826667,46.7574909 C25.812,46.5584455 25.9173333,46.7278318 25.9586667,46.5874455 C25.8446667,46.7383773 25.8966667,46.4892409 25.8313333,46.4661727 C25.91,46.1629909 25.9873333,46.6526955 26.1373333,46.3923545 C26.1193333,46.4345364 26.0306667,46.4378318 26.044,46.3501727 C26.0806667,46.3330364 26.1373333,46.3191955 26.1813333,46.3422636 C26.2793333,46.1873773 26.116,46.2704227 26.1306667,46.1590364 C26.2246667,46.2223091 26.154,46.0529227 26.1693333,45.9711955 L26.228,46.0535818 C26.3793333,45.9599909 26.128,45.8525591 26.268,45.7925818 C26.268,45.7925818 26.282,45.83015 26.2953333,45.8677182 C26.3093333,45.9072636 26.3193333,45.9468091 26.3193333,45.9468091 L26.3473333,45.8532182 L26.4146667,45.9481273 C26.416,45.8116955 26.4466667,45.8084 26.5293333,45.7530364 C26.4613333,45.7260136 26.396,45.6317636 26.4353333,45.5737636 C26.51,45.5724455 26.5026667,45.6429682 26.538,45.56915 C26.5773333,45.6205591 26.6413333,45.6713091 26.5293333,45.6627409 C26.5553333,45.68515 26.566,45.7194227 26.5886667,45.74315 C26.6933333,45.7227182 26.676,45.6515364 26.6933333,45.6251727 C26.684,45.6317636 26.6706667,45.6403318 26.6553333,45.6376955 L26.606,45.4663318 C26.648,45.4722636 26.6646667,45.5006045 26.6806667,45.5289455 C26.6853333,45.5039 26.6553333,45.4643545 26.6686667,45.4320591 C26.7333333,45.4841273 26.8046667,45.5282864 26.808,45.5895818 L26.7953333,45.4491955 C26.8306667,45.4623773 26.9106667,45.4551273 26.928,45.4834682 C27.006,45.4590818 26.8793333,45.2738773 26.9746667,45.2396045 C26.9633333,45.2270818 26.9553333,45.2119227 26.954,45.1908318 C27.01,45.1374455 27.1306667,45.13415 27.0833333,44.9977182 L27.234,45.03265 C27.2426667,44.9555364 27.0406667,44.9931045 27.056,44.8639227 C27.06,44.7690136 27.1786667,44.9047864 27.2286667,44.9008318 C27.1866667,44.8276727 27.0966667,44.6879455 27.2393333,44.6859682 C27.2486667,44.7215591 27.2206667,44.7274909 27.2173333,44.7531955" id="Fill-90" fill="#E74C3C" mask="url(#mask-12)"></path>
                            <path d="M28.1236667,42.9425409 C28.107,42.9385864 28.0896667,42.9300182 28.0736667,42.9207909 C28.0836667,42.9346318 28.1003333,42.9451773 28.1236667,42.9425409" id="Fill-91" fill="#E74C3C" mask="url(#mask-12)"></path>
                            <path d="M26.9765333,45.237825 C26.9758667,45.237825 26.9758667,45.2391432 26.9745333,45.2391432 C26.9798667,45.2437568 26.9832,45.2483705 26.9892,45.2516659 L26.9765333,45.237825 Z" id="Fill-92" fill="#E74C3C" mask="url(#mask-12)"></path>
                            <path d="M29.5598667,40.7242386 C29.5392,40.7295114 29.5192,40.7262159 29.4992,40.7209432 C29.5198667,40.7354432 29.5418667,40.7400568 29.5598667,40.7242386" id="Fill-93" fill="#E74C3C" mask="url(#mask-12)"></path>
                            <path d="M29.6243333,38.8399636 L29.617,38.8953273 C29.6276667,38.8722591 29.6503333,38.8781909 29.671,38.8775318 C29.6503333,38.8650091 29.617,38.8538045 29.6243333,38.8399636" id="Fill-94" fill="#E74C3C" mask="url(#mask-12)"></path>
                            <path d="M30.3828,38.8486636 C30.3768,38.8354818 30.3901333,38.8354818 30.3848,38.8223 L30.3441333,38.7965955 C30.3288,38.8242773 30.3474667,38.8625045 30.3828,38.8486636" id="Fill-95" fill="#E74C3C" mask="url(#mask-12)"></path>
                            <path d="M29.9258,38.9944545 C29.9964667,39.0399318 29.9918,38.99775 29.9978,38.9608409 C29.9971333,38.9628182 29.9964667,38.9647955 29.9951333,38.9654545 C29.9044667,38.889 29.9144667,38.9423864 29.9258,38.9944545" id="Fill-96" fill="#E74C3C" mask="url(#mask-12)"></path>
                            <path d="M30.0006667,38.9532614 C30.004,38.9413977 30.008,38.9315114 30.0173333,38.9255795 C29.9813333,38.8946023 30.0026667,38.9308523 30.0006667,38.9532614" id="Fill-97" fill="#E74C3C" mask="url(#mask-12)"></path>
                            <path d="M29.5384,39.1588977 C29.5657333,39.1582386 29.4550667,39.088375 29.4890667,39.1008977 C29.4117333,39.0244432 29.5310667,39.2643523 29.5384,39.1588977" id="Fill-98" fill="#E74C3C" mask="url(#mask-12)"></path>
                            <polygon id="Fill-99" fill="#E74C3C" mask="url(#mask-12)" points="30.1699333 39.1322045 30.0766 39.0821136 30.1346 39.1453864"></polygon>
                            <path d="M29.9498667,39.3091705 L30.0045333,39.2814886 C29.9898667,39.2709432 29.9845333,39.2597386 29.9845333,39.2485341 C29.9605333,39.2735795 29.9225333,39.2933523 29.9498667,39.3091705" id="Fill-100" fill="#E74C3C" mask="url(#mask-12)"></path>
                            <path d="M29.9843333,39.2486659 C29.9956667,39.234825 30.0036667,39.220325 29.995,39.2031886 C29.9916667,39.2104386 29.981,39.2295523 29.9843333,39.2486659" id="Fill-101" fill="#E74C3C" mask="url(#mask-12)"></path>
                            <polygon id="Fill-102" fill="#E74C3C" mask="url(#mask-12)" points="30.151 39.2107023 30.1243333 39.2113614 30.095 39.2383841"></polygon>
                            <path d="M29.5872,39.7803545 L29.5778667,39.8469227 C29.6038667,39.8713091 29.6312,39.87065 29.6312,39.8436273 C29.6185333,39.8179227 29.6212,39.7922182 29.5872,39.7803545" id="Fill-103" fill="#E74C3C" mask="url(#mask-12)"></path>
                            <path d="M29.929,39.7941955 C29.9016667,39.7948545 29.881,39.7823318 29.8483333,39.7704682 L29.9523333,39.8462636 L29.929,39.7941955 Z" id="Fill-104" fill="#E74C3C" mask="url(#mask-12)"></path>
                            <path d="M29.8515333,39.9538273 C29.8775333,39.9788727 29.8875333,40.0843273 29.9235333,40.0164409 C29.8968667,39.9913955 29.9075333,39.9261455 29.8515333,39.9538273" id="Fill-105" fill="#E74C3C" mask="url(#mask-12)"></path>
                            <polygon id="Fill-106" fill="#E74C3C" mask="url(#mask-12)" points="29.2096 40.6093591 29.2169333 40.5955182 29.0362667 40.4828136"></polygon>
                            <path d="M29.2200667,41.5494205 C29.3000667,41.5164659 29.1180667,41.4670341 29.2054,41.4466023 C29.1700667,41.4057386 29.1334,41.4630795 29.1047333,41.4261705 C29.1274,41.4907614 29.0900667,41.4933977 29.2200667,41.5494205" id="Fill-107" fill="#E74C3C" mask="url(#mask-12)"></path>
                            <path d="M29.1048,41.4258409 C29.1008,41.4159545 29.0968,41.40475 29.0894667,41.39025 C29.0934667,41.4080455 29.0994667,41.4179318 29.1048,41.4258409" id="Fill-108" fill="#E74C3C" mask="url(#mask-12)"></path>
                            <polygon id="Fill-109" fill="#E74C3C" mask="url(#mask-12)" points="24.5996 43.6347841 24.6089333 43.5655795 24.5662667 43.6328068"></polygon>
                            <path d="M24.4147333,43.6332023 L24.5200667,43.5481795 L24.4014,43.5897023 C24.4134,43.5956341 24.4347333,43.6088159 24.4147333,43.6332023" id="Fill-110" fill="#E74C3C" mask="url(#mask-12)"></path>
                            <path d="M27.9212,44.0155409 L27.8958667,43.9957682 C27.8612,43.9839045 27.8525333,43.9918136 27.8365333,44.0069727 L27.9212,44.0155409 Z" id="Fill-111" fill="#E74C3C" mask="url(#mask-12)"></path>
                            <polygon id="Fill-112" fill="#E74C3C" mask="url(#mask-12)" points="27.5012667 44.4979295 27.5092667 44.4900205 27.3939333 44.443225"></polygon>
                            <path d="M27.3554667,45.0286295 C27.3694667,45.0128114 27.3608,44.9765614 27.3761333,44.9607432 C27.3694667,45.0128114 27.2221333,44.9528341 27.3554667,45.0286295" id="Fill-113" fill="#E74C3C" mask="url(#mask-12)"></path>
                            <path d="M31.2851333,49.6892591 C31.3024667,49.6760773 31.2238,49.6371909 31.2118,49.6273045 C31.2104667,49.6642136 31.3051333,49.7004636 31.2851333,49.6892591" id="Fill-114" fill="#E74C3C" mask="url(#mask-12)"></path>
                            <polygon id="Fill-115" fill="#E74C3C" mask="url(#mask-12)" points="31.2747333 50.0683682 31.2474 50.0446409 31.2940667 50.1323"></polygon>
                            <path d="M31.1035333,50.3273909 C31.2455333,50.3834136 31.1448667,50.2199591 31.2195333,50.2028227 L31.2535333,50.2133682 L31.1655333,50.1276864 C31.1448667,50.1935955 31.1642,50.3102545 31.1035333,50.3273909" id="Fill-116" fill="#E74C3C" mask="url(#mask-12)"></path>
                            <path d="M30.7454,50.2875159 C30.7980667,50.3119023 30.7654,50.3448568 30.7807333,50.266425 C30.7734,50.2657659 30.7687333,50.2651068 30.7634,50.2637886 C30.7607333,50.2697205 30.7567333,50.2776295 30.7454,50.2875159" id="Fill-117" fill="#E74C3C" mask="url(#mask-12)"></path>
                            <path d="M30.7636667,50.2639864 C30.779,50.2349864 30.7116667,50.2547591 30.7636667,50.2639864" id="Fill-118" fill="#E74C3C" mask="url(#mask-12)"></path>
                            <path d="M30.7102667,50.4065477 L30.6916,50.3426159 C30.6576,50.3307523 30.6309333,50.357775 30.6176,50.3320705 C30.6176,50.3841386 30.6502667,50.3960023 30.7102667,50.4065477" id="Fill-119" fill="#E74C3C" mask="url(#mask-12)"></path>
                            <path d="M30.7792667,50.5002045 L30.7732667,50.4698864 C30.7586,50.4652727 30.7519333,50.46725 30.7792667,50.5002045" id="Fill-120" fill="#E74C3C" mask="url(#mask-12)"></path>
                            <path d="M30.7597333,50.405625 L30.7737333,50.4695568 C30.7964,50.478125 30.8370667,50.5044886 30.7710667,50.4431932 C30.8057333,50.470875 30.7744,50.4392386 30.7597333,50.405625" id="Fill-121" fill="#E74C3C" mask="url(#mask-12)"></path>
                            <path d="M30.7936,50.3959364 C30.8349333,50.3933 30.8676,50.3788 30.8876,50.4427318 C30.9149333,50.3629818 30.8196,50.3155273 30.7936,50.3959364" id="Fill-122" fill="#E74C3C" mask="url(#mask-12)"></path>
                            <path d="M31.2239333,50.4236182 L31.2779333,50.4203227 L31.2526,50.3695727 C31.2652667,50.3952773 31.1846,50.40055 31.2239333,50.4236182" id="Fill-123" fill="#E74C3C" mask="url(#mask-12)"></path>
                            <path d="M30.4941333,50.5825909 C30.5174667,50.6030227 30.5721333,50.6181818 30.6068,50.6386136 L30.5954667,50.5918182 C30.5681333,50.5931364 30.5334667,50.6069773 30.4941333,50.5825909" id="Fill-124" fill="#E74C3C" mask="url(#mask-12)"></path>
                            <path d="M30.6067333,50.6386136 L30.6240667,50.7078182 C30.6540667,50.6768409 30.6380667,50.65575 30.6067333,50.6386136" id="Fill-125" fill="#E74C3C" mask="url(#mask-12)"></path>
                            <polygon id="Fill-126" fill="#E74C3C" mask="url(#mask-12)" points="30.9120667 50.5993318 30.8600667 50.4708091 30.9054 50.6131727"></polygon>
                            <polygon id="Fill-127" fill="#E74C3C" mask="url(#mask-12)" points="30.3860667 50.7293705 30.3407333 50.6654386 30.4040667 50.7675977"></polygon>
                            <path d="M30.3261333,50.8352205 C30.2874667,50.7838114 30.2254667,50.7983114 30.2074667,50.7607432 C30.1974667,50.7943568 30.2234667,50.8457659 30.2468,50.8925614 C30.2414667,50.8563114 30.2634667,50.8365386 30.3261333,50.8352205" id="Fill-128" fill="#E74C3C" mask="url(#mask-12)"></path>
                            <path d="M30.2792667,50.9665773 C30.2752667,50.9474636 30.2626,50.9211 30.2466,50.8927591 C30.2512667,50.9125318 30.2606,50.9349409 30.2792667,50.9665773" id="Fill-129" fill="#E74C3C" mask="url(#mask-12)"></path>
                            <path d="M30.5650667,50.7654227 C30.5484,50.7575136 30.5017333,50.7357636 30.4684,50.74565 L30.5524,50.7799227 C30.5570667,50.7759682 30.5610667,50.7706955 30.5650667,50.7654227" id="Fill-130" fill="#E74C3C" mask="url(#mask-12)"></path>
                            <path d="M30.556,50.7815045 L30.5526667,50.7801864 C30.5393333,50.7953455 30.53,50.8058909 30.5253333,50.8098455 C30.5293333,50.80655 30.5386667,50.7973227 30.556,50.7815045" id="Fill-131" fill="#E74C3C" mask="url(#mask-12)"></path>
                            <path d="M30.5683333,50.7621932 L30.565,50.7654886 C30.5736667,50.7687841 30.5756667,50.7694432 30.5683333,50.7621932" id="Fill-132" fill="#E74C3C" mask="url(#mask-12)"></path>
                            <path d="M30.7721333,50.6569364 C30.7981333,50.7070273 30.8074667,50.7854591 30.9041333,50.7815045 C30.8648,50.7307545 30.8101333,50.7333909 30.7721333,50.6569364" id="Fill-133" fill="#E74C3C" mask="url(#mask-12)"></path>
                            <path d="M30.6732,50.8056273 L30.7185333,50.7759682 C30.6992,50.7634455 30.6652,50.7509227 30.6545333,50.7258773 L30.6732,50.8056273 Z" id="Fill-134" fill="#E74C3C" mask="url(#mask-12)"></path>
                            <polygon id="Fill-135" fill="#E74C3C" mask="url(#mask-12)" points="30.6822667 50.8420091 30.6729333 50.8057591 30.6562667 50.8169636"></polygon>
                            <path d="M30.3978,50.9427182 C30.4171333,50.9829227 30.4064667,51.0040136 30.3971333,51.0297182 C30.4264667,51.0165364 30.4524667,50.9967636 30.4684667,50.9730364 C30.4484667,50.9545818 30.4138,50.9156955 30.3978,50.9427182" id="Fill-136" fill="#E74C3C" mask="url(#mask-12)"></path>
                            <path d="M30.4811333,50.8690318 L30.4824667,50.8756227 C30.4904667,50.8782591 30.4944667,50.8776 30.4811333,50.8690318" id="Fill-137" fill="#E74C3C" mask="url(#mask-12)"></path>
                            <path d="M30.2415333,51.2468227 C30.2455333,51.2494591 30.2522,51.2514364 30.2562,51.2534136 L30.2455333,51.2435273 L30.2415333,51.2468227 Z" id="Fill-138" fill="#E74C3C" mask="url(#mask-12)"></path>
                            <path d="M30.4856667,50.9791 C30.513,50.9711909 30.5016667,50.9481227 30.4856667,50.9224182 C30.4843333,50.9402136 30.4796667,50.9580091 30.469,50.9731682 C30.477,50.9817364 30.4843333,50.9876682 30.4856667,50.9791" id="Fill-139" fill="#E74C3C" mask="url(#mask-12)"></path>
                            <path d="M30.2708,51.0512045 C30.2928,51.0518636 30.3128,51.0512045 30.3334667,51.0479091 C30.3028,51.0406591 30.2541333,51.0347273 30.2708,51.0512045" id="Fill-140" fill="#E74C3C" mask="url(#mask-12)"></path>
                            <path d="M30.459,50.8677136 C30.4576667,50.8663955 30.4576667,50.8650773 30.4576667,50.8624409 C30.4363333,50.8578273 30.445,50.8624409 30.459,50.8677136" id="Fill-141" fill="#E74C3C" mask="url(#mask-12)"></path>
                            <path d="M30.459,50.8677136 C30.4616667,50.8841909 30.4756667,50.9039636 30.4856667,50.9224182 C30.4876667,50.9072591 30.487,50.8921 30.4823333,50.8756227 C30.4756667,50.8743045 30.4663333,50.8710091 30.459,50.8677136" id="Fill-142" fill="#E74C3C" mask="url(#mask-12)"></path>
                            <path d="M30.6627333,51.6420795 C30.5967333,51.5919886 30.5680667,51.500375 30.6687333,51.5102614 C30.6487333,51.435125 30.4060667,51.3052841 30.2567333,51.2532159 C30.2860667,51.2749659 30.3134,51.2940795 30.3234,51.3632841 C30.3714,51.3751477 30.4760667,51.3323068 30.5114,51.4100795 C30.5080667,51.4891705 30.4574,51.4377614 30.4007333,51.4390795 C30.5020667,51.4759886 30.4747333,51.594625 30.6067333,51.6697614 L30.5967333,51.5919886 C30.6180667,51.6038523 30.6360667,51.6433977 30.6627333,51.6420795" id="Fill-143" fill="#E74C3C" mask="url(#mask-12)"></path>
                            <path d="M30.3196667,51.179925 L30.3236667,51.1575159 C30.2976667,51.1680614 30.261,51.1634477 30.1903333,51.1515841 C30.2023333,51.2023341 30.223,51.2260614 30.2456667,51.2438568 L30.313,51.1674023 L30.3196667,51.179925 Z" id="Fill-144" fill="#E74C3C" mask="url(#mask-12)"></path>
                            <path d="M30.3769333,51.0814568 C30.4409333,51.1453886 30.4436,51.2080023 30.5409333,51.2383205 C30.5722667,51.1855932 30.5036,51.1612068 30.4936,51.1097977 C30.4536,51.2020705 30.4689333,51.0583886 30.3862667,51.0867295 C30.3849333,51.0616841 30.3902667,51.0452068 30.3969333,51.0300477 C30.3769333,51.0379568 30.3576,51.0445477 30.3336,51.0478432 L30.3382667,51.0491614 L30.3382667,51.0485023 L30.3402667,51.0491614 C30.3522667,51.0524568 30.3589333,51.0550932 30.3502667,51.0550932 C30.3509333,51.0564114 30.3509333,51.0583886 30.3509333,51.0583886 C30.3609333,51.0656386 30.3682667,51.0735477 30.3756,51.0807977 C30.3442667,51.0939795 30.3536,51.0715705 30.3509333,51.0583886 L30.3402667,51.0491614 L30.3382667,51.0491614 L30.3236,51.1572523 C30.3456,51.148025 30.3589333,51.1242977 30.3769333,51.0814568" id="Fill-145" fill="#E74C3C" mask="url(#mask-12)"></path>
                            <path d="M31.0325333,50.933425 C31.0252,50.9307886 31.0185333,50.9274932 31.0145333,50.9241977 C31.0185333,50.9347432 31.0232,50.9419932 31.0325333,50.933425" id="Fill-146" fill="#E74C3C" mask="url(#mask-12)"></path>
                            <path d="M30.9654667,50.936325 C30.9588,50.9231432 30.9321333,50.8974386 30.9528,50.8842568 C30.9868,50.8829386 30.9888,50.9079841 31.0141333,50.9238023 C31.0034667,50.8994159 30.9888,50.8480068 30.9274667,50.8592114 L30.9328,50.8717341 C30.8848,50.8868932 30.7628,50.8658023 30.7568,50.8526205 C30.8301333,50.8888705 30.8834667,50.9125977 30.9654667,50.936325" id="Fill-147" fill="#E74C3C" mask="url(#mask-12)"></path>
                            <path d="M30.6862,51.0244455 L30.6755333,51.1167182 L30.7642,51.1266045 L30.7262,51.1022182 C30.7655333,51.0745364 30.7142,51.05015 30.6862,51.0244455" id="Fill-148" fill="#E74C3C" mask="url(#mask-12)"></path>
                            <polygon id="Fill-149" fill="#E74C3C" mask="url(#mask-12)" points="30.1992 51.2294886 30.1278667 51.1662159 30.2098667 51.2815568"></polygon>
                            <polygon id="Fill-150" fill="#E74C3C" mask="url(#mask-12)" points="30.1471333 51.3221568 30.0824667 51.2720659 30.1058 51.3241341"></polygon>
                            <path d="M27.7578,56.9736636 L27.7651333,57.0066182 C27.7651333,56.9927773 27.7611333,56.9828909 27.7578,56.9736636" id="Fill-151" fill="#E74C3C" mask="url(#mask-12)"></path>
                            <path d="M27.8567333,56.8259614 L27.8227333,56.8022341 C27.8380667,56.8200295 27.8507333,56.8318932 27.8567333,56.8259614" id="Fill-152" fill="#E74C3C" mask="url(#mask-12)"></path>
                            <path d="M28.6627333,53.5311659 C28.5787333,53.5212795 28.4554,53.4922795 28.5367333,53.5377568 L28.6207333,53.575325 C28.6194,53.5456659 28.6380667,53.5344614 28.6627333,53.5311659" id="Fill-153" fill="#E74C3C" mask="url(#mask-12)"></path>
                            <path d="M28.1874667,55.3507182 C28.1981333,55.3526955 28.2068,55.3540136 28.2168,55.3559909 C28.1948,55.3329227 28.1734667,55.3111727 28.1541333,55.2907409 C28.1648,55.3098545 28.1748,55.3296273 28.1874667,55.3507182" id="Fill-154" fill="#E74C3C" mask="url(#mask-12)"></path>
                            <path d="M28.4980667,55.561825 L28.4240667,55.5723705 C28.4467333,55.5736886 28.4707333,55.5703932 28.4980667,55.561825" id="Fill-155" fill="#E74C3C" mask="url(#mask-12)"></path>
                            <path d="M27.3274667,57.8455091 L27.3908,57.9193273 C27.4128,57.8811 27.3641333,57.8725318 27.3274667,57.8455091" id="Fill-156" fill="#E74C3C" mask="url(#mask-12)"></path>
                            <path d="M29.5338667,52.2412591 C29.4885333,52.2471909 29.4625333,52.2583955 29.4445333,52.2742136 C29.5098667,52.2722364 29.5918667,52.2920091 29.5338667,52.2412591" id="Fill-157" fill="#E74C3C" mask="url(#mask-12)"></path>
                            <path d="M26.972,56.4175886 C26.9793333,56.4386795 26.9913333,56.4531795 27.0086667,56.463725 C27.0033333,56.4426341 26.9926667,56.4261568 26.972,56.4175886" id="Fill-158" fill="#E74C3C" mask="url(#mask-12)"></path>
                            <path d="M29.3964667,52.3487568 C29.4071333,52.3494159 29.4131333,52.3474386 29.4224667,52.3467795 C29.4224667,52.3197568 29.4258,52.2940523 29.4444667,52.2742795 C29.3984667,52.2762568 29.3604667,52.2887795 29.3964667,52.3487568" id="Fill-159" fill="#E74C3C" mask="url(#mask-12)"></path>
                            <path d="M24.5136667,57.7511932 C24.517,57.7472386 24.5176667,57.7432841 24.5216667,57.7393295 C24.5083333,57.7432841 24.5096667,57.7472386 24.5136667,57.7511932" id="Fill-160" fill="#E74C3C" mask="url(#mask-12)"></path>
                            <path d="M24.9374667,56.4523227 C24.9494667,56.4589136 24.9581333,56.4747318 24.9681333,56.4892318 C24.9694667,56.4793455 24.9614667,56.4674818 24.9374667,56.4523227" id="Fill-161" fill="#E74C3C" mask="url(#mask-12)"></path>
                            <path d="M29.8632667,51.6523614 C29.8719333,51.6299523 29.8572667,51.6431341 29.8632667,51.6523614" id="Fill-162" fill="#E74C3C" mask="url(#mask-12)"></path>
                            <path d="M30.2206667,51.7672409 C30.2266667,51.7771273 30.2346667,51.7876727 30.252,51.7995364 C30.2346667,51.7850364 30.2253333,51.7744909 30.2206667,51.7672409" id="Fill-163" fill="#E74C3C" mask="url(#mask-12)"></path>
                            <path d="M29.7363333,52.8501932 L29.7363333,52.8521705 C29.7536667,52.856125 29.751,52.8548068 29.7363333,52.8501932" id="Fill-164" fill="#E74C3C" mask="url(#mask-12)"></path>
                            <path d="M29.9166667,51.6478136 C29.902,51.6484727 29.8886667,51.6511091 29.8773333,51.6563818 C29.886,51.6570409 29.8986667,51.6544045 29.9166667,51.6478136" id="Fill-165" fill="#E74C3C" mask="url(#mask-12)"></path>
                            <path d="M29.8782667,51.6275795 C29.8869333,51.6229659 29.8922667,51.6196705 29.8976,51.6157159 C29.8869333,51.6045114 29.8776,51.6012159 29.8782667,51.6275795" id="Fill-166" fill="#E74C3C" mask="url(#mask-12)"></path>
                            <path d="M29.8496,51.6806364 C29.8549333,51.6694318 29.8642667,51.6621818 29.8776,51.65625 C29.8702667,51.6569091 29.8642667,51.6549318 29.8636,51.6522955 C29.8609333,51.6588864 29.8576,51.6674545 29.8496,51.6806364" id="Fill-167" fill="#E74C3C" mask="url(#mask-12)"></path>
                            <path d="M25.9316,59.218725 C25.9296,59.2160886 25.9282667,59.2154295 25.9269333,59.211475 C25.9122667,59.2859523 25.9182667,59.2674977 25.9316,59.218725" id="Fill-168" fill="#E74C3C" mask="url(#mask-12)"></path>
                            <path d="M29.1562667,54.5217136 C29.1562667,54.5203955 29.1549333,54.5190773 29.1542667,54.5177591 L29.1502667,54.5190773 L29.1562667,54.5217136 Z" id="Fill-169" fill="#E74C3C" mask="url(#mask-12)"></path>
                            <path d="M29.1725333,54.6253227 C29.0938667,54.5376636 29.1165333,54.5290955 29.1505333,54.5192091 L28.9112,54.4065045 L29.1725333,54.6253227 Z" id="Fill-170" fill="#E74C3C" mask="url(#mask-12)"></path>
                            <path d="M25.8098667,58.2499932 L25.8118667,58.3033795 C25.7958667,58.3402886 25.8032,58.2981068 25.8098667,58.2499932 M29.8645333,51.8647205 C29.8592,51.8502205 29.8465333,51.8429705 29.8332,51.8376977 C29.8512,51.8561523 29.8432,51.8713114 29.8252,51.8838341 C29.8505333,51.8943795 29.8705333,51.8970159 29.8645333,51.8647205 M29.7838667,51.9029477 L29.7878667,51.9062432 C29.7332,51.9148114 29.7538667,51.9128341 29.7838667,51.9029477 M28.4198667,55.3401068 C28.4405333,55.3677886 28.4185333,55.3756977 28.3745333,55.3750386 C28.3752,55.3579023 28.3865333,55.3440614 28.4198667,55.3401068 M27.9572,56.5798568 C27.9665333,56.6049023 28.0045333,56.6668568 27.9465333,56.646425 C27.8578667,56.5719477 27.9132,56.5871068 27.9572,56.5798568 M27.5558667,57.3470386 L27.6552,57.3404477 C27.7332,57.4702886 27.6652,57.4887432 27.7925333,57.5039023 C27.5558667,57.3470386 27.8872,57.2962886 27.6505333,57.1414023 L27.7218667,57.1400841 C27.7132,57.1486523 27.7258667,57.1585386 27.7178667,57.1657886 C27.8738667,57.1736977 27.5725333,57.0122205 27.6572,56.9522432 C27.6932,56.9351068 27.7405333,56.9377432 27.7578667,56.9733341 L27.7372,56.8744705 C27.7525333,56.8593114 27.7925333,56.8889705 27.7765333,56.9041295 L27.8172,56.7966977 L27.8232,56.8019705 C27.7938667,56.7650614 27.7538667,56.6991523 27.7372,56.668175 C27.7885333,56.6655386 27.7558667,56.6958568 27.7905333,56.7083795 L27.7652,56.6200614 C27.8418667,56.6365386 27.8765333,56.7162886 27.8432,56.747925 C28.1178667,56.8441523 27.8105333,56.6668568 28.0185333,56.6444477 L28.0185333,56.7136523 C28.1772,56.7637432 28.1518667,56.6938795 28.2718667,56.6879477 C28.2185333,56.675425 27.9852,56.6727886 27.9605333,56.5791977 C27.9892,56.573925 28.0105333,56.5574477 27.9805333,56.4974705 C28.0678667,56.5488795 28.0658667,56.5060386 28.0838667,56.4645159 L28.1978667,56.5356977 C28.1892,56.4744023 28.1292,56.443425 28.0912,56.3880614 C28.1298667,56.349175 28.2245333,56.3920159 28.3072,56.4249705 C28.3685333,56.3630159 28.1332,56.3920159 28.1638667,56.2924932 C28.2438667,56.2569023 28.2232,56.1863795 28.1978667,56.0730159 C28.2625333,56.0532432 28.2645333,56.1217886 28.3065333,56.1257432 L28.2372,56.0341295 C28.2438667,56.0255614 28.2705333,56.0453341 28.2845333,56.0552205 C28.2672,56.0024932 28.1705333,55.9846977 28.1705333,55.9161523 C28.0512,55.8284932 28.4172,55.9220841 28.3092,55.7757659 C28.3518667,55.7797205 28.3758667,55.8245386 28.4232,55.8456295 C28.3792,55.7052432 28.3978667,55.7322659 28.3125333,55.5872659 L28.4238667,55.5721068 C28.3118667,55.5655159 28.2425333,55.4488568 28.1872,55.3506523 C28.1358667,55.341425 28.0918667,55.3335159 28.0698667,55.3321977 L28.0552,55.2175159 C28.0792,55.2194932 28.1138667,55.2504705 28.1545333,55.290675 C28.1472,55.2807886 28.1418667,55.2702432 28.1352,55.2610159 C28.1945333,55.2577205 28.2525333,55.3117659 28.3038667,55.3691068 C28.2765333,55.3644932 28.2465333,55.3605386 28.2165333,55.355925 C28.2752,55.4159023 28.3425333,55.4798341 28.4112,55.515425 C28.4018667,55.5029023 28.3958667,55.4857659 28.3958667,55.4712659 C28.4112,55.4877432 28.4265333,55.5002659 28.4392,55.5042205 C28.4538667,55.5094932 28.4332,55.486425 28.4112,55.4561068 L28.5485333,55.5134477 L28.5012,55.4798341 L28.6432,55.4238114 C28.5572,55.2755159 28.4058667,55.1001977 28.4218667,54.9532205 C28.4992,55.036925 28.5718667,55.0487886 28.6838667,55.1160159 C28.5458667,55.0784477 28.6792,55.2353114 28.6192,55.2814477 C28.6505333,55.2577205 28.6992,55.2952886 28.7125333,55.3144023 L28.6698667,55.1443568 C28.7598667,55.1997205 28.7518667,55.1608341 28.8058667,55.1549023 C28.6138667,55.0705386 28.7338667,55.0046295 28.7052,54.9288341 C28.7678667,54.9611295 28.8232,55.007925 28.7765333,55.0527432 C28.9472,55.0738341 28.6105333,54.8523795 28.7598667,54.8622659 C28.7538667,54.8761068 28.7405333,54.8767659 28.7678667,54.9004932 C28.7318667,54.8385386 28.8198667,54.790425 28.8625333,54.8391977 L28.8558667,54.8523795 C28.9298667,54.7798795 29.0178667,54.5940159 28.8732,54.4898795 C28.8912,54.5010841 29.0492,54.6104932 29.0765333,54.6342205 L28.6592,54.1754932 C28.7812,54.2671068 29.1232,54.4028795 29.1545333,54.5175614 C29.1852,54.5083341 29.2232,54.4958114 29.2032,54.4259477 C29.1752,54.4285841 28.9932,54.3468568 28.9912,54.3204932 C29.1698667,54.355425 29.0918667,54.3310386 29.2552,54.3422432 C29.2145333,54.3455386 29.0252,54.1992205 29.0512,54.1708795 C29.0778667,54.1939477 29.2552,54.2895159 29.2685333,54.3145614 L29.1192,54.1109023 C29.1432,54.1537432 29.2872,54.217675 29.3538667,54.2341523 C29.3098667,54.2183341 29.4025333,54.1662659 29.3958667,54.1319932 L29.3265333,54.137925 C29.4145333,54.0647659 29.1025333,53.8756068 29.1698667,53.789925 C29.2032,53.826175 29.4072,53.9731523 29.4612,53.942175 C29.3718667,53.8578114 29.0265333,53.5440841 28.9978667,53.4142432 L29.0665333,53.4340159 L29.0392,53.3298795 C29.1685333,53.4649932 29.4245333,53.7747659 29.5138667,53.9111977 C29.5818667,53.905925 29.5898667,53.9441523 29.6165333,53.8894477 C29.6825333,53.9052659 29.6825333,53.9685386 29.6752,53.985675 L29.7838667,53.8874705 C29.6625333,53.8195841 29.7212,53.7220386 29.6192,53.6640386 L29.6632,53.8723114 C29.5405333,53.8031068 29.3705333,53.5862659 29.4438667,53.5137659 C29.5052,53.5223341 29.6472,53.6627205 29.6865333,53.6851295 C29.6532,53.6482205 29.6592,53.5559477 29.6918667,53.5664932 L29.7345333,53.6422886 C29.8078667,53.6225159 29.6232,53.4649932 29.7725333,53.4808114 C29.7938667,53.4669705 29.9638667,53.5210159 29.8965333,53.4729023 C29.7405333,53.4181977 29.3178667,53.1604932 29.2298667,53.0748114 C29.2438667,53.0734932 29.4278667,53.0543795 29.5092,53.0748114 C29.6358667,53.1117205 29.7298667,53.2844023 29.8392,53.3147205 C29.8072,53.2929705 29.7785333,53.2514477 29.7712,53.2356295 C29.8132,53.2323341 29.8645333,53.3074705 29.8792,53.2547432 C29.7658667,53.1703795 29.9498667,53.1730159 29.7918667,53.1697205 C29.7878667,53.1044705 29.8498667,53.1400614 29.8765333,53.0860159 C29.7892,53.0524023 29.6452,52.8704932 29.6405333,52.8052432 C29.6698667,52.8269932 29.7158667,52.8428114 29.7365333,52.8500614 C29.8072,52.7696523 29.8925333,52.7577886 29.9498667,52.6767205 C29.9832,52.6885841 30.0432,52.6727659 30.0832,52.7235159 C30.0705333,52.6978114 30.0392,52.6595841 30.0512,52.6332205 C30.1858667,52.6529932 30.0298667,52.6997886 30.1772,52.7446068 C30.1112,52.695175 30.1265333,52.6167432 30.1085333,52.5508341 C29.9952,52.4901977 30.0318667,52.6200386 30.0505333,52.6846295 C29.9052,52.5877432 29.7952,52.4203341 29.7865333,52.2878568 C29.7985333,52.1955841 29.9018667,52.3221295 29.8885333,52.2970841 C30.0052,52.1883341 29.7125333,52.0149932 29.8925333,51.9820386 C30.0152,52.0037886 30.0765333,52.1072659 30.1498667,52.144175 C30.1472,52.2226068 30.0318667,52.1870159 30.0098667,52.2272205 L30.0852,52.2114023 C30.1032,52.2502886 30.1012,52.3023568 30.0598667,52.303675 C30.1665333,52.3267432 30.2278667,52.1026523 30.3745333,52.0578341 C30.3552,52.0189477 30.3458667,51.9668795 30.2972,51.955675 L30.2892,51.9945614 C30.1945333,51.9721523 30.2272,51.8653795 30.1645333,51.8811977 C30.1418667,51.8027659 30.0938667,51.6992886 30.1772,51.6702886 L30.2905333,51.7322432 C30.2578667,51.7131295 30.2005333,51.7276295 30.2198667,51.7658568 C30.1912,51.7098341 30.4265333,51.7757432 30.3078667,51.6531523 L30.2072,51.6432659 C30.1838667,51.5648341 30.1085333,51.4356523 30.1792,51.4066523 C30.0578667,51.3572205 30.1832,51.4270841 30.0358667,51.3789705 C30.2092,51.4527886 29.9338667,51.5068341 30.1292,51.5661523 C29.9605333,51.5068341 30.0225333,51.5905386 29.8665333,51.5556068 C29.9038667,51.578675 29.9458667,51.5839477 29.8978667,51.6162432 C29.9072,51.6248114 29.9158667,51.6386523 29.9212,51.6465614 C29.9205333,51.6472205 29.9178667,51.6472205 29.9165333,51.6478795 L29.9225333,51.6478795 C29.9265333,51.6538114 29.9278667,51.6551295 29.9238667,51.6478795 C29.9478667,51.6485386 29.9705333,51.6524932 29.9932,51.6630386 C30.0558667,51.7401523 30.0052,51.8073795 30.0298667,51.8594477 C29.9945333,51.8739477 29.9972,51.8205614 29.9512,51.8093568 L29.9872,51.8871295 C29.9078667,51.8376977 29.8098667,51.8660386 29.8085333,51.7737659 L29.7658667,51.8264932 C29.6998667,51.8291295 29.6518667,51.861425 29.6638667,51.9108568 C29.6292,51.9260159 29.7032,52.035425 29.6578667,51.9708341 L29.6452,52.0901295 L29.6245333,52.0776068 C29.5545333,52.1540614 29.6298667,52.3425614 29.4225333,52.3465159 C29.4225333,52.3900159 29.4258667,52.4361523 29.3705333,52.470425 L29.2972,52.4354932 C29.2952,52.4888795 29.1525333,52.5046977 29.2112,52.5673114 C29.0005333,52.4888795 29.0472,52.7261523 28.9685333,52.7709705 L29.0558667,52.8316068 C29.0198667,52.8737886 29.0152,52.9337659 29.0138667,53.0135159 L29.0952,53.0596523 C29.1285333,53.1499477 28.9598667,53.151925 28.9192,53.2356295 C28.8912,53.2112432 28.9118667,53.1960841 28.9398667,53.1934477 C28.7012,53.1756523 28.9472,53.4722432 28.7638667,53.4761977 C28.7798667,53.5157432 28.7612,53.5249705 28.7312,53.5269477 C28.7325333,53.5256295 28.7318667,53.5229932 28.7312,53.5190386 C28.7278667,53.521675 28.7258667,53.5249705 28.7232,53.5276068 C28.7052,53.528925 28.6832,53.5282659 28.6625333,53.5309023 C28.6885333,53.5341977 28.7098667,53.536175 28.7205333,53.5328795 C28.7125333,53.5500159 28.7072,53.5809932 28.7118667,53.6172432 L28.6205333,53.5750614 C28.6205333,53.5783568 28.6192,53.5803341 28.6192,53.5829705 C28.5732,53.586925 28.6478667,53.6271295 28.7198667,53.6534932 C28.7272,53.6745841 28.7372,53.695675 28.7518667,53.7167659 C28.6012,53.6515159 28.7598667,53.8090386 28.5952,53.7457659 C28.6565333,53.8057432 28.5745333,53.9013114 28.7172,54.0061068 C28.6978667,53.9942432 28.6845333,53.9955614 28.6905333,53.9823795 C28.6565333,53.9981977 28.6218667,54.0153341 28.6518667,54.065425 L28.5332,54.0107205 L28.6445333,54.1583568 C28.5558667,54.1544023 28.5085333,54.1458341 28.4452,54.0594932 C28.5218667,54.2242659 28.4512,54.1590159 28.5345333,54.3086295 L28.4658667,54.2631523 C28.4518667,54.2908341 28.5218667,54.3890386 28.4538667,54.369925 C28.2818667,54.3488341 28.2552,54.6480614 28.0425333,54.725175 C28.2685333,54.8187659 27.9065333,54.7403341 28.0645333,54.8418341 C28.0098667,54.8214023 27.9685333,54.8260159 27.9412,54.775925 C27.9432,54.8813795 27.7938667,54.8451295 27.8992,54.978925 C27.8432,54.9584932 27.8352,54.9196068 27.8018667,54.9103795 C27.8092,54.9229023 27.8298667,54.9598114 27.7958667,54.9505841 C27.7612,54.9413568 27.7612,54.9149932 27.7452,54.8899477 C27.7085333,54.9729932 27.8565333,55.0711977 27.9965333,55.1608341 C27.9045333,55.1608341 27.9025333,55.1865386 27.9798667,55.2702432 C27.9238667,55.2564023 27.8612,55.2504705 27.8738667,55.1924705 C27.8492,55.2155386 27.7045333,55.3190159 27.8172,55.3901977 C27.7838667,55.3816295 27.7872,55.4231523 27.7958667,55.4383114 C27.7518667,55.4956523 27.7372,55.4943341 27.7132,55.5622205 L27.7405333,55.5562886 C27.8665333,55.6617432 27.7418667,55.6248341 27.7298667,55.6834932 L27.7165333,55.6736068 C27.5498667,55.7263341 27.7352,55.7507205 27.5558667,55.7935614 L27.6452,55.8377205 C27.8245333,55.957675 27.4772,55.8713341 27.5112,55.9767886 L27.5738667,55.9833795 C27.6165333,56.0552205 27.2632,55.9319705 27.2192,55.9530614 C27.1978667,55.9510841 27.1992,55.9260386 27.1952,55.9082432 C27.0292,55.9339477 27.2998667,55.986675 27.2845333,56.0690614 C27.2152,56.0459932 27.1385333,55.9622886 27.1012,56.0005159 C27.0365333,55.9932659 27.2152,56.2483341 27.0618667,56.240425 C27.1152,56.254925 27.1712,56.2700841 27.1878667,56.3221523 C27.1738667,56.3801523 26.9312,56.3452205 27.0505333,56.4763795 C27.0338667,56.4750614 27.0192,56.4697886 27.0085333,56.4638568 C27.0225333,56.5225159 26.9978667,56.6200614 27.0632,56.6912432 C26.7472,56.5442659 27.0645333,57.0069477 26.7938667,56.8388795 L26.7378667,56.9601523 L26.7125333,56.9397205 C26.6492,57.0003568 26.6985333,57.066925 26.7472,57.1328341 C26.7192,57.1381068 26.7012,57.110425 26.6872,57.0998795 C26.5685333,57.1710614 26.5732,57.1875386 26.6532,57.3615386 L26.5592,57.3147432 C26.5952,57.3720841 26.3272,57.3806523 26.3585333,57.5427886 C26.3492,57.5355386 26.3338667,57.5216977 26.3272,57.5065386 C26.3405333,57.5948568 26.2332,57.6225386 26.1585333,57.6574705 C26.1252,57.6713114 26.0872,57.704925 26.0998667,57.7167886 C26.1065333,57.7345841 26.1372,57.7688568 26.2065333,57.8347659 C26.2092,57.8321295 26.2438667,57.9428568 26.2425333,57.9454932 C26.3132,57.8947432 26.3532,58.0733568 26.4198667,58.0852205 C26.4072,58.1425614 26.2792,58.0885159 26.2938667,58.0344705 L26.3118667,58.0430386 C26.1845333,57.8822205 26.2025333,58.0773114 26.1238667,57.9573568 C26.0872,58.016675 26.0365333,58.0469932 25.9932,58.060175 C25.9498667,58.074675 25.9158667,58.0726977 25.8892,58.1043341 L25.9145333,58.3343568 L25.8845333,58.3594023 C25.8765333,58.3106295 25.8705333,58.1728795 25.8845333,58.1623341 C25.8725333,58.0305159 25.8665333,58.3178795 25.8632,58.3798341 C25.8292,58.3198568 25.8712,58.0562205 25.8612,58.0654477 L25.8518667,58.0997205 L25.8538667,58.1274023 C25.8452,58.2473568 25.8405333,58.3725841 25.8192,58.3831295 C25.8078667,58.3086523 25.8212,58.2031977 25.8158667,58.1860614 C25.8172,58.1669477 25.8158667,58.1564023 25.8092,58.1695841 L25.7838667,58.1148795 L25.7752,58.3350159 C25.7472,58.4180614 25.7392,58.2822886 25.7312,58.5334023 C25.7372,58.3369932 25.7092,58.2717432 25.6798667,58.2295614 C25.6545333,58.1860614 25.6198667,58.1669477 25.6292,58.1148795 C25.5698667,58.1972659 25.5418667,58.1570614 25.5278667,58.103675 C25.5178667,58.1405841 25.4412,58.3000841 25.4278667,58.2335159 C25.6118667,57.958675 25.4678667,58.0324932 25.5992,57.8334477 C25.5145333,57.9698795 25.5352,57.7787432 25.4065333,57.9547205 C25.4078667,57.9066068 25.4865333,57.8769477 25.5278667,57.8103795 C25.4732,57.8182886 25.4705333,57.7668795 25.4812,57.7227205 C25.4972,57.6910841 25.4938667,57.5955159 25.4505333,57.5355386 C25.4165333,57.5460841 25.3732,57.5909023 25.3098667,57.5790386 L25.4525333,57.4379932 C25.4238667,57.4169023 25.2438667,57.4887432 25.3418667,57.3925159 C25.3165333,57.4109705 25.2772,57.4379932 25.2585333,57.4234932 C25.2898667,57.2541068 25.1932,57.1203114 25.1172,56.9805841 C25.0438667,56.8408568 24.9692,56.6951977 25.0498667,56.4691295 C25.0045333,56.5422886 24.9892,56.5185614 24.9678667,56.4895614 C24.9652,56.5172432 24.8878667,56.530425 24.8458667,56.5574477 C24.8458667,56.5574477 24.8578667,56.5113114 24.8712,56.4645159 C24.8818667,56.4170614 24.8932,56.3689477 24.8932,56.3689477 C24.7618667,56.4170614 24.8065333,56.2417432 24.6865333,56.3004023 L24.7292,56.3254477 C24.5705333,56.3603795 24.4772,56.5752432 24.2985333,56.6668568 C24.3878667,56.646425 24.3518667,56.711675 24.3238667,56.7723114 C24.2952,56.8329477 24.2732,56.8902886 24.4065333,56.8777659 C24.3792,56.9140159 24.3418667,56.8902886 24.3038667,56.9206068 C24.3918667,56.9041295 24.4192,56.921925 24.4072,56.9865159 L24.3845333,56.9904705 C24.4692,57.1130614 24.4178667,57.204675 24.4292,57.3846068 L24.5172,57.335175 C24.5185333,57.3740614 24.4912,57.393175 24.4758667,57.4182205 C24.6312,57.400425 24.4452,57.3193568 24.6132,57.2923341 C24.4452,57.4129477 24.7098667,57.5348795 24.5085333,57.6515386 C24.5278667,57.7069023 24.6085333,57.5948568 24.6285333,57.6502205 L24.5772,57.6864705 L24.6572,57.6713114 C24.6578667,57.712175 24.5932,57.7569932 24.5452,57.7780841 C24.5478667,57.7668795 24.5225333,57.7583114 24.5138667,57.7510614 C24.4638667,57.8242205 24.5892,57.8723341 24.5725333,57.8967205 L24.5885333,57.8308114 C24.6158667,57.8631068 24.6365333,57.8986977 24.6572,57.9402205 C24.6805333,57.9903114 24.7032,58.0423795 24.7265333,58.0931295 C24.7852,58.2150614 24.8465333,58.3435841 24.9465333,58.3930159 L24.9725333,58.3455614 C25.1118667,58.4180614 24.9985333,58.4971523 25.1125333,58.6197432 L25.1025333,58.6243568 C25.1492,58.6138114 25.1838667,58.6302886 25.2025333,58.6757659 C25.1492,58.6896068 25.1852,58.8556977 25.1232,58.8629477 C25.2698667,58.9130386 25.2138667,58.8622886 25.3538667,58.7621068 L25.3325333,58.8655841 C25.3838667,58.8168114 25.4005333,58.777925 25.4478667,58.8161523 C25.3878667,58.8405386 25.4352,58.9914705 25.3598667,59.0323341 C25.3818667,59.1997432 25.4378667,59.2069932 25.4818667,59.2089705 C25.5278667,59.2122659 25.5578667,59.2116068 25.5605333,59.4053795 C25.6572,59.1891977 25.4865333,59.1344932 25.5252,59.1120841 C25.5225333,58.9993795 25.6052,58.9585159 25.6305333,59.0211295 C25.6585333,59.0613341 25.6392,59.4541523 25.7425333,59.5708114 C25.7332,59.5576295 25.7318667,59.5800386 25.7212,59.5675159 C25.7378667,59.6255159 25.7578667,59.6301295 25.7765333,59.6202432 C25.7958667,59.5747659 25.8158667,59.5371977 25.8372,59.5714705 C25.8585333,59.3572659 25.8938667,59.5081977 25.8932,59.2722432 L25.8158667,59.4297659 C25.8665333,59.3032205 25.8892,58.9927886 25.9598667,59.0310159 C25.9598667,59.0817659 25.9452,59.1661295 25.9318667,59.2188568 C25.9565333,59.2544477 25.9665333,59.1226295 25.9952,59.1575614 C26.0098667,59.379675 25.9038667,59.3315614 25.8558667,59.5747659 C25.8845333,59.6360614 25.9498667,59.2801523 25.9352,59.5576295 C25.9472,59.3783568 25.9692,59.3605614 25.9965333,59.343425 C26.0252,59.3269477 26.0612,59.3111295 26.0745333,59.1654705 L26.0905333,59.2906977 C26.0985333,59.2584023 26.1098667,59.1746977 26.1285333,59.1542659 L26.1225333,59.3513341 C26.1512,59.1536068 26.2565333,59.321675 26.2985333,59.1819477 C26.1818667,59.3322205 26.2345333,59.0837432 26.1692,59.060675 C26.2478667,58.7568341 26.3245333,59.2465386 26.4758667,58.9861977 C26.4578667,59.0290386 26.3692,59.0323341 26.3832,58.9440159 C26.4198667,58.9268795 26.4758667,58.9130386 26.5205333,58.9367659 C26.6172,58.7818795 26.4552,58.864925 26.4692,58.7528795 C26.5645333,58.8168114 26.4918667,58.6467659 26.5078667,58.5650386 L26.5678667,58.647425 C26.7172,58.5538341 26.4665333,58.4464023 26.6058667,58.386425 C26.6058667,58.386425 26.6205333,58.4246523 26.6338667,58.4628795 C26.6465333,58.5017659 26.6578667,58.5406523 26.6578667,58.5406523 L26.6865333,58.4477205 L26.7545333,58.5426295 C26.7558667,58.4061977 26.7845333,58.4029023 26.8678667,58.3468795 C26.8005333,58.3205159 26.7345333,58.2256068 26.7732,58.1676068 C26.8485333,58.1662886 26.8418667,58.2374705 26.8765333,58.1636523 C26.9165333,58.2163795 26.9798667,58.2651523 26.8685333,58.2565841 C26.8932,58.2789932 26.9045333,58.313925 26.9278667,58.3369932 C27.0325333,58.3172205 27.0138667,58.2460386 27.0325333,58.2190159 C27.0225333,58.2256068 27.0105333,58.234175 26.9938667,58.2321977 L26.9445333,58.0608341 C26.9865333,58.0661068 27.0032,58.0944477 27.0192,58.1227886 C27.0238667,58.0977432 26.9938667,58.0588568 27.0085333,58.0259023 C27.0712,58.0779705 27.1432,58.1227886 27.1465333,58.183425 L27.1345333,58.0430386 C27.1685333,58.0568795 27.2492,58.0489705 27.2672,58.0779705 C27.3445333,58.052925 27.2192,57.8683795 27.3132,57.8341068 C27.3018667,57.8222432 27.2932,57.806425 27.2925333,57.784675 C27.3478667,57.7306295 27.4685333,57.7279932 27.4218667,57.5922205 L27.5725333,57.6271523 C27.5805333,57.5500386 27.3792,57.5876068 27.3938667,57.4590841 C27.3992,57.3635159 27.5172,57.4992886 27.5665333,57.4953341 C27.5252,57.422175 27.4352,57.2817886 27.5778667,57.2804705 C27.5872,57.3160614 27.5592,57.3213341 27.5558667,57.3470386" id="Fill-171" fill="#E74C3C" mask="url(#mask-12)"></path>
                            <path d="M28.4628667,55.5363841 C28.4455333,55.5324295 28.4288667,55.5238614 28.4115333,55.5152932 C28.4222,55.5291341 28.4395333,55.5383614 28.4628667,55.5363841" id="Fill-172" fill="#E74C3C" mask="url(#mask-12)"></path>
                            <path d="M27.3150667,57.8322614 C27.3144,57.8322614 27.3144,57.8329205 27.3130667,57.8335795 C27.3170667,57.8375341 27.3224,57.8421477 27.3277333,57.8454432 L27.3150667,57.8322614 Z" id="Fill-173" fill="#E74C3C" mask="url(#mask-12)"></path>
                            <path d="M29.8984,53.3184114 C29.8777333,53.3236841 29.8590667,53.3203886 29.8390667,53.3151159 C29.8590667,53.3296159 29.8797333,53.3348886 29.8984,53.3184114" id="Fill-174" fill="#E74C3C" mask="url(#mask-12)"></path>
                            <path d="M29.9628667,51.4341364 L29.9548667,51.4895 C29.9662,51.4664318 29.9882,51.4723636 30.0095333,51.4717045 C29.9882,51.4598409 29.9548667,51.4479773 29.9628667,51.4341364" id="Fill-175" fill="#E74C3C" mask="url(#mask-12)"></path>
                            <path d="M30.7213333,51.4425068 C30.716,51.4299841 30.7293333,51.429325 30.7226667,51.4168023 L30.6833333,51.3917568 C30.6673333,51.4181205 30.686,51.4570068 30.7213333,51.4425068" id="Fill-176" fill="#E74C3C" mask="url(#mask-12)"></path>
                            <path d="M30.2636667,51.5886273 C30.3343333,51.6341045 30.3296667,51.5925818 30.3363333,51.5550136 C30.3363333,51.5569909 30.3343333,51.5589682 30.333,51.5602864 C30.243,51.4838318 30.2523333,51.5365591 30.2636667,51.5886273" id="Fill-177" fill="#E74C3C" mask="url(#mask-12)"></path>
                            <path d="M30.3392,51.5471045 C30.3425333,51.5359 30.3472,51.5253545 30.3572,51.5200818 C30.3198667,51.4891045 30.3405333,51.5246955 30.3392,51.5471045" id="Fill-178" fill="#E74C3C" mask="url(#mask-12)"></path>
                            <path d="M29.8762667,51.7534 C29.9042667,51.7520818 29.7936,51.6828773 29.8276,51.6954 C29.7496,51.6182864 29.8702667,51.8581955 29.8762667,51.7534" id="Fill-179" fill="#E74C3C" mask="url(#mask-12)"></path>
                            <polygon id="Fill-180" fill="#E74C3C" mask="url(#mask-12)" points="30.5078 51.7257182 30.4158 51.6756273 30.4744667 51.7395591"></polygon>
                            <path d="M30.2877333,51.9033432 L30.3424,51.8756614 C30.3284,51.865775 30.3237333,51.8545705 30.3224,51.8433659 C30.2990667,51.8684114 30.2617333,51.887525 30.2877333,51.9033432" id="Fill-181" fill="#E74C3C" mask="url(#mask-12)"></path>
                            <path d="M30.3222667,51.8431682 C30.3349333,51.8293273 30.3422667,51.8141682 30.3336,51.7963727 C30.3289333,51.8056 30.3196,51.8240545 30.3222667,51.8431682" id="Fill-182" fill="#E74C3C" mask="url(#mask-12)"></path>
                            <polygon id="Fill-183" fill="#E74C3C" mask="url(#mask-12)" points="30.4902 51.8055341 30.4628667 51.8061932 30.4335333 51.8332159"></polygon>
                            <path d="M29.9264,52.3741977 L29.9164,52.4407659 C29.9417333,52.4664705 29.9697333,52.4644932 29.9697333,52.4374705 C29.9577333,52.412425 29.9604,52.3867205 29.9264,52.3741977" id="Fill-184" fill="#E74C3C" mask="url(#mask-12)"></path>
                            <path d="M30.2676,52.3886977 C30.2396,52.3893568 30.2202667,52.3774932 30.1862667,52.3649705 L30.2922667,52.4401068 L30.2676,52.3886977 Z" id="Fill-185" fill="#E74C3C" mask="url(#mask-12)"></path>
                            <path d="M30.1900667,52.5483295 C30.2174,52.573375 30.2267333,52.6781705 30.2620667,52.6109432 C30.2360667,52.5858977 30.2454,52.5199886 30.1900667,52.5483295" id="Fill-186" fill="#E74C3C" mask="url(#mask-12)"></path>
                            <polygon id="Fill-187" fill="#E74C3C" mask="url(#mask-12)" points="29.5488 53.2035318 29.5554667 53.1896909 29.3748 53.0776455"></polygon>
                            <path d="M29.5579333,54.1439227 C29.6392667,54.1109682 29.4559333,54.0615364 29.5432667,54.0404455 C29.5092667,54.0002409 29.4719333,54.0569227 29.4432667,54.0206727 C29.4659333,54.0846045 29.4279333,54.0879 29.5579333,54.1439227" id="Fill-188" fill="#E74C3C" mask="url(#mask-12)"></path>
                            <path d="M29.4433333,54.0203432 C29.4393333,54.0097977 29.4353333,53.9985932 29.428,53.9847523 C29.4313333,54.0025477 29.4366667,54.0124341 29.4433333,54.0203432" id="Fill-189" fill="#E74C3C" mask="url(#mask-12)"></path>
                            <polygon id="Fill-190" fill="#E74C3C" mask="url(#mask-12)" points="24.9374667 56.2292864 24.9468 56.1594227 24.9048 56.2273091"></polygon>
                            <path d="M24.7526,56.227375 L24.8586,56.1423523 L24.7399333,56.183875 C24.7519333,56.1898068 24.7726,56.2029886 24.7526,56.227375" id="Fill-191" fill="#E74C3C" mask="url(#mask-12)"></path>
                            <path d="M28.2610667,56.6097136 L28.2344,56.5899409 C28.1997333,56.5780773 28.1910667,56.5866455 28.1750667,56.6018045 L28.2610667,56.6097136 Z" id="Fill-192" fill="#E74C3C" mask="url(#mask-12)"></path>
                            <polygon id="Fill-193" fill="#E74C3C" mask="url(#mask-12)" points="27.8404667 57.0924318 27.8478 57.0838636 27.7331333 57.0377273"></polygon>
                            <path d="M27.6933333,57.6233955 C27.7086667,57.6069182 27.6993333,57.5706682 27.7153333,57.5555091 C27.7086667,57.6069182 27.5613333,57.5476 27.6933333,57.6233955" id="Fill-194" fill="#E74C3C" mask="url(#mask-12)"></path>
                            <polygon id="Fill-195" fill="#545454" mask="url(#mask-12)" points="25.9193333 33.8634318 63.1546667 33.8634318 63.1546667 27.1321364 25.9193333 27.1321364"></polygon>
                        </g>
                    </g>
                </g>
            </g>
        </g>
    </g>
</svg>