<?xml version="1.0" encoding="UTF-8"?>
<svg width="168px" height="167px" viewBox="0 0 168 167" version="1.1" xmlns="http://www.w3.org/2000/svg" xmlns:xlink="http://www.w3.org/1999/xlink">
    <!-- Generator: Sketch 46.2 (44496) - http://www.bohemiancoding.com/sketch -->
    <title>Page 1</title>
    <desc>Created with Sketch.</desc>
    <defs>
        <path d="M90.5670997,0.29327619 C40.790972,0.29327619 0.438685358,39.9697587 0.438685358,88.9129778 L0.438685358,88.9129778 C0.438685358,137.857327 40.790972,177.534375 90.5670997,177.534375 L90.5670997,177.534375 C140.343791,177.534375 180.696078,137.857327 180.696078,88.9129778 L180.696078,88.9129778 C180.696078,39.9697587 140.343791,0.29327619 90.5670997,0.29327619 Z" id="path-1"></path>
        <path d="M90.5670997,0.29327619 C40.790972,0.29327619 0.438685358,39.9697587 0.438685358,88.9129778 L0.438685358,88.9129778 C0.438685358,137.857327 40.790972,177.534375 90.5670997,177.534375 L90.5670997,177.534375 C140.343791,177.534375 180.696078,137.857327 180.696078,88.9129778 L180.696078,88.9129778 C180.696078,39.9697587 140.343791,0.29327619 90.5670997,0.29327619 Z" id="path-3"></path>
    </defs>
    <g id="Page-1" stroke="none" stroke-width="1" fill="none" fill-rule="evenodd">
        <g id="Home-Page" transform="translate(-244.000000, -2020.000000)">
            <g id="how-it-works" transform="translate(148.000000, 1888.000000)">
                <g id="Group-7" transform="translate(0.000000, 98.000000)">
                    <g id="Page-1" transform="translate(96.000000, 23.000000)">
                        <g id="Group-223" transform="translate(1.000000, 0.000000)"></g>
                        <g id="Group-467" transform="translate(1.000000, 0.000000)">
                            <path d="M54.5212598,48.8478337 C54.5212598,48.8478337 48.5550262,22.8180178 75.9598922,16.6812559 L54.5212598,48.8478337 Z" id="Stroke-224" stroke="#22292B" stroke-width="6.784" stroke-linecap="round"></path>
                            <path d="M114.189968,49.2247416 C114.189968,49.2247416 120.156202,23.1949257 92.7513355,17.0581638" id="Stroke-226" stroke="#22292B" stroke-width="6.784" stroke-linecap="round"></path>
                            <path d="M60.3777093,57.4034743 C60.482024,58.8500775 61.27989,59.9632838 62.1600801,59.8915187 C63.0402701,59.8191886 63.670105,58.5890108 63.5663542,57.1418425 L62.3805505,40.633614 C62.2767997,39.188141 61.4783698,38.0738044 60.5976159,38.1461346 C59.716862,38.2178997 59.087591,39.4492076 59.1913417,40.8946806 L60.3777093,57.4034743 Z" id="Fill-228" fill="#3C4649"></path>
                            <path d="M58.7500062,57.6385473 C58.7968069,58.2889537 59.2010966,58.7867886 59.6521869,58.7506235 C60.1038411,58.7133283 60.4314455,58.1555949 60.3852087,57.5046235 L59.1740312,40.6511314 C59.1272305,40.00016 58.7235047,39.50176 58.2718505,39.5390552 C57.8207601,39.5757854 57.4925919,40.1335187 57.5393925,40.7850552 L58.7500062,57.6385473 Z" id="Fill-230" fill="#F9B233"></path>
                            <path d="M57.5603118,40.3672356 L58.7506265,57.6603594 C57.1453087,57.5529943 55.651072,55.2180863 54.9755642,51.6659975 C54.8267044,50.8890133 54.7167511,50.0560863 54.6535984,49.1768229 C54.5870626,48.2512229 54.5825517,47.37648 54.6293523,46.5633308 L54.6327355,46.5633308 C54.8391093,43.1010895 56.0232215,40.7554451 57.5603118,40.3672356" id="Fill-232" fill="#F94141"></path>
                            <path d="M54.6534293,49.1767098 C54.7165819,50.0559733 54.8417595,50.8877702 55.0199402,51.6619289 C54.6500461,51.6924432 54.2592891,51.1652241 54.0264137,50.3334273 L54.0264137,50.3289067 C53.934504,50.0028559 53.8685321,49.6282083 53.8397751,49.2224813 C53.7856442,48.4714908 53.8786816,47.7928305 54.0478405,47.3108178 C54.2113607,46.8683606 54.4363421,46.5824305 54.6804947,46.5586971 C54.6004262,47.3752368 54.5868935,48.2511098 54.6534293,49.1767098" id="Fill-234" fill="#22292B"></path>
                            <path d="M108.865805,57.4751829 C108.816185,58.9172654 108.085419,59.9886559 107.232858,59.8694241 C106.379733,59.7496273 105.728472,58.4844146 105.7764,57.041767 L106.337444,40.5849606 C106.385936,39.1440083 107.116702,38.0714876 107.969827,38.1912844 C108.822951,38.3105162 109.474213,39.576294 109.425157,41.0178114 L108.865805,57.4751829 Z" id="Fill-236" fill="#3C4649"></path>
                            <path d="M110.44558,57.7980127 C110.423589,58.4461587 110.050876,58.9230857 109.613882,58.8626222 C109.176888,58.8004635 108.840262,58.2252127 108.862253,57.5753714 L109.433446,40.7749968 C109.456,40.1262857 109.82815,39.6493587 110.265707,39.7103873 C110.701574,39.771981 111.039891,40.3472317 111.016773,40.997073 L110.44558,57.7980127 Z" id="Fill-238" fill="#F9B233"></path>
                            <path d="M110.981362,40.5774451 L110.446256,57.8197117 C111.992932,57.7988038 113.352406,55.5424419 113.879054,52.0236927 C113.995774,51.2546197 114.071895,50.4267784 114.10178,49.5497752 C114.133356,48.6275657 114.106855,47.7522578 114.032425,46.9357181 L114.029605,46.9357181 C113.70764,43.4599149 112.48011,41.0487213 110.981362,40.5774451" id="Fill-240" fill="#F94141"></path>
                            <path d="M114.057855,49.5536178 C113.995266,50.4328813 113.869525,51.2646781 113.691908,52.0388368 C114.061802,52.0693511 114.451995,51.5421321 114.684307,50.7103352 L114.68487,50.7058146 C114.777344,50.3797638 114.843316,50.0051162 114.871509,49.5993892 C114.926204,48.8483987 114.832039,48.1697384 114.664007,47.6877257 C114.500487,47.2452686 114.275506,46.9593384 114.031353,46.9356051 C114.110858,47.7521448 114.124955,48.6280178 114.057855,49.5536178" id="Fill-242" fill="#22292B"></path>
                            <g id="Group-329">
                                <path d="M164.835798,131.938234 C164.835798,132.303275 164.785614,132.65984 164.694832,132.993237 L164.835798,133.042964 C160.080742,143.337015 148.710446,138.685846 146.879019,137.85518 L146.893116,137.811103 C146.807408,137.791326 146.721701,137.769288 146.638813,137.741599 C146.630919,137.738773 146.6281,137.735948 146.6281,137.735948 C146.232832,137.608805 145.860119,137.400856 145.534206,137.11323 L112.498041,107.983954 C111.121088,106.771294 111.064137,104.587262 112.364405,103.106189 L121.38001,92.8330463 C122.681405,91.3519733 124.853405,91.1321575 126.226412,92.3431225 L145.111873,108.992056 L145.111873,82.74864 C145.111873,80.7330019 146.594832,79.0987924 148.426259,79.0987924 L161.51972,79.0987924 C163.351711,79.0987924 164.835798,80.7330019 164.835798,82.74864 L164.835798,131.938234 Z" id="Fill-244" fill="#CCCCCC"></path>
                                <polygon id="Fill-246" fill="#CCCCCC" points="145.111591 108.991773 145.111591 131.43164 131.128354 114.98218 139.261513 103.834294"></polygon>
                                <path d="M166.119883,61.6719143 L165.566169,65.5133238 C165.566169,67.4803651 162.576004,80.0624222 162.576004,80.0624222 C156.768216,84.5678 146.810961,81.5412349 146.810961,81.5412349 C146.810961,81.5412349 146.678453,76.5108984 145.019568,75.7875968 C139.415335,67.5645619 133.379746,47.7257556 145.757665,49.6684984 L145.757665,32.371419 C145.757665,30.9265111 147.139693,29.7528413 148.843123,29.7528413 C149.693992,29.7528413 150.467612,30.0483778 151.027528,30.5230444 C151.587444,30.9954508 151.932528,31.6464222 151.932528,32.371419 L151.932528,44.0826889 C151.836107,44.3341492 151.783104,44.6048222 151.783104,44.8851016 L151.783104,51.1806508 L157.314036,52.7103206 L158.128817,52.9340921 C159.637715,53.3499905 160.489148,54.763819 160.032983,56.0894952 C159.663088,57.1738825 158.535363,57.8627143 157.314036,57.8553683 L157.297683,57.8553683 C157.133036,57.8519778 156.968951,57.8378508 156.802048,57.8056413 C156.693786,57.7915143 156.587216,57.7672159 156.480646,57.7372667 L151.786487,56.4409746 C151.786487,56.4409746 148.566266,56.864219 146.281493,55.6611651 C146.588235,55.8589429 156.417493,62.1810508 157.19055,69.1207905 C157.19055,69.1207905 159.368752,63.1964984 158.123179,59.7246508 C158.625581,60.174454 159.31744,60.452473 160.080347,60.452473 C161.604469,60.452473 162.842712,59.3403968 162.842712,57.967819 L162.842712,59.6873556 C162.842712,60.2546952 163.133101,60.7689175 163.601107,61.1407397 C164.073624,61.5119968 164.721503,61.7431143 165.437045,61.7431143 C165.67274,61.7431143 165.90336,61.7182508 166.119883,61.6719143" id="Fill-248" fill="#CCCCCC"></path>
                                <path d="M157.190606,69.1205644 C156.41755,62.1813898 146.588291,55.8587168 146.28155,55.6615041 C148.566322,56.8645581 151.786544,56.4413137 151.786544,56.4413137 C151.806279,57.0979359 152.110201,57.689574 152.592868,58.1258152 C153.095833,58.5756184 153.786565,58.8536375 154.549472,58.8536375 C155.479282,58.8536375 156.303086,58.4405644 156.802104,57.8059803 C156.968444,57.8376248 157.133092,57.8523168 157.29774,57.8551422 L157.314092,57.8551422 L157.314092,57.9681581 C157.314092,58.6547295 157.62478,59.2734914 158.123235,59.7244248 C159.368808,63.1968375 157.190606,69.1205644 157.190606,69.1205644" id="Fill-250" fill="#CCCCCC"></path>
                                <path d="M77.2999125,97.7817854 C78.9480838,99.4419886 79.2322707,101.836795 77.9348221,103.131392 L24.5990277,156.344916 C23.3010153,157.639512 20.9130558,157.343411 19.2643206,155.684338 L9.48186262,145.8367 C7.83312741,144.177062 7.5489405,141.78169 8.84695296,140.487093 L62.1821835,87.2735695 C63.480196,85.9789727 65.8692832,86.2750743 67.5168907,87.9335822 L77.2999125,97.7817854 Z" id="Fill-264" fill="#CCCCCC"></path>
                                <path d="M112.399816,156.496526 C112.399816,158.331339 110.915165,159.819193 109.084866,159.819193 L62.1190308,159.819193 C60.287604,159.819193 58.8035168,158.331339 58.8035168,156.496526 L50.7960994,84.8636756 C50.7960994,83.0288629 52.2801866,81.5410089 54.1116134,81.5410089 L114.702632,81.5410089 C116.532931,81.5410089 118.017582,83.0288629 118.017582,84.8636756 L112.399816,156.496526 Z" id="Fill-266" fill="#CCCCCC"></path>
                                <path d="M63.3181417,45.0958762 C63.3181417,45.0958762 54.6611542,27.7355079 64.6714128,23.1758825 C74.678852,18.6145619 89.3714283,7.28189524 99.9743069,16.265527 C110.575494,25.2485937 115.599512,33.0585556 109.959755,44.147673" id="Fill-268" fill="#CCCCCC"></path>
                                <path d="M77.7757,45.4733492 C77.7757,47.4748603 76.2899212,49.1000286 74.4522919,49.1000286 C72.621429,49.1000286 71.1345224,47.4748603 71.1345224,45.4733492 C71.1345224,43.5452984 72.5131673,41.9675968 74.2498651,41.8579714 C74.3186564,41.8528857 74.3835006,41.8478 74.4522919,41.8478 C74.9513106,41.8478 75.4260832,41.9675968 75.8484165,42.1857175 C75.850672,42.1885429 75.8580022,42.1885429 75.8602576,42.1885429 C76.9947498,42.7649238 77.7757,44.0154444 77.7757,45.4733492" id="Fill-270" fill="#CCCCCC"></path>
                                <path d="M88.8232972,60.940193 C85.8472287,61.7810311 81.596266,59.2613422 81.596266,59.2613422 L85.5021445,45.1744787 C85.4327894,45.68192 84.130266,55.3142629 84.5960168,57.8599454 C85.0769919,60.4751327 88.8232972,60.940193 88.8232972,60.940193" id="Fill-272" fill="#CCCCCC"></path>
                                <path d="M101.092842,44.1489162 C101.092842,46.1509924 99.6053713,47.7722051 97.7739445,47.7722051 C95.9391346,47.7722051 94.452228,46.1509924 94.452228,44.1489162 C94.452228,42.7102241 95.2162623,41.4664844 96.3293277,40.8799321 L96.3327109,40.8799321 C96.7685769,40.6505098 97.2568822,40.523367 97.7739445,40.523367 C97.850066,40.523367 97.928443,40.5278876 98.0034368,40.5295829 C99.7277296,40.658421 101.092842,42.2299067 101.092842,44.1489162" id="Fill-274" fill="#CCCCCC"></path>
                                <path d="M74.2498651,41.8577454 C74.3186564,41.8526597 74.3835006,41.847574 74.4522919,41.847574 C74.9513106,41.847574 75.4255193,41.9673708 75.8484165,42.1854914 C75.850672,42.1883168 75.8580022,42.1883168 75.8596938,42.1883168 C76.9947498,42.7646978 77.7757,44.0152184 77.7757,45.4731232 C77.7757,47.4746343 76.2899212,49.0998025 74.4522919,49.0998025 C72.621429,49.0998025 71.1345224,47.4746343 71.1345224,45.4731232 C71.1345224,43.5450724 72.5131673,41.9673708 74.2498651,41.8577454 L74.2498651,41.8577454 Z M85.5023137,45.1741962 C85.4329586,45.6822025 84.1298713,55.3139803 84.596186,57.8596629 C85.0771611,60.4748502 88.8234664,60.9404756 88.8234664,60.9404756 C85.846834,61.7813137 81.5958713,59.2616248 81.5958713,59.2616248 L85.5023137,45.1741962 Z M96.3290458,40.8801581 L96.332429,40.8801581 C96.7688589,40.6501708 97.2571642,40.523593 97.7742265,40.523593 C97.8497841,40.523593 97.9281611,40.5275486 98.0031548,40.5292438 C99.7280115,40.658647 101.09256,42.2295676 101.09256,44.1491422 C101.09256,46.1512184 99.6056533,47.7724311 97.7742265,47.7724311 C95.9394165,47.7724311 94.4519461,46.1512184 94.4519461,44.1491422 C94.4519461,42.7104502 95.2165442,41.4667105 96.3290458,40.8801581 L96.3290458,40.8801581 Z M109.459722,45.8409898 L109.459722,45.8359041 C109.343002,44.2717644 108.771809,39.0656883 106.189317,36.1572248 C103.128669,32.7096756 93.8525598,28.8806978 98.4063168,21.3318025 C97.8875629,21.9449137 88.5319492,32.8452946 77.7339741,30.6296184 C77.7339741,30.6296184 80.6091112,29.1796248 80.7996969,27.522247 C80.7996969,27.522247 74.2983573,29.5152819 67.5878246,29.1208565 L67.582186,29.1208565 C63.8995972,29.8142089 63.5375972,42.5324502 63.5065847,45.621174 L63.5065847,45.6245644 C63.5065847,45.7296692 63.5043293,45.8212121 63.5043293,45.9025835 C63.6035692,47.1242851 63.8364445,49.6264565 64.1860396,52.6648883 C65.1107748,60.6568057 66.8531112,72.3239994 69.1559274,73.9118724 C72.9856844,76.5490978 78.7855785,82.1077835 84.5741953,82.1077835 C84.5741953,82.1077835 88.0210894,82.1168248 88.5060115,82.104393 C94.2963199,81.9399549 100.096778,76.5389263 103.923716,73.9028311 C106.247395,72.3081771 107.957027,60.5556565 108.842292,52.6264629 C109.171024,49.672793 109.386983,47.2457771 109.474382,46.0726724 L109.474382,46.0636311 C109.469871,46.0042978 109.467616,45.9280121 109.459722,45.8409898 L109.459722,45.8409898 Z" id="Fill-276" fill="#CCCCCC"></path>
                                <path d="M63.506472,45.6212305 L63.506472,45.624621 C63.506472,45.7291606 63.5047804,45.8212686 63.5047804,45.90264 C63.4303505,45.0041638 63.4303505,44.8103416 63.506472,45.6212305" id="Fill-278" fill="#CCCCCC"></path>
                                <path d="M109.521578,45.3386908 L109.521578,45.3522527 C109.521578,45.43984 109.505789,45.6873448 109.474213,46.0636876 C109.469702,46.0043543 109.467447,45.9280686 109.460117,45.8410463 L109.460117,45.8359606 C109.460117,45.8212686 109.461808,45.8065765 109.461808,45.7913194 C109.467447,45.7721067 109.469702,45.7540241 109.469702,45.7342463 C109.469702,45.7133384 109.474213,45.6873448 109.477596,45.6573956 C109.505789,45.3629892 109.521578,45.2646654 109.521578,45.3386908" id="Fill-280" fill="#CCCCCC"></path>
                                <path d="M68.9804533,41.6557295 C68.9804533,41.6557295 69.0233069,41.4765994 69.1687835,41.2008406 C69.3170794,40.9262121 69.5663069,40.5538248 69.9457866,40.178047 C70.3269579,39.8180914 70.8293598,39.4315771 71.4338209,39.1637295 C71.7298489,39.0077676 72.0540701,38.9128343 72.3839299,38.8049041 C72.7177368,38.7099708 73.0645125,38.6534629 73.4101604,38.6003454 C73.7591916,38.583393 74.1076589,38.5393168 74.4476682,38.5664406 C74.7865498,38.590739 75.1226121,38.6105168 75.4383754,38.676066 C75.752447,38.7455708 76.0524221,38.8235517 76.3337897,38.9060533 C76.6112103,39.0077676 76.8626931,39.1196533 77.0966963,39.2292787 C77.5613193,39.4338375 77.9052757,39.7129867 78.1483006,39.8921168 C78.3873785,40.0774629 78.5091729,40.2046057 78.5091729,40.2046057 C78.5091729,40.2046057 78.3304283,40.2464216 78.035528,40.2820216 C77.7389361,40.3334438 77.3391573,40.3311835 76.8655125,40.3910819 C76.6303816,40.4108597 76.3800265,40.4227263 76.1212134,40.4317676 C75.8624003,40.4571962 75.5917461,40.4803644 75.3171449,40.4877105 C75.0425436,40.4978819 74.7645592,40.5442184 74.4820639,40.5515644 C74.2029517,40.5786883 73.9210202,40.6063771 73.6373972,40.634066 C73.3565935,40.669101 73.0769174,40.705266 72.8034439,40.7419962 C72.5339174,40.7990692 72.2542414,40.8199771 71.9959922,40.8798756 C71.4637056,40.9668978 70.9742726,41.096866 70.5276931,41.2008406 C70.0850607,41.3076406 69.7078364,41.4274375 69.4270327,41.5088089 C69.1439735,41.6031771 68.9804533,41.6557295 68.9804533,41.6557295" id="Fill-282" fill="#CCCCCC"></path>
                                <path d="M78.2627084,47.7474546 C78.2627084,49.9710419 76.7521196,51.779861 74.8846056,51.779861 C73.0238579,51.779861 71.5121414,49.9710419 71.5121414,47.7474546 C71.5121414,45.600153 72.9139047,43.8489721 74.6787956,43.7263498 C74.7481508,43.7212641 74.8146866,43.7161784 74.8846056,43.7161784 C75.3920822,43.7161784 75.8736212,43.8489721 76.3032847,44.090261 C76.3055402,44.0936514 76.3128704,44.0936514 76.3151259,44.0936514 C77.4682255,44.7350165 78.2627084,46.126807 78.2627084,47.7474546" id="Fill-284" fill="#CCCCCC"></path>
                                <path d="M72.9520218,48.3605657 C72.9520218,49.7212768 73.7848474,50.8226165 74.8138972,50.8226165 C75.8423832,50.8226165 76.674081,49.7212768 76.674081,48.3605657 C76.674081,47.0032451 75.8423832,45.9013403 74.8138972,45.9013403 C73.7848474,45.9013403 72.9520218,47.0032451 72.9520218,48.3605657" id="Fill-286" fill="#CCCCCC"></path>
                                <path d="M76.3035103,44.0904305 C76.3035103,44.0904305 76.1952486,44.0904305 76.0024075,44.0813892 C75.815205,44.0836495 75.5377844,44.0152749 75.2299153,44.0344876 C75.074853,44.0356178 74.9113327,44.0395733 74.7433016,44.0344876 C74.6237626,44.0316622 74.3869402,44.0881702 74.2008654,44.0994717 C74.0080243,44.1254654 73.7886816,44.1345067 73.5997875,44.1774527 C73.4232984,44.2339606 73.240043,44.2910337 73.059043,44.3481067 C72.8712766,44.3763606 72.6953514,44.4820305 72.5166069,44.563967 C72.3406816,44.6589003 72.1478405,44.7052368 71.9955975,44.827859 C71.8292579,44.9278781 71.668557,45.0273321 71.5174417,45.1200051 C71.376476,45.233586 71.2360741,45.33304 71.1075134,45.4268432 C70.6045477,45.8263543 70.2696131,46.1490146 70.2696131,46.1490146 C70.2696131,46.1490146 70.4009931,45.6720876 70.8205072,45.091186 C71.0297003,44.8024305 71.3110679,44.4938971 71.6617907,44.2271797 C71.8253109,44.0757384 72.0254822,43.9689384 72.2267813,43.8621384 C72.4320274,43.7547733 72.6259963,43.6270654 72.8639464,43.5773384 C73.0973857,43.5197003 73.3274417,43.4626273 73.5546785,43.4044241 C73.7757128,43.3654337 73.9719371,43.4015987 74.1754916,43.3959479 C74.3869402,43.4021638 74.539747,43.3959479 74.7810804,43.4405892 C74.9739215,43.4835352 75.152666,43.5355225 75.3150586,43.5846844 C75.6432268,43.6711416 75.8642611,43.8423606 76.0401863,43.9271225 C76.2076536,44.0265765 76.3035103,44.0904305 76.3035103,44.0904305" id="Fill-288" fill="#CCCCCC"></path>
                                <path d="M95.2202093,47.7171098 C95.2202093,49.9412622 96.7307981,51.7495162 98.5977483,51.7495162 C100.45906,51.7495162 101.970212,49.9412622 101.970212,47.7171098 C101.970212,45.5703733 100.568449,43.8191924 98.8035583,43.6960051 C98.7330754,43.6909194 98.6676673,43.6852686 98.5977483,43.6852686 C98.0913994,43.6852686 97.6087327,43.8191924 97.1790692,44.0593511 C97.1773776,44.0627416 97.1700474,44.0627416 97.167228,44.0627416 C96.0130006,44.7052368 95.2202093,46.0970273 95.2202093,47.7171098" id="Fill-290" fill="#CCCCCC"></path>
                                <path d="M100.530614,48.3307295 C100.530614,49.6914406 99.6977885,50.7927803 98.6676109,50.7927803 C97.6396888,50.7927803 96.807991,49.6914406 96.807991,48.3307295 C96.807991,46.9734089 97.6396888,45.8715041 98.6676109,45.8715041 C99.6977885,45.8715041 100.530614,46.9734089 100.530614,48.3307295" id="Fill-292" fill="#CCCCCC"></path>
                                <path d="M97.1788436,44.0595206 C97.1788436,44.0595206 97.2871053,44.0595206 97.4788187,44.0504794 C97.6671489,44.0533048 97.9445695,43.9854952 98.2530025,44.0041429 C98.4075009,44.005273 98.5704573,44.0103587 98.7384885,44.0041429 C98.8580274,44.0007524 99.0954137,44.0572603 99.2809246,44.0696921 C99.4732019,44.0951206 99.6931084,44.104727 99.8825664,44.147673 C100.059055,44.2036159 100.242311,44.261254 100.422747,44.3171968 C100.611077,44.3460159 100.787002,44.4516857 100.965747,44.5341873 C101.141672,44.6279905 101.333386,44.6754571 101.487884,44.7980794 C101.653096,44.8980984 101.813797,44.9969873 101.964348,45.0890952 C102.105314,45.2038063 102.245716,45.3032603 102.374277,45.3964984 C102.877242,45.7965746 103.212177,46.1192349 103.212177,46.1192349 C103.212177,46.1192349 103.080797,45.6423079 102.661847,45.0614063 C102.45209,44.7715206 102.170722,44.4635524 101.821127,44.1974 C101.656479,44.0459587 101.456872,43.9391587 101.255009,43.8312286 C101.049763,43.7238635 100.856358,43.5961556 100.618971,43.5475587 C100.384968,43.4893556 100.154348,43.4328476 99.9271115,43.3746444 C99.7066411,43.335654 99.509853,43.3706889 99.3074262,43.3650381 C99.0954137,43.371819 98.9426069,43.3650381 98.7012735,43.4108095 C98.5084324,43.4526254 98.3296879,43.5057429 98.1672953,43.5549048 C97.8391271,43.6413619 97.617529,43.812581 97.4421676,43.8973429 C97.2752642,43.9956667 97.1788436,44.0595206 97.1788436,44.0595206" id="Fill-294" fill="#CCCCCC"></path>
                                <path d="M103.981512,40.9908006 C103.981512,40.9908006 103.820247,40.9393784 103.53606,40.8461403 C103.256384,40.7636387 102.87634,40.6461022 102.433144,40.537607 C101.987692,40.4341975 101.497695,40.3036641 100.965409,40.217207 C100.709979,40.1550483 100.430303,40.1358356 100.159649,40.0787625 C99.8861751,40.0431625 99.6053713,40.0069975 99.3268231,39.9713975 C99.0432,39.9431435 98.7595769,39.9154546 98.4810287,39.889461 C98.1962779,39.88268 97.9205489,39.8357784 97.6442561,39.8239117 C97.3696548,39.8160006 97.1012561,39.7956578 96.8413153,39.768534 C96.5813745,39.7577975 96.3344025,39.7487562 96.0970162,39.7289784 C95.6250629,39.66908 95.2224648,39.6713403 94.9270006,39.619353 C94.6321003,39.5843181 94.452228,39.5425022 94.452228,39.5425022 C94.452228,39.5425022 94.5779695,39.4142292 94.8164835,39.2294483 C95.0589445,39.0508832 95.4029009,38.771734 95.867524,38.5632197 C96.0992717,38.4575498 96.3524461,38.3434038 96.6298667,38.2433848 C96.9112343,38.159753 97.2100816,38.0823371 97.525281,38.0128324 C97.8399165,37.9484133 98.1759788,37.9275054 98.516552,37.903207 C98.8554336,37.8766483 99.2044648,37.9218546 99.5529321,37.9376768 C99.8974523,37.988534 100.244792,38.0489975 100.576907,38.1428006 C100.908459,38.2484705 101.233244,38.3456641 101.529272,38.4999308 C102.134297,38.7689086 102.634443,39.1548578 103.016742,39.5165086 C103.39453,39.8922863 103.644321,40.2641086 103.792054,40.5353467 C103.938658,40.8144959 103.981512,40.9908006 103.981512,40.9908006" id="Fill-296" fill="#CCCCCC"></path>
                                <path d="M63.9643287,36.4590902 C63.9643287,36.4590902 64.9939424,56.1334584 68.9804533,60.0703663 L65.3503037,57.8015727 C65.3503037,57.8015727 63.2961511,47.821706 63.4523411,42.9959283 C63.6079673,38.1701505 63.9643287,36.4590902 63.9643287,36.4590902" id="Fill-298" fill="#CCCCCC"></path>
                                <path d="M108.997354,38.8921524 C108.997354,38.8921524 107.968868,58.5665206 103.98123,62.506819 L107.609688,60.2357651 C107.609688,60.2357651 109.667787,50.2553333 109.511597,45.4312508 C109.353152,40.6060381 108.997354,38.8921524 108.997354,38.8921524" id="Fill-300" fill="#CCCCCC"></path>
                                <path d="M90.7709361,63.6872133 C90.7709361,64.4003435 90.0345312,64.9795498 89.1267118,64.9795498 L83.8517741,64.9795498 C82.9439548,64.9795498 82.2081137,64.4003435 82.2081137,63.6872133 C82.2081137,63.6872133 82.9439548,48.4684959 83.8517741,48.4684959 L89.1267118,48.4684959 C90.0345312,48.4684959 90.7709361,63.6872133 90.7709361,63.6872133" id="Fill-302" fill="#CCCCCC"></path>
                                <path d="M98.4634925,67.6637333 C98.4634925,73.158 93.5020626,77.6113905 87.383586,77.6113905 C81.2645455,77.6113905 76.3036794,73.158 76.3036794,67.6637333" id="Fill-304" fill="#CCCCCC"></path>
                                <path d="M98.2283617,44.4270483 C96.8305455,44.4479562 95.4440065,44.5541911 94.0715642,44.837861 C93.0380034,45.0525911 92.0382745,45.3594292 91.143424,45.9358102 C90.0128788,46.6664578 89.4191312,47.6824705 89.5465642,49.0284895 C89.7129037,50.7819308 90.1515891,52.4703879 91.0002028,54.0271816 C92.0704146,55.9885721 93.6706576,57.3464578 95.8928414,57.9234038 C97.7203212,58.3980705 99.5714832,58.3980705 101.426028,58.0838863 C102.368243,57.9234038 103.257455,57.6092197 104.032767,57.0396197 C105.037007,56.3033213 105.600869,55.2839181 105.899153,54.1181594 C106.402683,52.1725911 106.450611,50.192553 106.25495,48.2102546 C106.127517,46.8642356 105.477383,45.7979308 104.179935,45.22268 C103.675841,44.9989086 103.130586,44.8356006 102.585894,44.7197594 C101.151991,44.4117911 99.6910221,44.4157467 98.2283617,44.4270483 M73.6061592,44.8565086 C73.138153,44.8627244 72.6740938,44.8627244 72.2134178,44.8853276 C71.2475206,44.9294038 70.2945922,45.0350737 69.3591436,45.2791879 C67.7589006,45.692261 66.6869972,46.639899 66.2860907,48.2379435 C66.1558383,48.74708 66.0695673,49.2731689 66.025586,49.7964324 C65.9009723,51.3583117 65.9832963,52.9100197 66.4744209,54.4165213 C67.2339442,56.7593403 68.8003555,58.2370229 71.3084178,58.6704387 C72.7710782,58.9190737 74.2371218,58.8354419 75.6845579,58.5619435 C78.267614,58.0782356 80.1808009,56.6564959 81.4399069,54.4165213 C82.3347573,52.8275181 82.8078383,51.0995054 82.9262495,49.2822102 C82.9939131,48.2424641 82.6223274,47.3914546 81.8165673,46.7201403 C80.9978383,46.0403498 80.0291218,45.6521403 79.0119131,45.3758165 C77.2430751,44.8921086 75.4330751,44.7581848 73.6061592,44.8565086 M73.4894396,43.9472959 C76.1593305,43.827499 78.7604302,44.2631752 81.357019,44.7734419 C82.5349287,45.0051244 83.7167854,45.2119435 84.9042807,45.3927689 C86.100234,45.5735943 87.288857,45.4091562 88.4639474,45.158826 C90.1121187,44.8067816 91.7546514,44.3982292 93.4124084,44.0795244 C96.0185829,43.578299 98.6529505,43.3562229 101.310436,43.5980768 C103.845564,43.8308895 106.380692,44.0993022 108.917511,44.3518927 C109.26034,44.3852324 109.329695,44.4530419 109.345483,44.7915244 C109.377623,45.5617276 109.406944,46.3319308 109.432318,47.102134 C109.446979,47.4174483 109.387209,47.4739562 109.062424,47.5248133 C108.718468,47.5773657 108.483901,47.7819244 108.307975,48.0622038 C108.046907,48.4730165 107.97586,48.9380768 107.885078,49.4048324 C107.590178,50.9418483 107.314449,52.4845149 106.953013,54.0068387 C106.674464,55.1675117 106.110602,56.2129086 105.241689,57.0780451 C104.292707,58.0194673 103.121,58.5365149 101.819041,58.7778038 C99.6910221,59.17788 97.5596202,59.2010483 95.4440065,58.7162102 C93.3345953,58.2325022 91.768748,57.0068451 90.6077542,55.2443625 C89.6147916,53.737861 88.921804,52.0929149 88.3083212,50.4106737 C88.1949847,50.1010102 88.0596576,49.7964324 87.9074146,49.5025911 C87.333966,48.376953 85.5707667,48.2820197 84.8061685,49.2443498 C84.4001872,49.7585721 84.1413741,50.3332578 83.9310533,50.9407181 C83.4991343,52.1771117 83.0243617,53.3948578 82.3945268,54.54988 C81.5363274,56.1247562 80.3956327,57.4357403 78.7728352,58.3031371 C77.7184115,58.8653911 76.5833555,59.1937022 75.4009349,59.3604006 C73.989586,59.5593086 72.5731623,59.6056451 71.1657604,59.3214102 C69.6540439,59.0185276 68.2720159,58.4630546 67.1397791,57.3995752 C66.4146514,56.7197848 65.9522838,55.8874229 65.6692246,54.9516514 C65.1448321,53.2179879 64.7275735,51.4577657 64.4050439,49.6783308 C64.2815579,48.9883689 63.9127916,48.4899689 63.203452,48.2854102 C62.9818539,48.2238165 62.8820502,48.0814165 62.8820502,47.8740324 C62.8781031,47.1049594 62.8764115,46.333061 62.8921997,45.5617276 C62.9000938,45.1650419 63.0613586,45.016426 63.4639567,44.9712197 C65.8079349,44.7061975 68.147966,44.4315689 70.4919442,44.1823689 C71.4860346,44.076699 72.4885829,44.0252768 73.4894396,43.9472959" id="Fill-306" fill="#CCCCCC"></path>
                                <path d="M73.6058773,44.8563956 C75.433357,44.7580717 77.243357,44.8919956 79.012195,45.3757035 C80.0288399,45.6520273 80.9981202,46.0408019 81.8162854,46.7200273 C82.6226093,47.3913416 82.994195,48.2423511 82.9265315,49.2820971 C82.8081202,51.0993924 82.3344754,52.8274051 81.4396249,54.4164083 C80.1810829,56.6563829 78.2673321,58.0781225 75.6848399,58.5618305 C74.2374037,58.8353289 72.7707963,58.9195257 71.3081358,58.6703257 C68.8006374,58.2374749 67.2336623,56.7592273 66.4741389,54.4164083 C65.9835782,52.9099067 65.9006903,51.3581987 66.025304,49.7963194 C66.0692854,49.2730559 66.1555564,48.746967 66.2858087,48.2378305 C66.6867153,46.639786 67.7591826,45.6921479 69.3594255,45.2790749 C70.2943103,45.0349606 71.2478025,44.9292908 72.2131358,44.8852146 C72.6743757,44.8631765 73.137871,44.8631765 73.6058773,44.8563956" id="Fill-308" fill="#CCCCCC"></path>
                                <path d="M98.2283617,44.4270483 C99.6910221,44.4157467 101.151991,44.4117911 102.585894,44.7197594 C103.130586,44.8356006 103.675841,44.9989086 104.179935,45.22268 C105.477383,45.7979308 106.127517,46.8642356 106.25495,48.2102546 C106.450611,50.192553 106.402683,52.1725911 105.899153,54.1181594 C105.600869,55.2839181 105.037007,56.3033213 104.032767,57.0396197 C103.257455,57.6092197 102.368243,57.9234038 101.426028,58.0838863 C99.5714832,58.3980705 97.7203212,58.3980705 95.8928414,57.9234038 C93.6706576,57.3464578 92.0704146,55.9885721 91.0002028,54.0271816 C90.1515891,52.4703879 89.7129037,50.7819308 89.5465642,49.0284895 C89.4191312,47.6824705 90.0128788,46.6664578 91.143424,45.9358102 C92.0382745,45.3594292 93.0380034,45.0525911 94.0715642,44.837861 C95.4440065,44.5541911 96.8305455,44.4479562 98.2283617,44.4270483" id="Fill-310" fill="#CCCCCC"></path>
                                <path d="M130.707769,150.596307 C130.707769,152.302281 129.131208,153.686161 127.186445,153.686161 L48.9831673,153.686161 C47.0378402,153.686161 45.4618433,152.302281 45.4618433,150.596307 C45.4618433,149.746427 45.8571112,148.970008 46.491457,148.410015 C47.1286221,147.853977 48.0133231,147.507018 48.9831673,147.507018 L127.186445,147.507018 C129.131208,147.507018 130.707769,148.889767 130.707769,150.596307" id="Fill-312" fill="#CCCCCC"></path>
                                <path d="M138.684455,78.0398902 L138.684455,135.978608 C138.684455,138.089179 136.88235,139.798544 134.657346,139.798544 L37.782876,139.798544 C36.6669913,139.798544 35.6621875,139.371909 34.9325489,138.679122 C34.2057296,137.989725 33.7523838,137.033611 33.7523838,135.978608 L33.7523838,78.0398902 C33.7523838,75.9293187 35.5544897,74.2205187 37.782876,74.2205187 L134.657346,74.2205187 C135.690907,74.2205187 136.630867,74.5866902 137.343026,75.1901949 C138.166829,75.8897632 138.684455,76.9057759 138.684455,78.0398902" id="Fill-314" fill="#CCCCCC"></path>
                                <mask id="mask-2" fill="white">
                                    <use xlink:href="#path-1"></use>
                                </mask>
                                <g id="Clip-317"></g>
                                <polygon id="Fill-316" fill="#CCCCCC" mask="url(#mask-2)" points="75.6681495 149.19621 96.769028 149.19621 96.769028 139.798375 75.6681495 139.798375"></polygon>
                                <path d="M116.104564,151.498004 C116.104564,152.769997 115.075515,153.801832 113.806259,153.801832 L62.7603121,153.801832 C61.4904928,153.801832 60.461443,152.769997 60.461443,151.498004 C60.461443,150.863985 60.7191283,150.285343 61.1335676,149.867185 C61.5496984,149.452982 62.1265302,149.194175 62.7603121,149.194175 L113.806259,149.194175 C115.075515,149.194175 116.104564,150.225445 116.104564,151.498004" id="Fill-318" fill="#CCCCCC" mask="url(#mask-2)"></path>
                                <polygon id="Fill-319" fill="#CCCCCC" mask="url(#mask-2)" points="96.7691408 139.798544 96.7691408 149.196379 75.6682623 139.798544"></polygon>
                                <path d="M14.7397717,141.223392 L19.4452078,141.223392 C24.857728,141.223392 29.2457093,146.956687 29.2457093,154.02922 L14.8779181,154.02922 L14.7397717,141.223392 Z" id="Fill-320" fill="#CCCCCC" mask="url(#mask-2)"></path>
                                <path d="M14.8779745,154.029277 L1.33962555,154.029277 C1.33962555,146.956743 5.72704299,141.223448 11.1395632,141.223448 L14.739828,141.223448 L14.8779745,154.029277 Z" id="Fill-321" fill="#CCCCCC" mask="url(#mask-2)"></path>
                                <path d="M14.7397717,148.215119 C14.7397717,149.89736 13.3791704,151.260897 11.7005505,151.260897 C10.0224944,151.260897 8.66132928,149.89736 8.66132928,148.215119 L8.66132928,138.630808 C8.66132928,136.949131 10.0224944,135.584465 11.7005505,135.584465 C13.3791704,135.584465 14.7397717,136.949131 14.7397717,138.630808 L14.7397717,148.215119 Z" id="Fill-322" fill="#CCCCCC" mask="url(#mask-2)"></path>
                                <path d="M20.8183832,144.062011 C20.8183832,145.744253 19.4572181,147.107224 17.7785981,147.107224 C16.1005421,147.107224 14.7399408,145.744253 14.7399408,144.062011 L14.7399408,134.4777 C14.7399408,132.796024 16.1005421,131.431357 17.7785981,131.431357 C19.4572181,131.431357 20.8183832,132.796024 20.8183832,134.4777 L20.8183832,144.062011 Z" id="Fill-323" fill="#CCCCCC" mask="url(#mask-2)"></path>
                                <path d="M26.8964308,148.215119 C26.8964308,149.89736 25.5363935,151.260897 23.8572097,151.260897 C22.1785897,151.260897 20.8185523,149.89736 20.8185523,148.215119 L20.8185523,138.630808 C20.8185523,136.949131 22.1785897,135.584465 23.8572097,135.584465 C25.5363935,135.584465 26.8964308,136.949131 26.8964308,138.630808 L26.8964308,148.215119 Z" id="Fill-324" fill="#CCCCCC" mask="url(#mask-2)"></path>
                                <path d="M8.66116012,147.537476 C8.66116012,148.982383 7.64056822,150.153228 6.38146231,150.153228 C5.12292025,150.153228 4.10232835,148.982383 4.10232835,147.537476 L4.10232835,139.308225 C4.10232835,137.863882 5.12292025,136.693037 6.38146231,136.693037 C7.64056822,136.693037 8.66116012,137.863882 8.66116012,139.308225 L8.66116012,147.537476 Z" id="Fill-325" fill="#CCCCCC" mask="url(#mask-2)"></path>
                                <polyline id="Stroke-326" stroke="#CCCCCC" stroke-width="1.96" stroke-linecap="round" stroke-linejoin="round" mask="url(#mask-2)" points="14.7397717 152.130949 66.4065318 152.130949 66.4065318 150.970841"></polyline>
                                <path d="M146.879188,137.85501 L146.628269,138.552318 L146.628269,137.735778 C146.628269,137.735778 146.631088,137.738604 146.638419,137.741429 C146.666612,137.755556 146.7495,137.794547 146.879188,137.85501" id="Fill-327" fill="#CCCCCC" mask="url(#mask-2)"></path>
                                <polygon id="Fill-328" fill="#CCCCCC" mask="url(#mask-2)" points="-3.49595016 180.825397 182.274894 180.825397 182.274894 153.406616 -3.49595016 153.406616"></polygon>
                            </g>
                            <path d="M163.257094,130.356124 C163.257094,130.721166 163.206911,131.077731 163.116129,131.411128 L163.257094,131.460855 C158.502038,141.754905 147.131742,137.103737 145.300316,136.27307 L145.314412,136.228994 C145.228705,136.209217 145.142998,136.187178 145.06011,136.15949 C145.052216,136.156664 145.049397,136.153839 145.049397,136.153839 C144.654129,136.026696 144.281415,135.818747 143.955502,135.531121 L110.919337,106.401845 C109.542384,105.189185 109.485434,103.005153 110.785702,101.52408 L119.801306,91.2509371 C121.102702,89.7698641 123.274702,89.5500483 124.647708,90.7610133 L143.533169,107.409947 L143.533169,81.1665308 C143.533169,79.1508927 145.016129,77.5166832 146.847555,77.5166832 L159.941017,77.5166832 C161.773007,77.5166832 163.257094,79.1508927 163.257094,81.1665308 L163.257094,130.356124 Z" id="Fill-330" fill="#F94141"></path>
                            <polygon id="Fill-332" fill="#C1272D" points="143.532887 107.409664 143.532887 129.849531 129.54965 113.40007 137.682809 102.252185"></polygon>
                            <path d="M164.541179,60.0898051 L163.987466,63.9312146 C163.987466,65.8982559 160.997301,78.480313 160.997301,78.480313 C155.189513,82.9856908 145.232257,79.9591257 145.232257,79.9591257 C145.232257,79.9591257 145.09975,74.9287892 143.440865,74.2054876 C137.836631,65.9824527 131.801042,46.1436463 144.178961,48.0863892 L144.178961,30.7893098 C144.178961,29.3444019 145.560989,28.1707321 147.264419,28.1707321 C148.115288,28.1707321 148.888908,28.4662686 149.448824,28.9409352 C150.00874,29.4133416 150.353824,30.064313 150.353824,30.7893098 L150.353824,42.5005797 C150.257404,42.75204 150.204401,43.022713 150.204401,43.3029924 L150.204401,49.5985416 L155.735332,51.1282114 L156.550114,51.3519829 C158.059011,51.7678813 158.910444,53.1817098 158.454279,54.507386 C158.084385,55.5917733 156.956659,56.2806051 155.735332,56.273259 L155.71898,56.273259 C155.554332,56.2698686 155.390248,56.2557416 155.223345,56.2235321 C155.115083,56.2094051 155.008513,56.1851067 154.901943,56.1551575 L150.207784,54.8588654 C150.207784,54.8588654 146.987563,55.2821098 144.70279,54.0790559 C145.009531,54.2768337 154.83879,60.5989416 155.611846,67.5386813 C155.611846,67.5386813 157.790049,61.6143892 156.544475,58.1425416 C157.046877,58.5923448 157.738737,58.8703638 158.501644,58.8703638 C160.025765,58.8703638 161.264008,57.7582876 161.264008,56.3857098 L161.264008,58.1052463 C161.264008,58.672586 161.554398,59.1868083 162.022404,59.5586305 C162.494921,59.9298876 163.142799,60.1610051 163.858341,60.1610051 C164.094036,60.1610051 164.324656,60.1361416 164.541179,60.0898051" id="Fill-334" fill="#F9D7AF"></path>
                            <path d="M155.611902,67.5384552 C154.838846,60.5992806 145.009588,54.2766076 144.702846,54.0793949 C146.987619,55.2824489 150.20784,54.8592044 150.20784,54.8592044 C150.227575,55.5158267 150.531498,56.1074648 151.014164,56.543706 C151.51713,56.9935092 152.207862,57.2715283 152.970769,57.2715283 C153.900579,57.2715283 154.724382,56.8584552 155.223401,56.2238711 C155.38974,56.2555156 155.554388,56.2702076 155.719036,56.273033 L155.735388,56.273033 L155.735388,56.3860489 C155.735388,57.0726203 156.046077,57.6913822 156.544532,58.1423156 C157.790105,61.6147283 155.611902,67.5384552 155.611902,67.5384552" id="Fill-336" fill="#DDB28E"></path>
                            <path d="M75.721209,96.1996762 C77.3693804,97.8598794 77.6535673,100.254686 76.3561187,101.549283 L23.0203243,154.762806 C21.7223118,156.057403 19.3343523,155.761302 17.6856171,154.102229 L7.90315919,144.25459 C6.25442399,142.594952 5.97023707,140.199581 7.26824953,138.904984 L60.6034801,85.6914603 C61.9014925,84.3968635 64.2905798,84.6929651 65.9381872,86.351473 L75.721209,96.1996762 Z" id="Fill-350" fill="#F94141"></path>
                            <path d="M110.821112,154.914417 C110.821112,156.74923 109.336461,158.237084 107.506162,158.237084 L60.5403274,158.237084 C58.7089006,158.237084 57.2248134,156.74923 57.2248134,154.914417 L49.217396,83.2815663 C49.217396,81.4467537 50.7014832,79.9588997 52.53291,79.9588997 L113.123929,79.9588997 C114.954228,79.9588997 116.438879,81.4467537 116.438879,83.2815663 L110.821112,154.914417 Z" id="Fill-352" fill="#F94141"></path>
                            <path d="M61.7394383,43.513767 C61.7394383,43.513767 53.0824508,26.1533987 63.0927093,21.5937733 C73.1001486,17.0324527 87.7927249,5.69978603 98.3956034,14.6834178 C108.99679,23.6664844 114.020809,31.4764463 108.381052,42.5655638" id="Fill-354" fill="#471F04"></path>
                            <path d="M76.1969966,43.89124 C76.1969966,45.8927511 74.7112178,47.5179194 72.8735885,47.5179194 C71.0427255,47.5179194 69.555819,45.8927511 69.555819,43.89124 C69.555819,41.9631892 70.9344639,40.3854876 72.6711617,40.2758622 C72.739953,40.2707765 72.8047972,40.2656908 72.8735885,40.2656908 C73.3726072,40.2656908 73.8473798,40.3854876 74.2697131,40.6036083 C74.2719685,40.6064337 74.2792988,40.6064337 74.2815542,40.6064337 C75.4160464,41.1828146 76.1969966,42.4333352 76.1969966,43.89124" id="Fill-356" fill="#F9D7AF"></path>
                            <path d="M87.2445938,59.3580838 C84.2685252,60.1989219 80.0175626,57.679233 80.0175626,57.679233 L83.9234411,43.5923695 C83.854086,44.0998108 82.5515626,53.7321537 83.0173134,56.2778362 C83.4982885,58.8930235 87.2445938,59.3580838 87.2445938,59.3580838" id="Fill-358" fill="#F9D7AF"></path>
                            <path d="M99.5141383,42.566807 C99.5141383,44.5688832 98.0266679,46.1900959 96.1952411,46.1900959 C94.3604312,46.1900959 92.8735246,44.5688832 92.8735246,42.566807 C92.8735246,41.1281149 93.6375589,39.8843752 94.7506243,39.2978229 L94.7540075,39.2978229 C95.1898735,39.0684006 95.6781788,38.9412578 96.1952411,38.9412578 C96.2713626,38.9412578 96.3497396,38.9457784 96.4247333,38.9474737 C98.1490262,39.0763117 99.5141383,40.6477975 99.5141383,42.566807" id="Fill-360" fill="#F9D7AF"></path>
                            <path d="M72.6711617,40.2755797 C72.739953,40.270494 72.8047972,40.2654083 72.8735885,40.2654083 C73.3726072,40.2654083 73.8468159,40.3852051 74.2697131,40.6033257 C74.2719685,40.6061511 74.2792988,40.6061511 74.2809903,40.6061511 C75.4160464,41.1825321 76.1969966,42.4330527 76.1969966,43.8909575 C76.1969966,45.8924686 74.7112178,47.5176368 72.8735885,47.5176368 C71.0427255,47.5176368 69.555819,45.8924686 69.555819,43.8909575 C69.555819,41.9629067 70.9344639,40.3852051 72.6711617,40.2755797 L72.6711617,40.2755797 Z M83.9236103,43.5920305 C83.8542551,44.1000368 82.5511679,53.7318146 83.0174826,56.2774971 C83.4984576,58.8926844 87.2447629,59.3583098 87.2447629,59.3583098 C84.2681305,60.1991479 80.0171679,57.679459 80.0171679,57.679459 L83.9236103,43.5920305 Z M94.7503424,39.2979924 L94.7537255,39.2979924 C95.1901555,39.0680051 95.6784607,38.9414273 96.1955231,38.9414273 C96.2710807,38.9414273 96.3494576,38.9453829 96.4244514,38.9470781 C98.1493081,39.0764813 99.5138564,40.6474019 99.5138564,42.5669765 C99.5138564,44.5690527 98.0269498,46.1902654 96.1955231,46.1902654 C94.3607131,46.1902654 92.8732427,44.5690527 92.8732427,42.5669765 C92.8732427,41.1282844 93.6378408,39.8845448 94.7503424,39.2979924 L94.7503424,39.2979924 Z M107.881018,44.2588241 L107.881018,44.2537384 C107.764299,42.6895987 107.193106,37.4835225 104.610613,34.575059 C101.549965,31.1275098 92.2738564,27.2985321 96.8276134,19.7496368 C96.3088595,20.3627479 86.9532458,31.2631289 76.1552707,29.0474527 C76.1552707,29.0474527 79.0304078,27.597459 79.2209935,25.9400813 C79.2209935,25.9400813 72.7196539,27.9331162 66.0091212,27.5386908 L66.0034826,27.5386908 C62.3208938,28.2320432 61.9588938,40.9502844 61.9278813,44.0390083 L61.9278813,44.0423987 C61.9278813,44.1475035 61.9256259,44.2390463 61.9256259,44.3204178 C62.0248657,45.5421194 62.2577411,48.0442908 62.6073361,51.0827225 C63.5320713,59.07464 65.2744078,70.7418337 67.577224,72.3297067 C71.406981,74.9669321 77.2068751,80.5256178 82.9954919,80.5256178 C82.9954919,80.5256178 86.442386,80.534659 86.9273081,80.5222273 C92.7176165,80.3577892 98.5180745,74.9567606 102.345012,72.3206654 C104.668691,70.7260114 106.378324,58.9734908 107.263588,51.0442971 C107.592321,48.0906273 107.80828,45.6636114 107.895679,44.4905067 L107.895679,44.4814654 C107.891168,44.4221321 107.888912,44.3458463 107.881018,44.2588241 L107.881018,44.2588241 Z" id="Fill-362" fill="#F9D7AF"></path>
                            <path d="M61.9277685,44.0391213 L61.9277685,44.0425117 C61.9277685,44.1470514 61.9260769,44.2391594 61.9260769,44.3205308 C61.851647,43.4220546 61.851647,43.2282324 61.9277685,44.0391213" id="Fill-364" fill="#F9D7AF"></path>
                            <path d="M107.942874,43.7565816 L107.942874,43.7701435 C107.942874,43.8577308 107.927086,44.1052356 107.89551,44.4815784 C107.890999,44.4222451 107.888743,44.3459594 107.881413,44.2589371 L107.881413,44.2538514 C107.881413,44.2391594 107.883105,44.2244673 107.883105,44.2092102 C107.888743,44.1899975 107.890999,44.1719149 107.890999,44.1521371 C107.890999,44.1312292 107.89551,44.1052356 107.898893,44.0752863 C107.927086,43.78088 107.942874,43.6825562 107.942874,43.7565816" id="Fill-366" fill="#F9D7AF"></path>
                            <path d="M67.4017498,40.0736203 C67.4017498,40.0736203 67.4446034,39.8944902 67.5900801,39.6187314 C67.738376,39.3441029 67.9876034,38.9717156 68.3670832,38.5959378 C68.7482545,38.2359822 69.2506564,37.8494679 69.8551174,37.5816203 C70.1511455,37.4256584 70.4753667,37.3307251 70.8052265,37.2227949 C71.1390333,37.1278616 71.485809,37.0719187 71.831457,37.0182362 C72.1804882,37.0012838 72.5289555,36.9572076 72.8689648,36.9843314 C73.2078464,37.0086298 73.5439087,37.0284076 73.859672,37.0939568 C74.1737436,37.1634616 74.4737187,37.2414425 74.7550863,37.3239441 C75.0325069,37.4256584 75.2839897,37.5375441 75.5179928,37.6471695 C75.9826159,37.8517283 76.3265723,38.1308775 76.5695972,38.3100076 C76.8086751,38.4953537 76.9304695,38.6224965 76.9304695,38.6224965 C76.9304695,38.6224965 76.7517249,38.6643124 76.4568246,38.6999124 C76.1602327,38.7513346 75.7604539,38.7490743 75.286809,38.8089727 C75.0516782,38.8287505 74.8013231,38.8406171 74.54251,38.8496584 C74.2836969,38.875087 74.0130427,38.8982552 73.7384414,38.9056013 C73.4638402,38.9157727 73.1858558,38.9621092 72.9033604,38.9694552 C72.6242483,38.996579 72.3423168,39.0242679 72.0586938,39.0519568 C71.77789,39.0869917 71.498214,39.1231568 71.2247405,39.159887 C70.955214,39.21696 70.675538,39.2378679 70.4172888,39.2977663 C69.8850022,39.3847886 69.3955692,39.5147568 68.9489897,39.6187314 C68.5063573,39.7255314 68.129133,39.8453283 67.8483293,39.9266997 C67.5652701,40.0210679 67.4017498,40.0736203 67.4017498,40.0736203" id="Fill-368" fill="#471F04"></path>
                            <path d="M76.684005,46.1653454 C76.684005,48.3889327 75.1734162,50.1977517 73.3059022,50.1977517 C71.4451545,50.1977517 69.933438,48.3889327 69.933438,46.1653454 C69.933438,44.0180438 71.3352012,42.2668629 73.1000922,42.1442406 C73.1694474,42.1391549 73.2359832,42.1340692 73.3059022,42.1340692 C73.8133788,42.1340692 74.2949178,42.2668629 74.7245813,42.5081517 C74.7268368,42.5115422 74.734167,42.5115422 74.7364224,42.5115422 C75.8895221,43.1529073 76.684005,44.5446978 76.684005,46.1653454" id="Fill-370" fill="#0C0501"></path>
                            <path d="M71.3733184,46.7784565 C71.3733184,48.1391676 72.2061439,49.2405073 73.2351938,49.2405073 C74.2636798,49.2405073 75.0953776,48.1391676 75.0953776,46.7784565 C75.0953776,45.4211359 74.2636798,44.3192311 73.2351938,44.3192311 C72.2061439,44.3192311 71.3733184,45.4211359 71.3733184,46.7784565" id="Fill-372" fill="#FFFFFF"></path>
                            <path d="M74.7248069,42.5083213 C74.7248069,42.5083213 74.6165452,42.5083213 74.423704,42.49928 C74.2365016,42.5015403 73.959081,42.4331657 73.6512118,42.4523784 C73.4961495,42.4535086 73.3326293,42.4574641 73.1645981,42.4523784 C73.0450592,42.449553 72.8082368,42.506061 72.622162,42.5173625 C72.4293209,42.5433562 72.2099782,42.5523975 72.0210841,42.5953435 C71.844595,42.6518514 71.6613396,42.7089244 71.4803396,42.7659975 C71.2925732,42.7942514 71.116648,42.8999213 70.9379034,42.9818578 C70.7619782,43.0767911 70.5691371,43.1231276 70.4168941,43.2457498 C70.2505545,43.3457689 70.0898536,43.4452229 69.9387383,43.5378959 C69.7977726,43.6514768 69.6573707,43.7509308 69.52881,43.844734 C69.0258442,44.2442451 68.6909097,44.5669054 68.6909097,44.5669054 C68.6909097,44.5669054 68.8222897,44.0899784 69.2418037,43.5090768 C69.4509969,43.2203213 69.7323645,42.9117879 70.0830872,42.6450705 C70.2466075,42.4936292 70.4467788,42.3868292 70.6480779,42.2800292 C70.853324,42.1726641 71.0472928,42.0449562 71.285243,41.9952292 C71.5186822,41.9375911 71.7487383,41.8805181 71.9759751,41.8223149 C72.1970093,41.7833244 72.3932336,41.8194895 72.5967882,41.8138387 C72.8082368,41.8200546 72.9610436,41.8138387 73.2023769,41.85848 C73.3952181,41.901426 73.5739626,41.9534133 73.7363551,42.0025752 C74.0645234,42.0890324 74.2855576,42.2602514 74.4614829,42.3450133 C74.6289502,42.4444673 74.7248069,42.5083213 74.7248069,42.5083213" id="Fill-374" fill="#0C0501"></path>
                            <path d="M93.6415059,46.1350006 C93.6415059,48.359153 95.1520947,50.167407 97.0190449,50.167407 C98.8803564,50.167407 100.391509,48.359153 100.391509,46.1350006 C100.391509,43.9882641 98.9897458,42.2370832 97.2248548,42.1138959 C97.154372,42.1088102 97.0889639,42.1031594 97.0190449,42.1031594 C96.512696,42.1031594 96.0300293,42.2370832 95.6003657,42.4772419 C95.5986741,42.4806324 95.5913439,42.4806324 95.5885246,42.4806324 C94.4342972,43.1231276 93.6415059,44.5149181 93.6415059,46.1350006" id="Fill-376" fill="#0C0501"></path>
                            <path d="M98.9519106,46.7486203 C98.9519106,48.1093314 98.119085,49.2106711 97.0889075,49.2106711 C96.0609854,49.2106711 95.2292875,48.1093314 95.2292875,46.7486203 C95.2292875,45.3912997 96.0609854,44.2893949 97.0889075,44.2893949 C98.119085,44.2893949 98.9519106,45.3912997 98.9519106,46.7486203" id="Fill-378" fill="#FFFFFF"></path>
                            <path d="M95.6001402,42.4774114 C95.6001402,42.4774114 95.7084019,42.4774114 95.9001153,42.4683702 C96.0884455,42.4711956 96.365866,42.403386 96.6742991,42.4220337 C96.8287975,42.4231638 96.9917539,42.4282495 97.159785,42.4220337 C97.279324,42.4186432 97.5167103,42.4751511 97.7022212,42.4875829 C97.8944984,42.5130114 98.114405,42.5226178 98.3038629,42.5655638 C98.480352,42.6215067 98.6636075,42.6791448 98.8440436,42.7350876 C99.0323738,42.7639067 99.2082991,42.8695765 99.3870436,42.9520781 C99.5629688,43.0458813 99.7546822,43.0933479 99.9091807,43.2159702 C100.074393,43.3159892 100.235093,43.4148781 100.385645,43.506986 C100.526611,43.6216971 100.667012,43.7211511 100.795573,43.8143892 C101.298539,44.2144654 101.633474,44.5371257 101.633474,44.5371257 C101.633474,44.5371257 101.502093,44.0601987 101.083143,43.4792971 C100.873386,43.1894114 100.592019,42.8814432 100.242424,42.6152908 C100.077776,42.4638495 99.8781682,42.3570495 99.6763053,42.2491194 C99.4710592,42.1417543 99.2776542,42.0140463 99.0402679,41.9654495 C98.8062648,41.9072463 98.5756449,41.8507384 98.3484081,41.7925352 C98.1279377,41.7535448 97.9311495,41.7885797 97.7287227,41.7829289 C97.5167103,41.7897098 97.3639034,41.7829289 97.1225701,41.8287003 C96.929729,41.8705162 96.7509844,41.9236337 96.5885919,41.9727956 C96.2604237,42.0592527 96.0388255,42.2304717 95.8634642,42.3152337 C95.6965607,42.4135575 95.6001402,42.4774114 95.6001402,42.4774114" id="Fill-380" fill="#0C0501"></path>
                            <path d="M102.402808,39.4086914 C102.402808,39.4086914 102.241543,39.3572692 101.957356,39.2640311 C101.67768,39.1815295 101.297637,39.063993 100.85444,38.9554978 C100.408989,38.8520883 99.9189919,38.7215549 99.3867053,38.6350978 C99.1312754,38.572939 98.8515994,38.5537263 98.5809452,38.4966533 C98.3074717,38.4610533 98.0266679,38.4248883 97.7481196,38.3892883 C97.4644966,38.3610343 97.1808735,38.3333454 96.9023252,38.3073517 C96.6175745,38.3005708 96.3418455,38.2536692 96.0655526,38.2418025 C95.7909514,38.2338914 95.5225526,38.2135486 95.2626118,38.1864248 C95.002671,38.1756883 94.7556991,38.166647 94.5183128,38.1468692 C94.0463595,38.0869708 93.6437614,38.0892311 93.3482972,38.0372438 C93.0533969,38.0022089 92.8735246,37.960393 92.8735246,37.960393 C92.8735246,37.960393 92.999266,37.83212 93.2377801,37.647339 C93.4802411,37.468774 93.8241975,37.1896248 94.2888206,36.9811105 C94.5205682,36.8754406 94.7737427,36.7612946 95.0511632,36.6612756 C95.3325308,36.5776438 95.6313782,36.5002279 95.9465776,36.4307232 C96.2612131,36.3663041 96.5972754,36.3453962 96.9378486,36.3210978 C97.2767302,36.294539 97.6257614,36.3397454 97.9742287,36.3555676 C98.3187489,36.4064248 98.6660885,36.4668883 98.9982037,36.5606914 C99.3297551,36.6663613 99.6545402,36.7635549 99.9505682,36.9178216 C100.555593,37.1867994 101.05574,37.5727486 101.438039,37.9343994 C101.815827,38.3101771 102.065618,38.6819994 102.21335,38.9532375 C102.359955,39.2323867 102.402808,39.4086914 102.402808,39.4086914" id="Fill-382" fill="#471F04"></path>
                            <path d="M62.3856252,34.876981 C62.3856252,34.876981 63.4152389,54.5513492 67.4017498,58.4882571 L63.7716003,56.2194635 C63.7716003,56.2194635 61.7174477,46.2395968 61.8736377,41.413819 C62.0292639,36.5880413 62.3856252,34.876981 62.3856252,34.876981" id="Fill-384" fill="#471F04"></path>
                            <path d="M107.418651,37.3100432 C107.418651,37.3100432 106.390165,56.9844114 102.402526,60.9247098 L106.030984,58.6536559 C106.030984,58.6536559 108.089084,48.6732241 107.932894,43.8491416 C107.774448,39.0239289 107.418651,37.3100432 107.418651,37.3100432" id="Fill-386" fill="#471F04"></path>
                            <path d="M89.1922327,62.1051041 C89.1922327,62.8182343 88.4558277,63.3974406 87.5480084,63.3974406 L82.2730707,63.3974406 C81.3652514,63.3974406 80.6294103,62.8182343 80.6294103,62.1051041 C80.6294103,62.1051041 81.3652514,46.8863867 82.2730707,46.8863867 L87.5480084,46.8863867 C88.4558277,46.8863867 89.1922327,62.1051041 89.1922327,62.1051041" id="Fill-388" fill="#F4BA84"></path>
                            <path d="M96.8847891,66.0816241 C96.8847891,71.5758908 91.9233592,76.0292813 85.8048826,76.0292813 C79.6858421,76.0292813 74.724976,71.5758908 74.724976,66.0816241" id="Fill-390" fill="#FFFFFF"></path>
                            <path d="M96.6496583,42.844939 C95.2518421,42.865847 93.8653031,42.9720819 92.4928607,43.2557517 C91.4593,43.4704819 90.459571,43.77732 89.5647206,44.353701 C88.4341754,45.0843486 87.8404277,46.1003613 87.9678607,47.4463803 C88.1342003,49.1998216 88.5728857,50.8882787 89.4214994,52.4450724 C90.4917112,54.4064629 92.0919542,55.7643486 94.314138,56.3412946 C96.1416178,56.8159613 97.9927798,56.8159613 99.8473249,56.5017771 C100.78954,56.3412946 101.678752,56.0271105 102.454063,55.4575105 C103.458303,54.7212121 104.022166,53.7018089 104.32045,52.5360502 C104.823979,50.5904819 104.871907,48.6104438 104.676247,46.6281454 C104.548814,45.2821263 103.89868,44.2158216 102.601231,43.6405708 C102.097138,43.4167994 101.551883,43.2534914 101.007191,43.1376502 C99.5732875,42.8296819 98.1123187,42.8336375 96.6496583,42.844939 M72.0274558,43.2743994 C71.5594495,43.2806152 71.0953903,43.2806152 70.6347143,43.3032184 C69.6688171,43.3472946 68.7158888,43.4529644 67.7804402,43.6970787 C66.1801972,44.1101517 65.1082938,45.0577898 64.7073872,46.6558343 C64.5771349,47.1649708 64.4908639,47.6910597 64.4468826,48.2143232 C64.3222688,49.7762025 64.4045928,51.3279105 64.8957174,52.8344121 C65.6552408,55.1772311 67.221652,56.6549137 69.7297143,57.0883295 C71.1923748,57.3369644 72.6584184,57.2533327 74.1058545,56.9798343 C76.6889106,56.4961263 78.6020975,55.0743867 79.8612034,52.8344121 C80.7560539,51.2454089 81.2291349,49.5173962 81.3475461,47.700101 C81.4152097,46.6603549 81.043624,45.8093454 80.2378639,45.1380311 C79.4191349,44.4582406 78.4504184,44.0700311 77.4332097,43.7937073 C75.6643717,43.3099994 73.8543717,43.1760756 72.0274558,43.2743994 M71.9107361,42.3651867 C74.5806271,42.2453898 77.1817268,42.681066 79.7783156,43.1913327 C80.9562252,43.4230152 82.1380819,43.6298343 83.3255773,43.8106597 C84.5215305,43.9914851 85.7101536,43.827047 86.8852439,43.5767168 C88.5334153,43.2246724 90.175948,42.81612 91.833705,42.4974152 C94.4398794,41.9961898 97.074247,41.7741137 99.731733,42.0159676 C102.266861,42.2487803 104.801988,42.517193 107.338808,42.7697835 C107.681636,42.8031232 107.750992,42.8709327 107.76678,43.2094152 C107.79892,43.9796184 107.828241,44.7498216 107.853615,45.5200248 C107.868275,45.835339 107.808506,45.891847 107.483721,45.9427041 C107.139764,45.9952565 106.905197,46.1998152 106.729272,46.4800946 C106.468203,46.8909073 106.397157,47.3559676 106.306375,47.8227232 C106.011474,49.359739 105.735745,50.9024057 105.374309,52.4247295 C105.095761,53.5854025 104.531898,54.6307994 103.662985,55.4959359 C102.714004,56.4373581 101.542297,56.9544057 100.240337,57.1956946 C98.1123187,57.5957708 95.9809168,57.618939 93.8653031,57.134101 C91.7558919,56.650393 90.1900445,55.4247359 89.0290508,53.6622533 C88.0360882,52.1557517 87.3431006,50.5108057 86.7296178,48.8285644 C86.6162813,48.518901 86.4809542,48.2143232 86.3287112,47.9204819 C85.7552626,46.7948438 83.9920632,46.6999105 83.2274651,47.6622406 C82.8214838,48.1764629 82.5626707,48.7511486 82.3523498,49.3586089 C81.9204308,50.5950025 81.4456583,51.8127486 80.8158234,52.9677708 C79.957624,54.542647 78.8169293,55.8536311 77.1941318,56.7210279 C76.1397081,57.2832819 75.004652,57.611593 73.8222315,57.7782914 C72.4108826,57.9771994 70.9944589,58.0235359 69.587057,57.739301 C68.0753405,57.4364184 66.6933125,56.8809454 65.5610757,55.817466 C64.835948,55.1376756 64.3735804,54.3053137 64.0905212,53.3695422 C63.5661287,51.6358787 63.1488701,49.8756565 62.8263405,48.0962216 C62.7028545,47.4062597 62.3340882,46.9078597 61.6247486,46.703301 C61.4031505,46.6417073 61.3033467,46.4993073 61.3033467,46.2919232 C61.2993997,45.5228502 61.2977081,44.7509517 61.3134963,43.9796184 C61.3213903,43.5829327 61.4826551,43.4343168 61.8852533,43.3891105 C64.2292315,43.1240883 66.5692626,42.8494597 68.9132408,42.6002597 C69.9073312,42.4945898 70.9098794,42.4431676 71.9107361,42.3651867" id="Fill-392" fill="#000000"></path>
                            <path d="M72.0271738,43.2742863 C73.8546536,43.1759625 75.6646536,43.3098863 77.4334916,43.7935943 C78.4501364,44.0699181 79.4194168,44.4586927 80.2375819,45.1379181 C81.0439059,45.8092324 81.4154916,46.6602419 81.347828,47.6999879 C81.2294168,49.5172832 80.755772,51.2452959 79.8609215,52.834299 C78.6023794,55.0742737 76.6886287,56.4960133 74.1061364,56.9797213 C72.6587003,57.2532197 71.1920928,57.3374165 69.7294324,57.0882165 C67.221934,56.6553657 65.6549589,55.1771181 64.8954355,52.834299 C64.4048748,51.3277975 64.3219869,49.7760895 64.4466006,48.2142102 C64.4905819,47.6909467 64.576853,47.1648578 64.7071053,46.6557213 C65.1080118,45.0576768 66.1804791,44.1100387 67.7807221,43.6969657 C68.7156069,43.4528514 69.6690991,43.3471816 70.6344324,43.3031054 C71.0956723,43.2810673 71.5591676,43.2810673 72.0271738,43.2742863" id="Fill-394" fill="#009FE3"></path>
                            <path d="M96.6496583,42.844939 C98.1123187,42.8336375 99.5732875,42.8296819 101.007191,43.1376502 C101.551883,43.2534914 102.097138,43.4167994 102.601231,43.6405708 C103.89868,44.2158216 104.548814,45.2821263 104.676247,46.6281454 C104.871907,48.6104438 104.823979,50.5904819 104.32045,52.5360502 C104.022166,53.7018089 103.458303,54.7212121 102.454063,55.4575105 C101.678752,56.0271105 100.78954,56.3412946 99.8473249,56.5017771 C97.9927798,56.8159613 96.1416178,56.8159613 94.314138,56.3412946 C92.0919542,55.7643486 90.4917112,54.4064629 89.4214994,52.4450724 C88.5728857,50.8882787 88.1342003,49.1998216 87.9678607,47.4463803 C87.8404277,46.1003613 88.4341754,45.0843486 89.5647206,44.353701 C90.459571,43.77732 91.4593,43.4704819 92.4928607,43.2557517 C93.8653031,42.9720819 95.2518421,42.865847 96.6496583,42.844939" id="Fill-396" fill="#009FE3"></path>
                            <path d="M129.129065,149.014197 C129.129065,150.720172 127.552504,152.104051 125.607741,152.104051 L47.4044639,152.104051 C45.4591368,152.104051 43.8831399,150.720172 43.8831399,149.014197 C43.8831399,148.164318 44.2784078,147.387899 44.9127536,146.827905 C45.5499187,146.271867 46.4346196,145.924909 47.4044639,145.924909 L125.607741,145.924909 C127.552504,145.924909 129.129065,147.307658 129.129065,149.014197" id="Fill-398" fill="#F2F2F2"></path>
                            <path d="M137.105752,76.457781 L137.105752,134.396498 C137.105752,136.50707 135.303646,138.216435 133.078643,138.216435 L36.2041726,138.216435 C35.0882879,138.216435 34.0834841,137.7898 33.3538455,137.097013 C32.6270262,136.407616 32.1736804,135.451502 32.1736804,134.396498 L32.1736804,76.457781 C32.1736804,74.3472095 33.9757863,72.6384095 36.2041726,72.6384095 L133.078643,72.6384095 C134.112204,72.6384095 135.052163,73.004581 135.764322,73.6080857 C136.588126,74.307654 137.105752,75.3236667 137.105752,76.457781" id="Fill-400" fill="#CCD0D6"></path>
                            <mask id="mask-4" fill="white">
                                <use xlink:href="#path-3"></use>
                            </mask>
                            <g id="Clip-403"></g>
                            <polygon id="Fill-402" fill="#EDEDED" mask="url(#mask-4)" points="74.0893333 147.613987 95.1902118 147.613987 95.1902118 138.216152 74.0893333 138.216152"></polygon>
                            <path d="M114.525861,149.915895 C114.525861,151.187888 113.496811,152.219723 112.227556,152.219723 L61.1816087,152.219723 C59.9117894,152.219723 58.8827396,151.187888 58.8827396,149.915895 C58.8827396,149.281876 59.1404249,148.703234 59.5548642,148.285076 C59.970995,147.870872 60.5478268,147.612066 61.1816087,147.612066 L112.227556,147.612066 C113.496811,147.612066 114.525861,148.643336 114.525861,149.915895" id="Fill-404" fill="#B2B2B2" mask="url(#mask-4)"></path>
                            <polygon id="Fill-405" fill="#DADADA" mask="url(#mask-4)" points="95.1904374 138.216435 95.1904374 147.61427 74.0895589 138.216435"></polygon>
                            <path d="M13.1610682,139.641283 L17.8665044,139.641283 C23.2790246,139.641283 27.6670059,145.374578 27.6670059,152.447111 L13.2992146,152.447111 L13.1610682,139.641283 Z" id="Fill-406" fill="#AABCBB" mask="url(#mask-4)"></path>
                            <path d="M13.299271,152.447168 L-0.239077882,152.447168 C-0.239077882,145.374634 4.14833956,139.641339 9.56085981,139.641339 L13.1611246,139.641339 L13.299271,152.447168 Z" id="Fill-407" fill="#D9DBDB" mask="url(#mask-4)"></path>
                            <path d="M13.1610682,146.63301 C13.1610682,148.315251 11.800467,149.678787 10.121847,149.678787 C8.44379097,149.678787 7.08262586,148.315251 7.08262586,146.63301 L7.08262586,137.048698 C7.08262586,135.367022 8.44379097,134.002356 10.121847,134.002356 C11.800467,134.002356 13.1610682,135.367022 13.1610682,137.048698 L13.1610682,146.63301 Z" id="Fill-408" fill="#F9D7AF" mask="url(#mask-4)"></path>
                            <path d="M19.2396798,142.479902 C19.2396798,144.162143 17.8785146,145.525115 16.1998947,145.525115 C14.5218386,145.525115 13.1612374,144.162143 13.1612374,142.479902 L13.1612374,132.895591 C13.1612374,131.213915 14.5218386,129.849248 16.1998947,129.849248 C17.8785146,129.849248 19.2396798,131.213915 19.2396798,132.895591 L19.2396798,142.479902 Z" id="Fill-409" fill="#FFD5B0" mask="url(#mask-4)"></path>
                            <path d="M25.3177274,146.63301 C25.3177274,148.315251 23.95769,149.678787 22.2785062,149.678787 C20.5998863,149.678787 19.2398489,148.315251 19.2398489,146.63301 L19.2398489,137.048698 C19.2398489,135.367022 20.5998863,134.002356 22.2785062,134.002356 C23.95769,134.002356 25.3177274,135.367022 25.3177274,137.048698 L25.3177274,146.63301 Z" id="Fill-410" fill="#F9D7AF" mask="url(#mask-4)"></path>
                            <path d="M7.0824567,145.955366 C7.0824567,147.400274 6.0618648,148.571119 4.80275888,148.571119 C3.54421682,148.571119 2.52362492,147.400274 2.52362492,145.955366 L2.52362492,137.726116 C2.52362492,136.281773 3.54421682,135.110928 4.80275888,135.110928 C6.0618648,135.110928 7.0824567,136.281773 7.0824567,137.726116 L7.0824567,145.955366 Z" id="Fill-411" fill="#FFD5B0" mask="url(#mask-4)"></path>
                            <polyline id="Stroke-412" stroke="#353A3A" stroke-width="1.96" stroke-linecap="round" stroke-linejoin="round" mask="url(#mask-4)" points="13.1610682 150.54884 64.8278283 150.54884 64.8278283 149.388732"></polyline>
                            <path d="M145.300485,136.272901 L145.049566,136.970209 L145.049566,136.153669 C145.049566,136.153669 145.052385,136.156495 145.059715,136.15932 C145.087908,136.173447 145.170796,136.212437 145.300485,136.272901" id="Fill-413" fill="#009FE3" mask="url(#mask-4)"></path>
                            <polygon id="Fill-414" fill="#EA9453" mask="url(#mask-4)" points="-5.07476636 179.243175 180.696078 179.243175 180.696078 151.824394 -5.07476636 151.824394"></polygon>
                            <g id="Group-423" mask="url(#mask-4)" fill="#CCCCCC">
                                <g transform="translate(38.342679, 75.155556)">
                                    <polygon id="Fill-415" points="18.849543 17.9996425 1.67484206 19.9412552 0.0452781931 2.22319175 17.220543 0.282144127"></polygon>
                                    <polygon id="Fill-416" points="17.4886034 3.19558032 0.313338629 5.13719302 0.0455037383 2.22307873 17.2202047 0.282031111"></polygon>
                                    <path d="M16.1450308,4.96919492 C16.1585636,5.11724571 16.062143,5.24947429 15.9279436,5.26473143 L1.65544517,6.90007111 C1.52237352,6.91476317 1.40283458,6.80796317 1.38930187,6.6593473 C1.3752053,6.51129651 1.47218972,6.37906794 1.60582523,6.36381079 L15.8783237,4.72903619 C16.0113953,4.71434413 16.1309343,4.82114413 16.1450308,4.96919492" id="Fill-417"></path>
                                    <path d="M10.3970685,7.1527746 C10.4106012,7.30139048 10.3570343,7.42796825 10.2775296,7.4375746 L1.7248567,8.41685714 C1.64478816,8.42589841 1.56866667,8.31457778 1.55513396,8.1659619 C1.54103738,8.01734603 1.59460436,7.89020317 1.6746729,7.88172698 L10.2267819,6.90187937 C10.3068505,6.8928381 10.3835358,7.00472381 10.3970685,7.1527746" id="Fill-418"></path>
                                    <path d="M12.6770483,11.3930737 C12.6911449,11.5411244 12.6240452,11.6699625 12.5270607,11.6812641 L2.21400779,12.8628451 C2.11758723,12.8735816 2.02849688,12.762826 2.01496417,12.6142102 C2.0008676,12.4661594 2.06796729,12.3378863 2.16382399,12.3265848 L12.4774408,11.1455689 C12.5738614,11.1348324 12.6629517,11.2444578 12.6770483,11.3930737" id="Fill-419"></path>
                                    <path d="M9.57247539,13.7991251 C9.5860081,13.9471759 9.54484611,14.0726235 9.47943801,14.0799695 L2.5224972,14.8772965 C2.45652523,14.8846425 2.39337259,14.7710616 2.37927601,14.6224457 C2.3657433,14.4743949 2.4069053,14.3489473 2.4723134,14.3416013 L9.42925421,13.5448394 C9.49466231,13.5369283 9.55837882,13.6499441 9.57247539,13.7991251" id="Fill-420"></path>
                                    <path d="M16.6758514,12.9564222 C16.6893841,13.104473 16.6578078,13.2287905 16.6048047,13.2355714 L10.9611006,13.8820222 C10.9080975,13.887673 10.8545305,13.7729619 10.8409978,13.6249111 C10.8263374,13.4768603 10.8584776,13.3519778 10.9109168,13.3457619 L16.5551847,12.6993111 C16.607624,12.6936603 16.6617548,12.8078063 16.6758514,12.9564222" id="Fill-421"></path>
                                    <path d="M13.316638,15.5997505 C13.3307346,15.7478013 13.2985944,15.8721187 13.2461551,15.8788997 L7.60188723,16.5253505 C7.54944798,16.5310013 7.49531713,16.4162902 7.48178442,16.2682394 C7.46825171,16.1201886 7.49982804,15.995306 7.55226729,15.9890902 L13.1965352,15.3426394 C13.2489745,15.3369886 13.3031053,15.4511346 13.316638,15.5997505" id="Fill-422"></path>
                                </g>
                            </g>
                            <polygon id="Fill-424" fill="#FFE448" mask="url(#mask-4)" points="56.9135611 92.8759924 39.7388601 94.8176051 38.1092963 77.0995416 55.2845611 75.158494"></polygon>
                            <polygon id="Fill-425" fill="#F9EB85" mask="url(#mask-4)" points="55.5526215 78.0719302 38.3773567 80.0135429 38.1095218 77.0994286 55.2842227 75.158381"></polygon>
                            <path d="M54.2090489,79.8454883 C54.2225816,79.993539 54.1261611,80.1257676 53.9919617,80.1410248 L39.7194632,81.7763644 C39.5863916,81.7910565 39.4668526,81.6842565 39.4533199,81.5356406 C39.4392234,81.3875898 39.5362078,81.2553613 39.6698433,81.2401041 L53.9423417,79.6053295 C54.0754134,79.5906375 54.1949523,79.6974375 54.2090489,79.8454883" id="Fill-426" fill="#25292D" mask="url(#mask-4)"></path>
                            <path d="M48.461143,82.0291244 C48.4746757,82.1777403 48.4211087,82.3043181 48.341604,82.3139244 L39.7889312,83.293207 C39.7088626,83.3022483 39.6327411,83.1909276 39.6192084,83.0423117 C39.6051118,82.8936959 39.6586788,82.766553 39.7387474,82.7580768 L48.2908564,81.7782292 C48.3709249,81.7691879 48.4476103,81.8810737 48.461143,82.0291244" id="Fill-427" fill="#25292D" mask="url(#mask-4)"></path>
                            <path d="M50.7410664,86.2694235 C50.7551629,86.4174743 50.6880632,86.5463124 50.5910788,86.557614 L40.2780259,87.7391949 C40.1816053,87.7499314 40.092515,87.6391759 40.0789822,87.49056 C40.0648857,87.3425092 40.1319854,87.2142362 40.2278421,87.2029346 L50.5414589,86.0219187 C50.6378794,86.0111822 50.7269698,86.1208076 50.7410664,86.2694235" id="Fill-428" fill="#25292D" mask="url(#mask-4)"></path>
                            <path d="M47.6365498,88.6754184 C47.6500826,88.8234692 47.6089206,88.9489168 47.5435125,88.9562629 L40.5865717,89.7535898 C40.5205997,89.7609359 40.457447,89.6473549 40.4433505,89.498739 C40.4298178,89.3506883 40.4709798,89.2252406 40.5363879,89.2178946 L47.4933287,88.4211327 C47.5587368,88.4132216 47.6224533,88.5262375 47.6365498,88.6754184" id="Fill-429" fill="#25292D" mask="url(#mask-4)"></path>
                            <path d="M54.7398695,87.8327721 C54.7534022,87.9808229 54.7218259,88.1051403 54.6688227,88.1119213 L49.0251187,88.7583721 C48.9721156,88.7640229 48.9185486,88.6493117 48.9050159,88.501261 C48.8903555,88.3532102 48.9224956,88.2283276 48.9749349,88.2221117 L54.6192028,87.575661 C54.6716421,87.5700102 54.7257729,87.6841562 54.7398695,87.8327721" id="Fill-430" fill="#25292D" mask="url(#mask-4)"></path>
                            <path d="M51.3806561,90.4760438 C51.3947526,90.6240946 51.3626125,90.7484121 51.3101732,90.755193 L45.6659053,91.4016438 C45.613466,91.4072946 45.5593352,91.2925835 45.5458025,91.1445327 C45.5322698,90.9964819 45.5638461,90.8715994 45.6162854,90.8653835 L51.2605533,90.2189327 C51.3129925,90.2132819 51.3671234,90.3274279 51.3806561,90.4760438" id="Fill-431" fill="#25292D" mask="url(#mask-4)"></path>
                            <g id="Group-439" mask="url(#mask-4)" fill="#CCCCCC">
                                <g transform="translate(47.364486, 85.892063)">
                                    <polygon id="Fill-432" points="17.2471573 21.1037365 0.190867601 18.1415905 2.67693925 0.546149206 19.7326651 3.50829524"></polygon>
                                    <polygon id="Fill-433" points="19.3242028 6.40285778 2.26791308 3.44014667 2.67727757 0.546375238 19.7330034 3.50852127"></polygon>
                                    <path d="M15.1973464,7.53685905 C15.1776112,7.68377968 15.0941595,7.79227492 15.0123994,7.77814794 L6.2358729,6.32306857 C6.15354891,6.30950667 6.10336511,6.17897333 6.12366417,6.0320527 C6.14339938,5.88456698 6.22572336,5.77663683 6.30748349,5.79019873 L15.0845738,7.2452781 C15.166334,7.25940508 15.2170816,7.38880825 15.1973464,7.53685905" id="Fill-434"></path>
                                    <path d="M13.4732791,9.19734476 C13.4535439,9.3442654 13.3932106,9.45558603 13.3385159,9.44710984 L7.51042866,8.48025905 C7.45629782,8.47178286 7.42754081,8.34464 7.44783988,8.19715429 C7.46813894,8.05023365 7.52847227,7.93834794 7.58260312,7.94795429 L13.4101265,8.91424 C13.4648212,8.92328127 13.4930143,9.04929397 13.4732791,9.19734476" id="Fill-435"></path>
                                    <path d="M12.496443,11.8395429 C12.4767078,11.9864635 12.385362,12.0932635 12.2928885,12.0780063 L2.40329657,10.437581 C2.31025919,10.4217587 2.25161745,10.2906603 2.27191651,10.1431746 C2.29108785,9.99625397 2.38243364,9.88945397 2.47490717,9.90471111 L12.3644991,11.5451365 C12.4569726,11.5603937 12.5161782,11.6914921 12.496443,11.8395429" id="Fill-436"></path>
                                    <path d="M14.5266879,13.7880495 C14.5069526,13.9349702 14.4156069,14.0417702 14.3231333,14.0259479 L4.43354143,12.3860876 C4.34106791,12.3702654 4.28186231,12.239167 4.30216137,12.0911162 C4.32189657,11.9441956 4.4126785,11.8379606 4.50515202,11.8532178 L14.3953078,13.4936432 C14.4872174,13.5089003 14.5469869,13.6399987 14.5266879,13.7880495" id="Fill-437"></path>
                                    <path d="M12.179552,15.5147625 C12.1598168,15.6616832 12.0695988,15.7684832 11.9765614,15.753226 L2.08640561,14.1139308 C1.99449595,14.0981086 1.93529034,13.9664451 1.95558941,13.8189594 C1.97476075,13.6714737 2.06610654,13.5652387 2.15858006,13.581061 L12.0487358,15.2203562 C12.1400816,15.2356133 12.1998511,15.3667117 12.179552,15.5147625" id="Fill-438"></path>
                                </g>
                            </g>
                            <polygon id="Fill-440" fill="#FFE448" mask="url(#mask-4)" points="64.3329822 106.716594 47.2766925 103.754448 49.7627642 86.159007 66.81849 89.121153"></polygon>
                            <polygon id="Fill-441" fill="#F9EB85" mask="url(#mask-4)" points="66.4100277 92.015659 49.353738 89.0529479 49.7631025 86.1591765 66.8188283 89.1213225"></polygon>
                            <path d="M62.2832277,93.1497168 C62.2634925,93.2966375 62.1800408,93.4051327 62.0982807,93.3910057 L53.3217542,91.9359263 C53.2394302,91.9223644 53.1892464,91.7918311 53.2095455,91.6449105 C53.2292807,91.4974248 53.3116047,91.3894946 53.3933648,91.4030565 L62.1704551,92.8581359 C62.2522153,92.8722629 62.3029629,93.001666 62.2832277,93.1497168" id="Fill-442" fill="#25292D" mask="url(#mask-4)"></path>
                            <path d="M60.5591604,94.8102025 C60.5394252,94.9571232 60.4790919,95.0684438 60.4243972,95.0599676 L54.59631,94.0931168 C54.5421791,94.0846406 54.5134221,93.9574978 54.5337212,93.8100121 C54.5540202,93.6630914 54.6143536,93.5512057 54.6684844,93.5608121 L60.4960078,94.5270978 C60.5507025,94.536139 60.5788956,94.6621517 60.5591604,94.8102025" id="Fill-443" fill="#25292D" mask="url(#mask-4)"></path>
                            <path d="M59.5822679,97.4523441 C59.5625327,97.5992648 59.4711869,97.7060648 59.3787134,97.6908076 L49.4891215,96.0503822 C49.3960841,96.03456 49.3374424,95.9034616 49.3577414,95.7559759 C49.3769128,95.6090552 49.4682586,95.5022552 49.5607321,95.5175124 L59.450324,97.1579378 C59.5427975,97.1731949 59.6020031,97.3042933 59.5822679,97.4523441" id="Fill-444" fill="#25292D" mask="url(#mask-4)"></path>
                            <path d="M61.6125128,99.4009073 C61.5927776,99.5478279 61.5014318,99.6546279 61.4089583,99.6388057 L51.5193664,97.9989454 C51.4268928,97.9831232 51.3676872,97.8520248 51.3879863,97.703974 C51.4077215,97.5570533 51.4985034,97.4508184 51.5909769,97.4660756 L61.4811327,99.106501 C61.5730424,99.1217581 61.6328118,99.2528565 61.6125128,99.4009073" id="Fill-445" fill="#25292D" mask="url(#mask-4)"></path>
                            <path d="M59.2653769,101.127564 C59.2456417,101.274484 59.1554237,101.381284 59.0623863,101.366027 L49.1722305,99.7267321 C49.0803209,99.7109098 49.0211153,99.5792463 49.0414143,99.4317606 C49.0605857,99.2842749 49.1519315,99.17804 49.244405,99.1938622 L59.1345607,100.833157 C59.2259065,100.848415 59.285676,100.979513 59.2653769,101.127564" id="Fill-446" fill="#25292D" mask="url(#mask-4)"></path>
                            <g id="Group-456" mask="url(#mask-4)">
                                <g transform="translate(112.208723, 110.755556)">
                                    <polygon id="Fill-447" stroke="none" fill="#CCCCCC" fill-rule="evenodd" points="0.283623053 14.4596463 2.715 0.0410812698 20.0712648 1.90753841 17.1363583 19.3074622 3.73953894 17.8665098"></polygon>
                                    <polyline id="Fill-448" stroke="none" fill="#CCCCCC" fill-rule="evenodd" points="3.73948255 17.8666794 3.05833614 13.713346 0.286385981 14.4569905"></polyline>
                                    <polygon id="Fill-449" stroke="none" fill="#CCCCCC" fill-rule="evenodd" points="19.5882034 4.76887429 2.23306636 2.90185206 2.71516916 0.0414203175 20.0708701 1.90787746"></polygon>
                                    <path d="M13.2965081,6.35539111 C13.2671872,6.50005143 13.1673835,6.60572127 13.07491,6.59328952 L3.09002523,5.13934032 C2.99698785,5.12634349 2.94511246,4.99863556 2.97386947,4.85284508 C3.00319034,4.70818476 3.10299408,4.60138476 3.19659533,4.61607683 L13.1797885,6.06833079 C13.2733897,6.08245778 13.325829,6.21073079 13.2965081,6.35539111" id="Fill-450" stroke="none" fill="#CCCCCC" fill-rule="evenodd"></path>
                                    <path d="M12.9325346,8.59033651 C12.9037776,8.73499683 12.8039738,8.84066667 12.7109364,8.82710476 L2.72661558,7.37485079 C2.63357819,7.36072381 2.5817028,7.23245079 2.61102368,7.0872254 C2.63921682,6.94256508 2.73958442,6.83633016 2.83262181,6.85102222 L12.8169427,8.30327619 C12.9099801,8.31740317 12.9618555,8.44454603 12.9325346,8.59033651" id="Fill-451" stroke="none" fill="#CCCCCC" fill-rule="evenodd"></path>
                                    <path d="M16.6857754,15.539061 C15.9234327,17.0839879 14.1506477,17.7637784 12.7240745,17.0574292 C11.2975012,16.3505149 10.759576,14.5253086 11.5213548,12.9809467 C12.2831336,11.4348895 14.0576103,10.7556641 15.4836196,11.4625784 C16.9101928,12.1694927 17.4481181,13.994134 16.6857754,15.539061 Z" id="Stroke-452" stroke="#CCCCCC" stroke-width="0.494" fill="none"></path>
                                    <path d="M14.0172941,13.6666705 C13.8915526,13.8158514 13.684615,13.8367594 13.5554903,13.7147022 C13.4246741,13.59208 13.4218548,13.3722641 13.5470324,13.2242133 L14.4260947,12.1850324 C14.5512723,12.0369816 14.75821,12.0149435 14.8878984,12.1370006 C15.0175869,12.2596229 15.021534,12.4788737 14.8963564,12.6280546 L14.0172941,13.6666705 Z" id="Fill-453" stroke="none" fill="#CCCCCC" fill-rule="evenodd"></path>
                                    <path d="M15.2298249,15.0252908 C15.1035196,15.1739067 14.8965819,15.1948146 14.7668935,15.0721924 C14.6366411,14.9507003 14.6338218,14.7303194 14.7595632,14.5822686 L15.6386255,13.5436527 C15.7638031,13.3956019 15.9707408,13.3735638 16.1009931,13.4950559 C16.2301178,13.6182432 16.2335009,13.8369289 16.1083234,13.9855448 L15.2298249,15.0252908 Z" id="Fill-454" stroke="none" fill="#CCCCCC" fill-rule="evenodd"></path>
                                    <path d="M14.8878984,15.8905403 C14.4232754,16.4053276 13.6581134,16.571461 13.0079794,16.2493657 C12.2225184,15.860026 11.9016804,14.9061721 12.2907458,14.1173213 C12.3522069,13.9924387 12.4272006,13.8794229 12.5145994,13.7788387" id="Stroke-455" stroke="#CCCCCC" stroke-width="0.988" fill="none" stroke-linecap="round"></path>
                                </g>
                            </g>
                            <polygon id="Fill-457" fill="#FFE448" mask="url(#mask-4)" points="112.213741 124.935996 114.645118 110.517431 132.001383 112.383888 129.066476 129.783812 115.669657 128.34286"></polygon>
                            <polyline id="Fill-458" fill="#EACC36" mask="url(#mask-4)" points="115.669601 128.343029 114.988454 124.189696 112.216504 124.93334"></polyline>
                            <polygon id="Fill-459" fill="#F9EB85" mask="url(#mask-4)" points="131.518321 115.245168 114.163184 113.378145 114.645287 110.517714 132.000988 112.384171"></polygon>
                            <path d="M125.226626,116.831741 C125.197305,116.976401 125.097502,117.082071 125.005028,117.069639 L115.020143,115.61569 C114.927106,115.602693 114.875231,115.474985 114.903988,115.329195 C114.933308,115.184535 115.033112,115.077735 115.126713,115.092427 L125.109907,116.544681 C125.203508,116.558808 125.255947,116.687081 125.226626,116.831741" id="Fill-460" fill="#25292D" mask="url(#mask-4)"></path>
                            <path d="M124.862653,119.06663 C124.833896,119.21129 124.734092,119.31696 124.641055,119.303398 L114.656734,117.851144 C114.563696,117.837017 114.511821,117.708744 114.541142,117.563519 C114.569335,117.418858 114.669702,117.312623 114.76274,117.327316 L124.747061,118.77957 C124.840098,118.793697 124.891974,118.920839 124.862653,119.06663" id="Fill-461" fill="#25292D" mask="url(#mask-4)"></path>
                            <path d="M128.615837,126.015354 C127.853494,127.560281 126.080709,128.240072 124.654136,127.533723 C123.227563,126.826808 122.689638,125.001602 123.451417,123.45724 C124.213195,121.911183 125.987672,121.231957 127.413681,121.938872 C128.840255,122.645786 129.37818,124.470427 128.615837,126.015354 Z" id="Stroke-462" stroke="#25292D" stroke-width="0.494" mask="url(#mask-4)"></path>
                            <path d="M125.947412,124.142964 C125.821671,124.292145 125.614733,124.313053 125.485608,124.190996 C125.354792,124.068373 125.351973,123.848557 125.47715,123.700507 L126.356213,122.661326 C126.48139,122.513275 126.688328,122.491237 126.818017,122.613294 C126.947705,122.735916 126.951652,122.955167 126.826474,123.104348 L125.947412,124.142964 Z" id="Fill-463" fill="#25292D" mask="url(#mask-4)"></path>
                            <path d="M127.159943,125.501584 C127.033638,125.6502 126.8267,125.671108 126.697012,125.548486 C126.566759,125.426994 126.56394,125.206613 126.689681,125.058562 L127.568744,124.019946 C127.693921,123.871895 127.900859,123.849857 128.031111,123.971349 C128.160236,124.094537 128.163619,124.313222 128.038441,124.461838 L127.159943,125.501584 Z" id="Fill-464" fill="#25292D" mask="url(#mask-4)"></path>
                            <path d="M126.81796,126.36689 C126.353337,126.881677 125.588175,127.047811 124.938041,126.725716 C124.15258,126.336376 123.831742,125.382522 124.220807,124.593671 C124.282269,124.468789 124.357262,124.355773 124.444661,124.255189" id="Stroke-465" stroke="#25292D" stroke-width="0.988" stroke-linecap="round" mask="url(#mask-4)"></path>
                            <path d="M49.7846421,48.4615454 L49.780695,48.4615454" id="Stroke-466" stroke="#000000" stroke-width="0.376" mask="url(#mask-4)"></path>
                        </g>
                        <g id="Group-482" transform="translate(0.000000, 131.000000)">
                            <path d="M13.8163603,9.99995122 L18.5643776,9.99995122 C24.0258776,9.99995122 28.4535672,15.6916098 28.4535672,22.7127805 L13.9557569,22.7127805 L13.8163603,9.99995122 Z" id="Fill-468" fill="#AABCBB"></path>
                            <path d="M13.9558138,22.7128366 L0.294951724,22.7128366 C0.294951724,15.6916659 4.72207241,10.0000073 10.1835724,10.0000073 L13.8164172,10.0000073 L13.9558138,22.7128366 Z" id="Fill-470" fill="#D9DBDB"></path>
                            <path d="M13.8163603,16.9409585 C13.8163603,18.6109829 12.4434466,19.9646171 10.7496362,19.9646171 C9.05639483,19.9646171 7.68291207,18.6109829 7.68291207,16.9409585 L7.68291207,7.42625122 C7.68291207,5.7567878 9.05639483,4.40203171 10.7496362,4.40203171 C12.4434466,4.40203171 13.8163603,5.7567878 13.8163603,7.42625122 L13.8163603,16.9409585 Z" id="Fill-472" fill="#F9D7AF"></path>
                            <path d="M19.9499224,12.8179561 C19.9499224,14.4879805 18.5764397,15.8410537 16.8826293,15.8410537 C15.1893879,15.8410537 13.8164741,14.4879805 13.8164741,12.8179561 L13.8164741,3.30324878 C13.8164741,1.63378537 15.1893879,0.279029268 16.8826293,0.279029268 C18.5764397,0.279029268 19.9499224,1.63378537 19.9499224,3.30324878 L19.9499224,12.8179561 Z" id="Fill-474" fill="#FFD5B0"></path>
                            <path d="M26.0829724,16.9409585 C26.0829724,18.6109829 24.7106276,19.9646171 23.0162483,19.9646171 C21.3224379,19.9646171 19.9500931,18.6109829 19.9500931,16.9409585 L19.9500931,7.42625122 C19.9500931,5.7567878 21.3224379,4.40203171 23.0162483,4.40203171 C24.7106276,4.40203171 26.0829724,5.7567878 26.0829724,7.42625122 L26.0829724,16.9409585 Z" id="Fill-476" fill="#F9D7AF"></path>
                            <path d="M7.68274138,16.2681805 C7.68274138,17.7025951 6.65291379,18.8649366 5.38241379,18.8649366 C4.11248276,18.8649366 3.08265517,17.7025951 3.08265517,16.2681805 L3.08265517,8.09869268 C3.08265517,6.66483902 4.11248276,5.50249756 5.38241379,5.50249756 C6.65291379,5.50249756 7.68274138,6.66483902 7.68274138,8.09869268 L7.68274138,16.2681805 Z" id="Fill-478" fill="#FFD5B0"></path>
                            <polyline id="Stroke-480" stroke="#353A3A" stroke-width="1.96" stroke-linecap="round" stroke-linejoin="round" points="13.8163603 20.7581732 65.9506707 20.7581732 65.9506707 19.6064902"></polyline>
                        </g>
                    </g>
                </g>
            </g>
        </g>
    </g>
</svg>